<svg xmlns="http://www.w3.org/2000/svg" viewBox="0 0 23 23" height="23" width="23"><title>cafe_15.svg</title><rect fill="none" x="0" y="0" width="23" height="23"></rect><rect x="1" y="1" rx="10.5" ry="10.5" width="21" height="21" stroke="#ffffff" style="stroke-linejoin:round;stroke-miterlimit:4;" fill="#ffffff" stroke-width="2"></rect><rect x="1" y="1" width="21" height="21" rx="10.5" ry="10.5" fill="#d97200"></rect><path fill="#fff" transform="translate(4 4)" d="M1.07,1.07V7.5c0,2.14,2.14,3.21,4.82,3.21s4.82-1.07,4.82-3.21h2.15A2.3,2.3,0,0,0,15,5.36V4.29a2.3,2.3,0,0,0-2.14-2.15H10.71V1.07Zm9.64,2.41h1.88c.71,0,1.07.61,1.07,1.34s-.41,1.34-1.07,1.34H10.71ZM0,11.79a2.3,2.3,0,0,0,2.14,2.14h7.5a2.31,2.31,0,0,0,2.15-2.14Z"></path></svg>