<svg xmlns="http://www.w3.org/2000/svg" viewBox="0 0 62 62" height="62" width="62"><title>chitwanpark.svg</title><rect fill="none" x="0" y="0" width="62" height="62"></rect><path fill="#051c05" transform="translate(1 1)" d="M 11.159917,44.890072 C 10.7355,44.147089 10.123532,43.062675 9.7999855,42.480263 l -0.588264,-1.05893 -0.02175,-1.066125 C 9.1659565,39.177606 9.0478855,38.6043 8.5726453,37.358211 8.3145409,36.681448 8.2931209,36.652027 7.8815173,36.408867 6.0079055,35.301997 4.8152256,33.788037 4.136178,31.65462 3.7716221,30.509277 3.6416487,29.552764 3.6495595,28.073508 c 0.00399,-0.73949 0.051834,-1.552805 0.1111882,-1.888938 l 0.104226,-0.590293 0.092936,1.062527 c 0.2762824,3.158991 1.1318306,5.471024 2.631224,7.110625 0.6406259,0.700531 1.067259,1.025875 1.9843687,1.513243 l 0.7510351,0.399118 0.324595,0.685776 c 0.6393485,1.350766 0.9949915,2.825296 0.9949915,4.125306 v 0.669581 l 0.986748,1.976428 c 0.54271,1.087033 0.98988,1.981094 0.993713,1.986802 0.0079,0.01182 3.856486,0.26786 4.000559,0.266185 0.367071,-0.0043 -0.44957,-1.335171 -1.068708,-1.741705 -0.361418,-0.237316 -0.03674,-0.16897 0.374986,0.07893 0.686813,0.413536 1.320334,1.287894 1.503363,2.074885 0.04811,0.206877 0.03796,0.216444 -0.229418,0.216444 -0.153857,0 -1.009678,0.03405 -1.901807,0.07564 -0.892129,0.04159 -2.015794,0.09167 -2.497032,0.111268 l -0.87498,0.03562 z M 6.1228606,45.172339 C 6.0463878,43.578366 5.8051848,42.670404 5.2217034,41.780226 4.6707689,40.939704 4.3652083,39.664608 4.2946695,37.911731 L 4.2487442,36.770496 3.8119392,35.944087 C 2.3492956,33.176836 1.9164044,29.957146 2.5479714,26.543149 c 0.080529,-0.435303 0.2303142,-1.057091 0.3328539,-1.381754 0.1658735,-0.52519 0.1823802,-0.551231 0.1496401,-0.236118 -0.020249,0.194796 -0.058397,0.973984 -0.084777,1.731527 -0.123292,3.538456 0.5801536,6.576727 2.0955841,9.051164 l 0.4097194,0.668998 0.046181,1.06253 c 0.080513,1.852352 0.3378599,3.00647 0.8573956,3.845104 0.1704024,0.275062 0.3801236,0.697301 0.4660482,0.938314 0.184745,0.518195 0.3726199,1.745291 0.3732395,2.437835 2.825e-4,0.415719 0.020775,0.491962 0.1316915,0.492235 0.1893887,6e-4 2.1475228,0.146749 2.6998983,0.201692 0.420738,0.04186 0.468561,0.0319 0.467083,-0.09738 -0.0029,-0.249533 -0.272458,-0.78247 -0.5721205,-1.130924 -0.283893,-0.330123 -0.284954,-0.333655 -0.06371,-0.212146 0.4456375,0.244745 0.9736635,0.958857 1.1943345,1.615233 l 0.107643,0.32019 -0.463495,0.046 c -0.563001,0.05587 -3.524582,0.200958 -4.1081574,0.201258 l -0.4197892,2.45e-4 -0.044361,-0.924794 z M 29.587162,45.926393 C 29.512552,45.676002 29.1814,41.963037 29.12326,40.725124 l -0.04896,-1.042516 0.274674,-0.905114 c 0.151078,-0.497813 0.517774,-1.941082 0.814893,-3.207259 0.297121,-1.266179 0.565935,-2.302146 0.597368,-2.302146 0.100846,0 0.06102,2.642674 -0.05727,3.799792 -0.06293,0.615627 -0.191299,1.497068 -0.285263,1.958764 -0.161803,0.795004 -0.165783,0.888752 -0.0752,1.77088 0.07802,0.759599 0.324444,3.840203 0.324782,4.059989 5e-5,0.03247 0.211021,0.05949 0.468824,0.06007 0.2578,6.03e-4 1.041144,0.05212 1.74076,0.114559 0.699624,0.06244 1.287194,0.09761 1.305724,0.07817 0.09986,-0.104798 -0.193217,-0.742209 -0.4793,-1.04244 -0.237218,-0.248946 -0.279373,-0.32434 -0.160222,-0.286551 0.69129,0.219248 1.174151,0.895445 1.174151,1.644274 0,0.336471 -0.01165,0.356748 -0.20624,0.357483 -0.113439,2.97e-4 -0.678727,0.03344 -1.256204,0.07337 -2.248341,0.155437 -3.635279,0.181879 -3.668629,0.06994 z m -4.650939,-0.163762 c 0.029,-0.09741 0.402195,-1.296841 0.829327,-2.665424 l 0.776602,-2.488334 0.514843,-0.659898 c 0.283164,-0.362942 0.941577,-1.273683 1.463141,-2.023865 0.521565,-0.750185 0.948299,-1.330172 0.948299,-1.288859 0,0.149896 -0.542063,1.481249 -0.904959,2.22267 -0.204443,0.417688 -0.56881,1.074936 -0.809703,1.460557 -0.367678,0.588576 -0.498945,0.903291 -0.817685,1.960419 -0.600326,1.991034 -0.855256,2.885841 -0.829183,2.910432 0.01326,0.01246 0.564137,0.03575 1.224112,0.05159 l 1.199953,0.0288 0.03892,-0.275467 c 0.03768,-0.266645 10e-4,-0.652039 -0.108123,-1.141235 l -0.05274,-0.236117 0.217545,0.257194 c 0.270222,0.319473 0.385502,0.684904 0.442432,1.402483 l 0.04425,0.557799 -1.484404,0.05217 c -0.816423,0.02871 -1.768117,0.05217 -2.114875,0.05217 -0.619445,0 -0.629546,-0.0031 -0.577748,-0.177088 z m 8.091316,-3.089203 c 0.10095,-1.422483 0.698137,-2.807384 1.797112,-4.167524 0.532627,-0.659207 1.114352,-1.606403 1.839221,-2.9947 0.339027,-0.649321 0.622115,-1.211023 0.629093,-1.248221 0.0068,-0.03719 -0.257319,-0.149289 -0.587308,-0.249096 -0.329986,-0.0998 -0.836213,-0.259273 -1.124951,-0.354372 -0.362558,-0.119412 -0.72222,-0.173868 -1.16246,-0.176015 -0.755429,-0.0037 -1.249494,0.167542 -1.992833,0.690656 -0.482447,0.339512 -0.48291,0.339644 -0.351337,0.101757 0.191613,-0.346443 0.711551,-0.803312 1.177929,-1.03505 0.982489,-0.488195 2.037672,-0.611738 3.452648,-0.404246 1.238473,0.181609 2.152291,0.08515 2.764362,-0.291804 1.038644,-0.639666 2.058204,-1.622222 2.669636,-2.572743 0.256622,-0.398937 0.334138,-0.600879 0.37763,-0.983822 0.06312,-0.555731 -0.01004,-1.380681 -0.186464,-2.10365 -0.313638,-1.285013 -1.326776,-3.321932 -2.45235,-4.930453 -0.159029,-0.227263 -0.254123,-0.413205 -0.211312,-0.413205 0.164507,0 2.013629,2.043074 2.493174,2.754701 0.617667,0.91659 1.193687,2.112358 1.421748,2.951467 0.134678,0.495503 0.171469,0.830862 0.172723,1.574114 0.0018,0.888256 -0.01118,0.970234 -0.213468,1.377353 -0.851169,1.713255 -2.531079,3.279597 -4.331828,4.038988 l -0.476104,0.200775 -0.509321,0.890614 c -0.955824,1.671388 -1.60977,2.571667 -2.705066,3.724022 -1.317384,1.386013 -1.866473,2.223698 -2.308335,3.521575 l -0.221231,0.649827 z M 14.56273,42.261655 c -0.51192,-1.369519 -0.863626,-2.853965 -0.956014,-4.035104 -0.07687,-0.982758 -0.02869,-0.915521 -0.692616,-0.966653 -0.32038,-0.02466 -0.773924,-0.115467 -1.007878,-0.201745 -0.414541,-0.152898 -1.30852,-0.698025 -1.248318,-0.761203 0.01657,-0.01741 0.231187,0.02693 0.476924,0.09847 0.267373,0.07786 0.717843,0.129232 1.121764,0.127923 1.140028,-0.0037 1.947618,-0.378871 2.759355,-1.281908 0.553523,-0.61578 0.951184,-1.312947 1.305174,-2.288175 0.133559,-0.367949 0.243952,-0.633008 0.245321,-0.589018 0.0012,0.04398 -0.115803,0.575252 -0.260365,1.180587 -0.41205,1.725338 -1.078272,3.028416 -1.733044,3.389704 l -0.273261,0.150774 0.04665,1.534761 c 0.0507,1.668157 0.191812,3.029222 0.387156,3.73439 0.182474,0.658735 0.09163,0.609379 -0.170851,-0.09282 z m 6.656021,-4.747242 c -0.982942,-0.128738 -1.792043,-0.31127 -2.575853,-0.581095 -0.819456,-0.282094 -1.92404,-0.81848 -2.253658,-1.094373 l -0.203496,-0.170331 0.148904,-0.354174 c 0.0819,-0.194796 0.207317,-0.59888 0.278706,-0.897965 l 0.129808,-0.543786 0.228075,0.30767 c 0.837045,1.129167 2.050421,1.906861 3.657208,2.344027 1.149119,0.312649 1.999357,0.389114 3.800057,0.341756 1.590539,-0.04184 2.404643,-0.136195 3.910981,-0.453356 0.389656,-0.08205 0.721698,-0.135285 0.737869,-0.11831 0.03733,0.03919 -1.479843,0.536351 -2.273608,0.74507 -1.665919,0.438054 -4.212744,0.6546 -5.584984,0.474869 z m 10.140374,-6.792058 c -1.10589,-0.856246 -1.155467,-2.575658 -0.162046,-5.619956 0.533675,-1.635432 0.705485,-2.84153 0.593363,-4.165437 -0.12484,-1.474153 -0.508711,-2.654932 -1.338864,-4.118378 -0.282392,-0.497812 -0.506592,-0.914005 -0.498225,-0.92487 0.0084,-0.01086 0.737964,0.258963 1.621328,0.599619 4.263096,1.644003 7.484283,2.342801 10.508478,2.279686 0.688957,-0.01437 1.22893,-0.0043 1.199946,0.02245 -0.117623,0.108458 -1.306967,0.386494 -2.137713,0.49975 -2.143286,0.292201 -4.762335,0.05804 -7.432619,-0.664501 -0.483781,-0.130909 -0.909256,-0.238012 -0.945494,-0.238012 -0.03623,0 -0.001,0.197119 0.07771,0.438044 0.192821,0.58816 0.373635,1.911042 0.371808,2.720289 -0.0034,1.48183 -0.262059,2.578059 -1.002602,4.248201 -0.871514,1.965517 -1.135217,2.897289 -1.0792,3.813288 0.03099,0.506675 0.07175,0.648961 0.270864,0.945416 0.128913,0.191939 0.224769,0.348979 0.213005,0.348979 -0.01182,0 -0.128641,-0.08305 -0.259749,-0.184561 z m -14.51065,-0.700878 c -1.005448,-1.378421 -2.07568,-3.4797 -2.515442,-4.938788 -0.123947,-0.411237 -0.298731,-1.20508 -0.388412,-1.764093 -0.201549,-1.256334 -0.372611,-1.849262 -0.800234,-2.773753 -0.623172,-1.347254 -1.601265,-2.716368 -2.76996,-3.877342 -0.356362,-0.354004 -0.6355115,-0.656013 -0.6203345,-0.671129 0.0693,-0.06902 1.8287835,-0.524662 2.5024995,-0.64804 0.579652,-0.106158 1.184287,-0.137648 2.6624,-0.138702 2.175874,-0.0016 2.834918,0.08898 4.813246,0.661198 3.030682,0.876599 5.624014,1.234697 8.475487,1.170332 0.779735,-0.0176 1.343305,-0.0032 1.252368,0.03218 -0.316214,0.122764 -1.983995,0.445983 -2.766554,0.536174 -1.125844,0.129743 -3.524885,0.111043 -4.712882,-0.03674 -0.550288,-0.06845 -1.663995,-0.264539 -2.474907,-0.435741 -0.810907,-0.171201 -1.778118,-0.352147 -2.149352,-0.402102 -1.173652,-0.157929 -4.482589,-0.07874 -4.663979,0.111618 -0.02319,0.02432 0.128993,0.286476 0.338144,0.582562 0.9253,1.309887 1.673857,2.947945 1.917919,4.19697 0.06413,0.328208 0.150008,1.05427 0.190852,1.613467 0.147979,2.026424 0.717618,4.075614 1.830549,6.585155 0.187175,0.422062 0.330077,0.767384 0.317562,0.767384 -0.01246,0 -0.210049,-0.256781 -0.43897,-0.570617 z m 32.269208,-0.855679 c -0.309361,-0.03733 -0.86622,-0.157001 -1.23745,-0.265915 -0.941735,-0.276311 -1.394129,-0.354211 -2.053909,-0.353684 -0.572833,4.82e-4 -1.270216,0.09276 -1.540731,0.203909 -0.106748,0.04387 -0.07183,-0.04077 0.13297,-0.322235 0.378837,-0.520683 0.691702,-1.21547 0.886095,-1.967832 0.137856,-0.533487 0.163691,-0.852015 0.169185,-2.085702 0.0034,-0.800833 -0.01678,-1.686273 -0.04532,-1.967644 l -0.05188,-0.511588 0.182177,0.573202 c 0.553018,1.740076 0.670244,3.805971 0.293715,5.17617 -0.04149,0.150982 -0.01118,0.161797 0.475607,0.169669 0.380576,0.006 0.698468,0.07576 1.186012,0.259746 1.80414,0.680778 2.193883,0.802829 2.691002,0.842722 0.730389,0.0586 1.243126,-0.09808 2.55713,-0.78142 l 1.102353,-0.573276 h 1.320139 c 1.197027,0 1.344614,-0.015 1.582627,-0.161822 0.14437,-0.08901 0.262039,-0.195256 0.261493,-0.236116 -0.0018,-0.12778 -0.584205,-0.285322 -0.916357,-0.247834 -0.174561,0.01971 -0.301686,0.0093 -0.282509,-0.02337 0.05316,-0.0902 0.66742,-0.235968 0.994472,-0.235968 0.351003,0 1.040618,0.20489 1.115051,0.331294 0.07064,0.119923 -0.480287,0.630255 -0.933046,0.864302 -0.311502,0.161025 -0.492742,0.186243 -1.589052,0.221108 l -1.237451,0.03936 -0.682014,0.334575 c -1.361553,0.667939 -2.818325,0.906847 -4.380294,0.718361 z m 8.88716,-2.469444 c -0.803272,-0.721273 -1.937101,-0.994735 -2.964627,-0.715017 -0.365242,0.09942 -0.393585,0.09875 -0.260086,-0.006 0.928232,-0.729482 2.326537,-0.847798 3.58095,-0.302997 0.186352,0.08092 0.171553,-0.131677 -0.06407,-0.919925 -0.445843,-1.491811 -1.263042,-2.711115 -2.123862,-3.168897 l -0.376131,-0.200028 -0.323582,0.239359 c -0.177969,0.131643 -0.609312,0.343723 -0.958528,0.471276 -1.041147,0.380276 -2.190278,0.305412 -3.167371,-0.206349 -0.874424,-0.457989 -1.795482,-1.341209 -2.577635,-2.471745 -0.470122,-0.67952 -0.461885,-0.708819 0.03954,-0.140697 1.133565,1.284323 2.474568,2.141543 3.695866,2.362541 1.433318,0.259363 2.344896,-0.639787 2.550962,-2.516183 0.105886,-0.964162 0.02334,-0.996976 1.133294,0.450534 2.136768,2.786594 3.122948,5.10658 2.755758,6.482895 -0.08599,0.322323 -0.472125,0.920554 -0.589767,0.913707 -0.02794,-0.0016 -0.185783,-0.124169 -0.350776,-0.272318 z M 5.6943448,25.468365 C 4.9739597,25.34397 4.2306792,24.899047 3.5433152,24.180774 3.2058402,23.828128 2.9067372,23.443478 2.878644,23.326001 c -0.069639,-0.291184 0.2717778,-1.428826 0.6538175,-2.178599 0.6004143,-1.178345 1.6626736,-2.418119 2.6776936,-3.125167 0.6376751,-0.444194 1.7165735,-1.010764 2.3340805,-1.225712 1.0028989,-0.349099 1.0637939,-0.33492 0.4246051,0.09886 -1.5982491,1.084647 -2.8747712,2.336207 -3.6841546,3.612115 -0.5180812,0.816707 -0.9821746,1.850916 -1.0601133,2.362414 -0.042444,0.278509 -0.022707,0.314134 0.4031484,0.727896 0.5806422,0.564157 1.0436371,0.79614 1.6732975,0.838396 0.4122297,0.02768 0.7542365,-0.03477 2.0624208,-0.376614 1.610165,-0.420737 2.6058615,-0.557529 2.9556905,-0.406062 l 0.187491,0.08118 -0.208606,0.0051 c -0.293089,0.0069 -0.991601,0.263248 -2.0413075,0.748826 -2.006133,0.928 -2.7221043,1.12493 -3.5623627,0.979835 z M 57.70676,25.024116 c -0.645587,-0.05227 -0.763598,-0.291431 -0.184998,-0.374942 0.306705,-0.04427 0.407276,-0.02827 0.524981,0.08351 0.141448,0.134341 0.202655,0.36439 0.08936,0.335811 -0.03093,-0.0079 -0.224135,-0.02779 -0.429332,-0.0444 z M 1.645992,24.393892 C 1.321001,24.222537 1.0439952,23.799225 1.0461669,23.477259 1.0480797,23.180462 1.2603865,22.674046 1.6230406,22.10067 1.8068835,21.810002 1.904698,21.554274 1.9275664,21.304508 1.9576351,20.976114 1.9390637,20.918271 1.7552623,20.766507 1.511252,20.565075 1.1486555,20.547414 0.62870452,20.71164 c -0.2005618,0.06334 -0.3752788,0.104016 -0.3882643,0.0904 -0.046532,-0.04883 0.5769376,-0.459538 0.85642808,-0.564157 0.1568258,-0.0587 0.4056458,-0.108299 0.5529305,-0.110199 0.3715565,-0.0048 1.0445952,0.37017 1.2508226,0.696859 0.2470554,0.391363 0.2161277,0.725139 -0.1277794,1.378944 -0.4566362,0.868123 -0.4634547,1.433298 -0.020105,1.665264 l 0.1678254,0.08782 -0.1851762,0.209693 c -0.3317261,0.375618 -0.6733306,0.447005 -1.0893991,0.227628 z m 50.827817,-0.182325 c -0.370991,-0.205535 -0.358878,-0.262084 0.02189,-0.102203 0.199913,0.08394 0.42277,0.113135 0.654523,0.08573 0.31507,-0.03727 0.336514,-0.03015 0.207513,0.06886 -0.199489,0.153089 -0.550647,0.132283 -0.883932,-0.05236 z m -0.0034,-0.667861 c -0.320515,-0.22857 -0.307266,-0.322286 0.05564,-0.393734 0.325686,-0.06411 0.590722,0.02106 0.535492,0.172111 -0.02794,0.07655 8.52e-4,0.106588 0.08833,0.09127 0.08704,-0.01534 0.130048,0.02885 0.130048,0.133496 0,0.09554 -0.05834,0.166052 -0.149992,0.181321 -0.123723,0.0206 -0.130287,0.0107 -0.0375,-0.05675 0.09223,-0.06701 0.08118,-0.08195 -0.06117,-0.08294 -0.09552,-6.41e-4 -0.247395,-0.03862 -0.337494,-0.08436 -0.154095,-0.07823 -0.153313,-0.07355 0.01326,0.07871 0.247453,0.226214 0.101705,0.202106 -0.236582,-0.03915 z m -6.400841,-3.493068 c -1.047555,-0.508946 -1.903986,-1.308512 -2.263291,-2.11301 -0.364977,-0.817199 -0.226426,-2.284082 0.277408,-2.937058 0.131804,-0.170805 0.135189,-0.171005 0.692732,-0.04083 1.513903,0.353468 2.515037,1.320769 2.872397,2.775322 0.06533,0.265978 0.11724,0.567029 0.115324,0.669 -0.0025,0.148873 -0.03851,0.114829 -0.181316,-0.172729 -0.515796,-1.038772 -1.668786,-1.806274 -2.713511,-1.806274 h -0.191064 l 0.02598,0.732508 c 0.02334,0.65736 0.05452,0.793004 0.303842,1.322112 0.26675,0.566038 0.878496,1.287132 1.409584,1.661528 0.267198,0.188367 0.178557,0.165305 -0.348109,-0.09057 z"></path></svg>