<svg xmlns="http://www.w3.org/2000/svg" viewBox="0 0 23 23" height="23" width="23"><title>hairdresser_15.svg</title><rect fill="none" x="0" y="0" width="23" height="23"></rect><rect x="1" y="1" rx="10.5" ry="10.5" width="21" height="21" stroke="#ffffff" style="stroke-linejoin:round;stroke-miterlimit:4;" fill="#ffffff" stroke-width="2"></rect><rect x="1" y="1" width="21" height="21" rx="10.5" ry="10.5" fill="#597fa6"></rect><path fill="#fff" transform="translate(4 4)" d="M4.29,0V10.21a2.67,2.67,0,0,0-1.61-.57,2.68,2.68,0,0,0,0,5.36,2.68,2.68,0,0,0,2.61-2.14h.14a2.71,2.71,0,1,0,1-2.65V0ZM8.57,0V2.14h4.29V3.21H8.57V4.29h4.29V5.36H8.57V6.43h4.29V7.5H8.57V8.57h4.29V15H15V2.14A2.3,2.3,0,0,0,12.86,0ZM2.68,10.71a1.61,1.61,0,1,1-1.61,1.61A1.61,1.61,0,0,1,2.68,10.71Zm5.36,0a1.61,1.61,0,1,1-1.61,1.61A1.6,1.6,0,0,1,8,10.71Z"></path></svg>