<svg xmlns="http://www.w3.org/2000/svg" viewBox="0 0 42 42" height="42" width="42"><title>krishnamandir.svg</title><rect fill="none" x="0" y="0" width="42" height="42"></rect><path fill="#051c05" transform="translate(1 1)" d="M 18.206068,39.162394 C 18.144378,39.098964 16.294743,38.945455 14.436549,38.84959 13.657794,38.80939 12.576548,38.737863 12.03378,38.690597 11.491012,38.643326 10.680076,38.578374 10.231702,38.546273 9.5154363,38.494961 9.3643926,38.454633 8.9874105,38.213836 8.7514245,38.063108 8.201147,37.712754 7.7645724,37.435269 7.1393812,37.037896 6.9708001,36.88879 6.9708001,36.733192 c 0,-0.108655 0.042748,-0.197551 0.094995,-0.197551 0.052245,0 0.076353,0.04855 0.053561,0.107961 -0.025406,0.0662 0.4267356,0.405332 1.1690234,0.876839 l 1.2104527,0.768879 1.1602048,0.0994 c 0.638113,0.05468 1.835984,0.144076 2.661936,0.198684 1.543609,0.102065 2.705788,0.187106 4.914528,0.359654 1.191588,0.09309 2.53449,0.047 4.181672,-0.14343 0.212388,-0.02458 1.023322,-0.08253 1.802078,-0.128822 0.778755,-0.04626 1.879308,-0.123619 2.445675,-0.171821 0.566368,-0.04821 1.608998,-0.115948 2.316958,-0.150547 0.707958,-0.03462 1.335468,-0.09295 1.394463,-0.129686 0.245542,-0.152877 0.06899,-0.228986 -0.557785,-0.24046 -0.552795,-0.01013 -0.607113,-0.02256 -0.321799,-0.07364 0.285279,-0.05112 0.234552,-0.06269 -0.300346,-0.06868 -0.35398,-0.004 -0.798064,0.02472 -0.986852,0.06377 -0.306021,0.0633 -0.273444,0.07221 0.300346,0.08219 0.922032,0.01603 0.594851,0.177188 -0.363113,0.178871 -0.412101,6.47e-4 -1.010647,0.03933 -1.330106,0.0858 -0.319457,0.04647 -1.082838,0.124433 -1.696402,0.173242 -0.613565,0.04882 -1.810659,0.150102 -2.66021,0.2251 -2.468948,0.217969 -3.239861,0.230548 -5.073166,0.08281 -0.949548,-0.07652 -2.397646,-0.177585 -3.217995,-0.224576 -0.82035,-0.047 -2.189865,-0.139544 -3.043363,-0.205666 L 9.5737348,38.181254 8.4009858,37.437945 c -0.6450143,-0.40882 -1.172751,-0.763592 -1.172751,-0.788374 0,-0.04767 0.064366,-0.01037 1.4126301,0.819047 0.7443386,0.457878 0.9051879,0.523987 1.2442917,0.511427 0.3861574,-0.01427 0.3866574,-0.01474 0.05934,-0.04855 C 9.7169019,37.907924 9.2602599,37.675126 8.4740569,37.181786 7.846876,36.788231 7.261722,36.452564 7.1737152,36.435857 7.0513806,36.41263 7.0072783,36.315452 6.9864195,36.023165 c -0.033745,-0.472841 0.1117893,-0.603064 0.6739844,-0.603064 0.2903817,0 0.4417497,-0.04681 0.5546848,-0.171625 0.1824443,-0.201599 0.3003454,-0.220845 0.3003454,-0.04902 0,0.243128 -0.2610383,0.392289 -0.6865057,0.392289 -0.7102702,0 -0.9098424,0.409978 -0.3918851,0.805046 0.1620414,0.123591 0.3183821,0.224717 0.3474224,0.224717 0.029037,0 0.2853537,0.15446 0.5695805,0.343249 0.2842278,0.188791 0.537048,0.343258 0.5618223,0.343258 0.024777,0 0.1475465,0.07221 0.2728238,0.160486 0.2781365,0.195976 1.2484597,0.310199 3.7032157,0.435932 2.391462,0.1225 2.895701,0.152614 4.633913,0.276777 1.734884,0.123928 2.322599,0.122447 4.033221,-0.01013 0.684361,-0.05307 1.958687,-0.135658 2.831837,-0.183564 0.873148,-0.04788 2.166783,-0.126365 2.874741,-0.174352 1.785924,-0.121073 3.141531,-0.160716 2.831837,-0.08283 l -0.257439,0.06479 0.239982,0.06713 c 0.278515,0.07791 0.337913,0.03805 0.36831,-0.247026 0.02248,-0.210858 -0.160224,-0.355533 -0.322412,-0.255296 -0.04664,0.02883 -0.979585,0.08774 -2.073224,0.130945 -1.093641,0.04316 -2.567677,0.115482 -3.275636,0.160634 -4.167755,0.265808 -5.950646,0.265108 -8.83876,-0.0034 -0.51917,-0.04828 -1.503877,-0.123382 -2.188237,-0.166898 -1.524693,-0.09694 -3.179511,-0.233761 -3.668515,-0.303309 -0.4857012,-0.06908 -0.4796505,-0.268892 0.01766,-0.583072 l 0.382058,-0.24137 1.484225,0.09608 c 0.816324,0.05286 2.140697,0.130923 2.943049,0.173502 0.802354,0.04256 2.057372,0.121201 2.78893,0.174704 1.654294,0.121004 2.441619,0.120836 4.076128,-6.74e-4 0.707959,-0.05273 1.92436,-0.131954 2.703116,-0.17609 1.952447,-0.110661 3.896294,-0.244797 4.473121,-0.308676 0.438562,-0.04855 0.478714,-0.07025 0.438124,-0.236664 -0.02457,-0.100763 -0.08105,-0.229774 -0.125487,-0.286704 -0.04444,-0.0569 -0.0586,-0.139436 -0.03146,-0.183356 0.02714,-0.0439 -0.0085,-0.127759 -0.07893,-0.186312 -0.126139,-0.104687 -0.533513,-0.100453 -4.332116,0.04505 -2.567467,0.09836 -9.401122,0.03354 -9.615441,-0.09117 -0.026,-0.01515 -0.663162,-0.05051 -1.415918,-0.07854 -1.976932,-0.07372 -2.51174,-0.128265 -2.318437,-0.236442 0.09816,-0.05496 0.560307,-0.06772 1.239655,-0.03427 4.890559,0.240637 7.259018,0.316246 7.168448,0.228838 -0.06889,-0.06647 -2.565807,-0.177262 -7.272334,-0.322651 -1.011991,-0.03125 -1.417398,-0.07169 -1.354053,-0.135032 0.10758,-0.107576 1.742073,-0.0996 4.085722,0.01993 0.896747,0.04573 2.595848,0.09639 3.77578,0.11256 1.179932,0.01616 1.842016,0.01623 1.471299,8.1e-5 -0.579304,-0.02518 -0.680103,-0.05252 -0.717226,-0.194453 -0.02377,-0.09084 -0.111246,-0.186771 -0.194423,-0.213168 -0.08318,-0.02639 -1.762706,-0.07998 -3.732289,-0.119086 -2.91299,-0.05785 -3.595209,-0.09343 -3.656925,-0.19083 -0.04173,-0.06586 -0.05566,-0.293512 -0.03096,-0.505906 0.0247,-0.212386 0.0087,-1.158479 -0.03551,-2.102423 -0.07163,-1.528382 -0.06549,-1.728008 0.05603,-1.823525 0.07506,-0.05899 0.09282,-0.107267 0.03949,-0.107267 -0.06693,0 -0.09215,-0.279216 -0.08139,-0.901042 l 0.01559,-0.901041 3.304438,-0.0113 c 1.817441,-0.0061 4.347068,-0.03764 5.621396,-0.06983 l 2.316955,-0.05851 -1.673356,-0.02498 c -0.920348,-0.01374 -3.542931,-0.03057 -5.827965,-0.03745 -3.178045,-0.0095 -4.16283,-0.03697 -4.189601,-0.116877 -0.03974,-0.11856 0.712695,-0.88387 0.864881,-0.879688 0.05467,0.0013 0.03181,0.05401 -0.05078,0.116722 -0.0826,0.06269 -0.150173,0.138703 -0.150173,0.168898 0,0.07213 5.251824,0.07099 6.598909,-0.0013 0.608089,-0.03272 1.00097,-0.08618 0.935965,-0.127402 -0.06161,-0.03906 -0.282585,-0.07165 -0.49104,-0.07237 -0.540333,-0.0021 -0.37853,-0.092 0.253119,-0.140978 l 0.533862,-0.04141 -0.04191,0.219249 -0.04191,0.219255 1.425471,-0.01078 c 0.784009,-0.0061 1.985404,-0.03778 2.669763,-0.07077 l 1.244292,-0.06 -1.75917,-0.02518 c -0.967545,-0.01388 -1.807441,-0.01893 -1.866439,-0.0113 -0.05899,0.0076 -0.107265,-0.02639 -0.107265,-0.07565 0,-0.118655 7.797157,-0.122331 7.980629,-0.004 0.09263,0.05987 -0.0037,0.08703 -0.343254,0.09692 -0.437663,0.01273 -0.41583,0.02114 0.300347,0.115362 0.525768,0.06918 0.722625,0.123611 0.616655,0.170493 -0.08562,0.03785 -0.413851,0.03482 -0.729413,-0.0068 -1.141424,-0.1505 -9.455415,-0.01683 -9.455415,0.152021 0,0.03926 2.42315,0.08133 5.384778,0.09348 l 5.384779,0.02208 0.02685,0.232992 c 0.02117,0.183606 -0.01521,0.24331 -0.171626,0.281667 -0.231,0.05663 -2.240838,0.09687 -3.116141,0.06237 -1.084333,-0.04277 -15.415075,0.09199 -15.344063,0.14427 0.03812,0.02807 0.07543,0.128265 0.08288,0.222663 0.0074,0.09439 0.03056,0.268166 0.05134,0.386161 l 0.03778,0.214534 1.664915,0.04573 1.664915,0.04573 -1.69481,0.01866 -1.694811,0.01866 v 0.210272 c 0,0.115646 0.06678,0.247634 0.148387,0.293304 0.140641,0.0787 0.140641,0.0916 0,0.247013 -0.131789,0.145624 -0.148387,0.389769 -0.148387,2.18266 v 2.018699 l 0.836679,0.05489 c 0.460174,0.03017 2.091697,0.0769 3.625607,0.103793 1.533912,0.02694 2.877182,0.06687 2.985045,0.08884 0.108729,0.02215 0.23303,0.137025 0.27896,0.257827 0.05942,0.156292 0.126516,0.204037 0.237305,0.168872 0.08496,-0.02694 1.233748,-0.08655 2.552877,-0.132412 6.067312,-0.210946 5.295629,-0.147114 6.260009,-0.517833 1.110378,-0.42684 1.207075,-0.451998 1.437371,-0.373964 0.183576,0.06222 0.180407,0.06833 -0.06436,0.124345 -0.25,0.05724 -0.247993,0.0592 0.06943,0.06908 0.385758,0.01199 0.350988,0.181774 -0.03723,0.181774 -0.368293,0 -0.559905,0.128493 -0.616947,0.413702 -0.06588,0.329398 -0.326283,0.426577 -1.388957,0.518356 l -0.858133,0.07411 0.740358,0.01178 c 0.738904,0.01178 0.915879,0.07996 0.966097,0.37224 0.01055,0.06134 0.104802,0.301801 0.20947,0.534358 0.202348,0.44958 0.164681,0.556343 -0.19966,0.565898 -0.0944,0.0027 -0.673635,0.04283 -1.287199,0.08974 -0.613564,0.04687 -1.772043,0.120411 -2.574396,0.163402 -0.802354,0.04297 -2.095987,0.128035 -2.874743,0.188985 -1.811462,0.141787 -4.289093,0.141416 -6.092737,-6.73e-4 -0.778755,-0.06148 -2.091697,-0.146581 -2.91765,-0.189174 -0.825952,-0.04263 -1.869409,-0.102654 -2.318796,-0.133456 -0.723339,-0.04956 -0.849137,-0.0365 -1.096669,0.114042 l -0.279605,0.170036 0.71051,0.05387 c 0.390782,0.02962 1.154594,0.09426 1.697362,0.143638 0.542769,0.04936 1.527476,0.124668 2.188238,0.167308 0.660762,0.04263 1.7227,0.128318 2.359863,0.190414 1.4513,0.141434 4.262424,0.140587 6.393084,-0.0021 0.896749,-0.06 2.441385,-0.143933 3.432528,-0.186554 0.991142,-0.04263 2.225673,-0.117005 2.743402,-0.165288 0.517729,-0.04828 0.972151,-0.05697 1.009827,-0.01926 0.111867,0.111866 0.169999,1.27947 0.06687,1.343202 -0.05007,0.03092 -0.698386,0.07004 -1.440694,0.08689 -0.742308,0.01683 -1.774428,0.07218 -2.293598,0.122991 -0.51917,0.05077 -1.619724,0.131282 -2.445676,0.178831 -0.825953,0.04754 -1.907199,0.125604 -2.40277,0.17345 -1.131481,0.109254 -3.802174,0.202238 -3.867857,0.134676 z m 3.180398,-0.658628 c 0.683836,-0.05097 1.263075,-0.114163 1.287198,-0.140486 0.02412,-0.02633 -0.380916,-0.01388 -0.900086,0.02768 -1.286112,0.102871 -3.593546,0.08493 -5.148792,-0.04007 -1.627276,-0.130755 -3.789515,-0.223369 -3.731974,-0.159846 0.0241,0.0266 0.854336,0.09246 1.844983,0.146344 0.990648,0.05387 2.438342,0.148844 3.217096,0.211001 0.778755,0.06216 1.589689,0.09839 1.802077,0.08051 0.212387,-0.01784 0.945662,-0.0742 1.629498,-0.125135 z m 3.347668,-0.248265 0.471972,-0.06526 -0.643599,-0.0027 c -0.353978,-0.0013 -0.875294,0.026 -1.158477,0.06114 l -0.51488,0.06391 0.686506,0.004 c 0.377578,0.0021 0.898893,-0.02525 1.158478,-0.06114 z M 12.205406,38.077222 c -0.306783,-0.03448 -0.828097,-0.06095 -1.158478,-0.05872 l -0.600693,0.004 0.471973,0.05784 c 0.259585,0.03178 0.780901,0.05824 1.158478,0.05872 l 0.686505,6.73e-4 -0.557785,-0.06269 z m 14.845685,0.0074 c 0.368131,-0.06552 0.358114,-0.06898 -0.214533,-0.07451 -0.330381,-0.0034 -0.755156,0.02613 -0.943945,0.06519 -0.318577,0.06592 -0.303155,0.07125 0.214533,0.07451 0.306781,0.0021 0.731558,-0.02741 0.943945,-0.06519 z m -1.373012,-2.918037 1.330105,-0.05913 -1.458825,-0.004 c -0.802353,-0.0021 -2.192526,0.02242 -3.089275,0.05489 l -1.630451,0.05906 1.759171,0.004 c 0.967544,0.0021 2.357719,-0.02242 3.089275,-0.05489 z m 2.450393,-0.433405 c 1.23895,-0.08514 1.537975,-0.162117 1.603524,-0.41278 0.04179,-0.159774 0.01819,-0.157187 -0.438789,0.04815 -0.534867,0.240326 -1.125911,0.290851 -5.202671,0.444747 l -2.059518,0.07773 2.488582,-0.0404 c 1.368722,-0.02222 2.992713,-0.07508 3.608872,-0.117422 z m 2.686708,-7.086553 c 0.01716,-0.01461 -0.735842,-0.01946 -1.673357,-0.01078 -0.99665,0.0092 -1.49074,0.03724 -1.189693,0.06738 0.479995,0.04808 2.793783,0.0021 2.86305,-0.05663 z M 18.963196,27.384316 c 2.129561,-0.115604 0.94912,-0.202319 -2.754176,-0.202319 -3.784546,0 -3.806284,6.72e-4 -3.968862,0.184284 l -0.163472,0.184286 2.91765,-0.05462 c 1.604706,-0.03004 3.390694,-0.08027 3.96886,-0.111658 z m -0.942408,9.174941 c 0.154236,-0.01912 0.385932,-0.01872 0.514878,6.74e-4 0.128948,0.0196 0.0028,0.03522 -0.280429,0.03475 -0.283184,-6.46e-4 -0.388686,-0.0165 -0.234449,-0.03562 z m 3.475078,6.54e-4 c 0.13044,-0.01974 0.323521,-0.01919 0.429065,0.0013 0.105545,0.0204 -0.0012,0.0365 -0.237166,0.0359 -0.235986,-6.53e-4 -0.322341,-0.01731 -0.191899,-0.03703 z m -6.737517,-0.172117 c 0.153391,-0.01905 0.404395,-0.01905 0.557785,0 0.153392,0.01905 0.02789,0.03461 -0.278892,0.03461 -0.306783,0 -0.432284,-0.01556 -0.278893,-0.03461 z m 9.739799,0.0027 c 0.0826,-0.02155 0.21775,-0.02155 0.300346,0 0.0826,0.02162 0.01501,0.03926 -0.150173,0.03926 -0.165191,0 -0.232769,-0.01771 -0.150173,-0.03926 z m -6.219921,-0.08885 c 0.154236,-0.01913 0.385933,-0.01872 0.514879,6.73e-4 0.128947,0.01959 0.0028,0.03522 -0.28043,0.03475 -0.283184,-6.47e-4 -0.388684,-0.0165 -0.234449,-0.03562 z m 2.959018,0.0027 c 0.0826,-0.02155 0.217751,-0.02155 0.300347,0 0.0826,0.02162 0.01501,0.03926 -0.150172,0.03926 -0.165191,0 -0.232769,-0.01771 -0.150175,-0.03926 z m -9.310732,-0.08722 c 0.106193,-0.02047 0.279965,-0.02047 0.386158,0 0.106195,0.02047 0.0193,0.03717 -0.193079,0.03717 -0.212386,0 -0.299273,-0.01677 -0.193079,-0.03717 z m 3.219175,-0.08683 c 0.130441,-0.01973 0.323522,-0.01919 0.429066,0.0013 0.105546,0.02033 -0.0011,0.0365 -0.237166,0.03589 -0.235987,-6.47e-4 -0.322341,-0.01731 -0.1919,-0.03703 z m 3.216816,-0.08632 c 0.15339,-0.01905 0.404394,-0.01905 0.557785,0 0.153391,0.01905 0.0279,0.03461 -0.278893,0.03461 -0.306782,0 -0.432284,-0.01556 -0.278892,-0.03461 z m 3.266265,0.0034 c 0.06194,-0.02479 0.13596,-0.02176 0.164475,0.0068 0.02853,0.02849 -0.02217,0.04882 -0.11263,0.04505 -0.09997,-0.004 -0.120301,-0.02445 -0.05185,-0.05186 z m -9.486543,-0.08877 c 0.13044,-0.01973 0.323522,-0.01919 0.429066,0.0013 0.105545,0.02035 -0.0011,0.03651 -0.237167,0.03582 -0.235986,-6.47e-4 -0.32234,-0.01731 -0.191899,-0.03703 z m 3.088095,-0.08675 c 0.17699,-0.01853 0.466609,-0.01853 0.643599,0 0.17699,0.01853 0.03219,0.03367 -0.3218,0.03367 -0.353978,0 -0.498788,-0.01515 -0.321799,-0.03367 z m 3.391159,-0.08549 c 0.154236,-0.01913 0.385932,-0.01872 0.514879,6.73e-4 0.128947,0.01959 0.0028,0.03522 -0.280429,0.03475 -0.283184,-6.54e-4 -0.388686,-0.0165 -0.23445,-0.03562 z m 2.70276,6.45e-4 c 0.13044,-0.01973 0.32352,-0.01919 0.429066,0.0013 0.105544,0.02033 -0.0012,0.0365 -0.237168,0.03582 -0.235986,-6.47e-4 -0.32234,-0.01732 -0.191898,-0.03703 z m -9.054475,-0.08705 c 0.200589,-0.01805 0.528825,-0.01805 0.729413,0 0.200589,0.01805 0.03647,0.03286 -0.364707,0.03286 -0.401175,0 -0.565294,-0.01482 -0.364706,-0.03286 z m 3.43353,-0.08367 c 0.106743,-0.02053 0.261208,-0.01973 0.343253,0.0013 0.08204,0.02148 -0.0054,0.03825 -0.194081,0.0373 -0.188788,-6.74e-4 -0.255917,-0.01852 -0.149172,-0.03906 z m 0.599691,0.004 c 0.059,-0.02384 0.155538,-0.02384 0.214533,0 0.059,0.02376 0.01073,0.04329 -0.107265,0.04329 -0.117995,0 -0.166264,-0.01946 -0.107268,-0.04329 z m 8.924573,0 c 0.059,-0.02384 0.155538,-0.02384 0.214535,0 0.059,0.02376 0.01073,0.04329 -0.107267,0.04329 -0.117994,0 -0.166263,-0.01946 -0.107268,-0.04329 z m -14.668695,-0.08753 c 0.06194,-0.02479 0.135961,-0.02176 0.164476,0.0068 0.02852,0.02849 -0.02217,0.04882 -0.112629,0.04505 -0.09997,-0.004 -0.120301,-0.02445 -0.05185,-0.05186 z m 2.269868,-0.08878 c 0.130441,-0.01974 0.323521,-0.01919 0.429065,0.0013 0.105546,0.02034 -0.0011,0.0365 -0.237165,0.03582 -0.235988,-6.46e-4 -0.322342,-0.0173 -0.1919,-0.03703 z M 8.6870641,35.333876 c -0.070795,-0.04573 -0.090101,-0.08319 -0.042911,-0.08319 0.0472,0 0.1437366,0.03744 0.2145326,0.08319 0.070795,0.04573 0.090101,0.08319 0.042911,0.08319 -0.0472,0 -0.1437366,-0.03744 -0.2145326,-0.08319 z m 1.2871989,0 c -0.070799,-0.04573 -0.0901,-0.08319 -0.042911,-0.08319 0.047199,0 0.143738,0.03744 0.214534,0.08319 0.0708,0.04573 0.0901,0.08319 0.04291,0.08319 -0.0472,0 -0.143737,-0.03744 -0.214534,-0.08319 z M 8.9445046,35.16225 c -0.07734,-0.04997 -0.087923,-0.08371 -0.026519,-0.0845 0.056204,-6.47e-4 0.1260669,0.0373 0.1552379,0.0845 0.065848,0.106541 0.036133,0.106541 -0.1287189,0 z M 8.5279215,34.985009 c -0.1486647,-0.05953 -0.185319,-0.12046 -0.138729,-0.230548 0.057686,-0.136312 0.06638,-0.500256 0.017214,-0.720279 -0.010824,-0.04842 0.2463633,-0.158708 0.5715344,-0.245013 0.5611766,-0.148944 0.7345945,-0.262535 0.7375713,-0.48311 6.726e-4,-0.0536 0.09785,-0.160655 0.2158469,-0.237962 0.2086789,-0.136736 0.2145249,-0.168029 0.2142479,-1.146898 -1.72e-4,-0.553481 -0.02565,-1.617966 -0.05666,-2.36553 L 10.032579,28.196466 9.6635155,27.925218 C 9.2186661,27.598271 9.1681584,27.326295 9.5289379,27.200529 9.9747352,27.04512 10.060079,26.884067 10.060079,26.1982 c 0,-0.680663 0.03651,-0.732467 0.516311,-0.732467 0.134659,0 0.346735,-0.03872 0.47128,-0.08609 l 0.226446,-0.08609 -0.04691,-1.22256 c -0.09264,-2.414435 -0.106538,-2.474052 -0.729316,-3.128315 -0.0992,-0.104217 -0.180373,-0.236179 -0.180373,-0.293236 0,-0.106271 0.763512,-0.839331 0.879583,-0.844503 0.0354,-0.0013 0.06436,-0.109334 0.06436,-0.239451 0,-0.159933 0.09575,-0.324462 0.295554,-0.50783 0.274058,-0.251519 0.288487,-0.289971 0.198393,-0.528653 -0.08938,-0.236778 -0.07133,-0.288947 0.225153,-0.650749 0.177271,-0.216339 0.396922,-0.433272 0.488111,-0.482073 0.0912,-0.04882 0.1658,-0.147666 0.1658,-0.219694 0,-0.107213 0.07391,-0.120378 0.407614,-0.07263 0.224186,0.03205 0.444474,0.06343 0.489525,0.06961 0.07821,0.01078 0.09777,-0.04256 0.121892,-0.331977 0.0059,-0.0708 0.09185,-0.128715 0.190995,-0.128715 0.162332,0 0.175534,-0.0363 0.132694,-0.364705 -0.09122,-0.699281 -0.160821,-1.010222 -0.236631,-1.057077 -0.04198,-0.02592 -0.07634,-0.123335 -0.07634,-0.216428 0,-0.0931 -0.05791,-0.191483 -0.128719,-0.218649 -0.224597,-0.0862 -0.139601,-0.350912 0.171626,-0.534542 0.165192,-0.09747 0.303566,-0.207474 0.307498,-0.244463 0.0038,-0.03698 0.0169,-0.155672 0.02882,-0.263739 0.01191,-0.108067 0.161967,-0.340166 0.333445,-0.515775 0.238783,-0.244537 0.299636,-0.365719 0.259919,-0.517599 -0.03431,-0.131211 0.01013,-0.282162 0.131379,-0.446147 0.100784,-0.136313 0.183235,-0.287285 0.183235,-0.335495 0,-0.04821 0.106195,-0.109368 0.235987,-0.135909 0.529382,-0.108256 0.651427,-0.232253 0.801662,-0.81448 0.380164,-1.4733019 1.02077,-2.8301159 1.771203,-3.7514467 0.36849,-0.4524093 0.385139,-0.4951235 0.292662,-0.7508648 -0.163352,-0.4517415 -0.128924,-0.645143 0.114843,-0.645143 0.22243,0 0.23142,-0.018919 0.346424,-0.7294116 0.03055,-0.188789 0.06846,-0.4204849 0.08422,-0.514879 0.01576,-0.094399 0.03189,-0.2005895 0.03581,-0.2359869 0.01387,-0.1248248 0.350405,-0.063011 0.350405,0.064356 0,0.2060637 0.114718,0.1482223 0.312757,-0.1576922 0.181723,-0.2807112 0.181927,-0.2856074 0.01615,-0.3891404 -0.257617,-0.1608835 -0.18196,-0.5609103 0.112535,-0.5950152 0.263833,-0.030557 0.395265,-0.4011374 0.184164,-0.5192746 -0.08012,-0.044837 -0.113887,-0.1726424 -0.09577,-0.3625419 0.03046,-0.3195227 0.0061,-0.3130153 0.77883,-0.2084571 0.265789,0.035969 0.407613,0.023343 0.407613,-0.036288 0,-0.1050481 -0.09325,-0.1225116 -0.520951,-0.097569 -0.198232,0.01156 -0.348182,-0.032455 -0.424708,-0.124663 -0.102097,-0.1230132 -0.09053,-0.1948423 0.08434,-0.5245146 0.12601,-0.2375303 0.19768,-0.50863989 0.189519,-0.71690237 -0.0072,-0.18420556 0.02808,-0.36039242 0.07847,-0.39152499 0.123409,-0.0762751 0.448405,0.28315114 0.391088,0.43251483 -0.02507,0.065305 -0.0069,0.13158661 0.0401,0.14729192 0.04713,0.0157045 0.0943,0.0857831 0.10486,0.15571801 0.01056,0.069943 0.04935,0.1754307 0.08619,0.2344283 0.09837,0.1574579 -0.0097,0.2788929 -0.248243,0.2788929 -0.191306,0 -0.172537,0.03532 0.219597,0.4132902 0.25323,0.2440803 0.428782,0.4887811 0.428782,0.5976731 0,0.2250065 -0.269575,0.3838103 -0.537414,0.316586 -0.16131,-0.040481 -0.20024,-0.013235 -0.211571,0.1480973 -0.01157,0.1647553 -4.22e-4,0.1740095 0.067,0.055517 0.09188,-0.1615195 0.423804,-0.1181391 0.536076,0.070069 0.03776,0.063262 0.123272,0.1150341 0.190062,0.1150341 0.164397,0 0.320641,0.3118226 0.256891,0.5126841 -0.02844,0.089627 -0.136416,0.1750483 -0.239936,0.1898385 -0.104254,0.014891 -0.238519,0.1321637 -0.300972,0.262876 -0.09488,0.1985834 -0.275014,0.3276933 -0.275014,0.1971175 0,-0.1139498 0.210142,-0.4760104 0.276278,-0.4760104 0.0424,0 0.05324,-0.038612 0.02407,-0.085812 -0.02917,-0.0472 -0.110959,-0.085812 -0.181755,-0.085812 -0.0708,0 -0.10464,0.038961 -0.07521,0.086587 0.07101,0.1148928 -0.03199,0.4282974 -0.14076,0.4282974 -0.0472,0 -0.06129,-0.077234 -0.03134,-0.1716258 0.02995,-0.09439 0.01857,-0.1716265 -0.0253,-0.1716265 -0.09708,0 -0.209796,0.8763015 -0.13708,1.0657963 0.03328,0.086712 0.156988,0.1355882 0.343196,0.1355882 0.223119,0 0.291166,0.036085 0.291166,0.1543879 0,0.1759477 0.423774,0.3604921 0.827812,0.3604921 0.324193,0 0.656665,0.3309194 0.616628,0.6137471 -0.02273,0.1605988 -0.08926,0.207244 -0.327926,0.229898 -0.16467,0.015627 -0.434982,-0.015481 -0.600691,-0.069139 C 21.308462,6.4495487 21.0044,6.3981421 20.798478,6.3889733 l -0.374404,-0.016673 -0.117185,0.4502118 c -0.06446,0.2476161 -0.229153,0.7496229 -0.366002,1.1155708 -0.13685,0.3659475 -0.292141,0.8493406 -0.34509,1.0742053 -0.11947,0.5073523 -0.127016,2.0077028 -0.01046,2.0797388 0.04801,0.02966 0.08581,0.43329 0.08581,0.916105 v 0.863072 l -0.211936,-0.04051 c -0.116564,-0.02229 -0.191518,-0.0074 -0.166562,0.0329 0.02496,0.04038 0.135131,0.07342 0.244835,0.07342 0.132599,0 0.215811,0.06251 0.248235,0.186518 0.09809,0.375086 -0.07006,0.414317 -0.65908,0.153766 -0.370004,-0.163671 -0.455251,-0.168427 -1.362467,-0.07604 -0.532271,0.0542 -1.006382,0.137804 -1.053581,0.185771 -0.05803,0.05897 0.02536,0.06985 0.257441,0.03359 0.188788,-0.02949 0.718537,-0.07887 1.177218,-0.109712 0.824118,-0.05542 0.83489,-0.05365 0.912212,0.149719 0.04303,0.113193 0.08056,0.23992 0.0834,0.281618 0.0028,0.0417 0.170506,0.149848 0.372606,0.24033 0.202101,0.09048 0.396897,0.210829 0.432883,0.267436 0.104193,0.163911 0.07834,0.403267 -0.04356,0.403267 -0.160956,0 -0.573435,-0.202501 -0.574223,-0.281908 -3.57e-4,-0.03705 0.0787,-0.02491 0.175715,0.027 0.09701,0.05191 0.222513,0.07885 0.278892,0.05987 0.109907,-0.03703 -0.659414,-0.405646 -0.846645,-0.405646 -0.06166,0 -0.124331,-0.106193 -0.139264,-0.235986 l -0.02714,-0.235987 -1.181657,0.03243 -1.181655,0.03243 0.02701,-0.41406 c 0.02466,-0.378058 0.06026,-0.4387 0.409336,-0.697429 0.210281,-0.155852 0.459559,-0.319562 0.553955,-0.363802 0.09439,-0.04423 0.123355,-0.08288 0.06435,-0.08587 -0.18068,-0.0092 -0.119108,-0.412578 0.08829,-0.57845 0.107556,-0.08603 0.183318,-0.216904 0.168363,-0.290853 -0.01496,-0.07395 0.05845,-0.243327 0.163124,-0.3764 0.104675,-0.133071 0.200656,-0.338922 0.213293,-0.457445 0.0438,-0.4108195 0.373103,-0.4787995 0.377122,-0.07786 9.68e-4,0.103408 0.07497,0.34899 0.164306,0.545739 0.08934,0.196749 0.147467,0.372679 0.129191,0.390953 -0.01828,0.01828 0.104173,0.16283 0.272108,0.321228 0.235166,0.221816 0.295818,0.33779 0.26392,0.504647 -0.04327,0.226322 0.0058,0.442357 0.100268,0.441637 0.03036,-2.58e-4 0.05518,-0.246881 0.05518,-0.54811 0,-0.418175 -0.03871,-0.590616 -0.163686,-0.729226 -0.140763,-0.156115 -0.150743,-0.226571 -0.07126,-0.503102 0.05084,-0.17686 0.07294,-0.514644 0.04912,-0.7506301 -0.05093,-0.5046873 0.188213,-1.691144 0.518814,-2.5740252 0.136639,-0.3648955 0.224796,-0.7751582 0.224796,-1.0461467 0,-0.2452043 0.03359,-0.4665822 0.07463,-0.49195 0.04145,-0.025619 0.04312,-0.2090719 0.0037,-0.4126764 -0.112146,-0.5798716 -0.09246,-1.4729657 0.03637,-1.6491371 0.0949,-0.129781 0.199269,-0.1498963 0.603713,-0.1163577 0.337912,0.02802 0.461461,0.013031 0.399906,-0.048527 -0.130413,-0.1304285 -1.180962,-0.1803287 -1.322559,-0.062821 -0.06451,0.053532 -0.189743,0.074203 -0.278321,0.045931 -0.151936,-0.048488 -0.152551,-0.044392 -0.01087,0.072345 0.210994,0.1738439 0.186937,0.4893881 -0.07272,0.9539757 -0.215662,0.3858611 -0.413733,0.4785065 -0.56956,0.266407 -0.05912,-0.080477 -0.105355,0.1840284 -0.08248,0.4719721 0.02398,0.301942 -0.16751,0.671088 -0.375144,0.7231996 -0.178092,0.044702 -0.198308,0.079886 -0.124811,0.2172145 0.185403,0.346428 0.09887,0.7157521 -0.259273,1.1065801 -0.721155,0.7869678 -1.32904,2.0746125 -1.833765,3.8843435 -0.07397,0.265209 -0.19682,0.533936 -0.273008,0.597166 -0.07619,0.06324 -0.172163,0.203439 -0.213275,0.311572 -0.07366,0.193763 -0.422247,0.285227 -0.422247,0.110794 0,-0.0472 0.07724,-0.08581 0.171627,-0.08581 0.180003,0 0.231172,-0.124696 0.08758,-0.213436 -0.116846,-0.07222 -0.447322,0.117341 -0.38379,0.220139 0.02852,0.04615 -0.03069,0.150742 -0.131567,0.232433 -0.245449,0.198752 -0.156166,0.41908 0.160926,0.397128 0.198295,-0.01373 0.240819,0.0167 0.233225,0.166899 -0.0073,0.145229 -0.07217,0.189472 -0.309633,0.211307 -0.326599,0.03003 -0.772319,0.384917 -0.772319,0.614929 0,0.239816 -0.207937,0.591222 -0.375824,0.635121 -0.11523,0.0301 -0.144145,0.08658 -0.101166,0.197484 0.117466,0.303115 0.305444,1.095631 0.310802,1.310354 l 0.0054,0.217955 0.08298,-0.207625 c 0.142763,-0.35717 0.259687,-0.07588 0.232147,0.558498 -0.02095,0.482713 -0.05324,0.596552 -0.175842,0.619927 -0.120075,0.0229 -0.152926,-0.03711 -0.163907,-0.299458 -0.01327,-0.316887 -0.01492,-0.31857 -0.04835,-0.04922 -0.0351,0.282831 -0.145416,0.367229 -0.224343,0.171624 -0.02381,-0.05899 -0.04633,-0.0034 -0.05005,0.12386 -0.0038,0.13277 0.06046,0.278832 0.151232,0.343251 0.28436,0.2018 0.373055,0.4848 0.330893,1.055777 -0.02203,0.298361 -0.06813,0.587899 -0.102448,0.643421 -0.07106,0.114979 -2.003145,0.09193 -2.07535,-0.02472 -0.08091,-0.130763 0.226176,-0.475057 0.505927,-0.56722 0.186547,-0.06148 0.485161,-0.06773 0.882625,-0.01853 0.33038,0.04088 0.616781,0.05993 0.636447,0.04229 0.09083,-0.08139 -0.114189,-0.14046 -0.63164,-0.181996 l -0.562594,-0.04518 v -0.400159 c 0,-0.220083 0.04634,-0.44649 0.102975,-0.50313 0.08009,-0.08009 0.07142,-0.102975 -0.03907,-0.102975 -0.07812,0 -0.361759,0.214509 -0.6303,0.476686 -0.366732,0.358046 -0.4638,0.501144 -0.389997,0.574951 0.177659,0.177658 0.103057,0.454678 -0.202088,0.750439 -0.170281,0.165039 -0.300346,0.375817 -0.300346,0.486726 0,0.116333 -0.126609,0.309493 -0.31239,0.476594 -0.599961,0.539622 -0.578448,0.493904 -0.34957,0.742823 0.381152,0.414517 0.490325,0.645078 0.491278,1.037521 0.0012,0.515199 0.09574,1.067549 0.163795,0.957446 0.03143,-0.05084 0.103425,-0.05758 0.170845,-0.01589 0.09001,0.05562 0.116416,0.371938 0.116058,1.38993 l -4.22e-4,1.317922 -0.289948,0.02175 c -1.193796,0.0896 -1.276835,0.152871 -1.276835,0.972605 v 0.595954 l -0.3018421,0.14394 -0.3018408,0.143936 0.3876539,0.355902 0.387654,0.355911 v 2.445134 2.445141 l -0.257439,0.229383 c -0.141591,0.126157 -0.25744,0.303318 -0.25744,0.393689 0,0.170103 -0.2551934,0.28438 -0.8601295,0.385163 -0.2740229,0.04566 -0.3105222,0.08562 -0.389638,0.426619 -0.072064,0.310589 -0.06423,0.392024 0.044905,0.466685 0.1633669,0.111766 0.1091746,0.114803 -0.1556639,0.0087 z M 11.668128,23.770924 c -0.01703,-0.271383 -0.03097,-0.04936 -0.03097,0.493428 0,0.542767 0.01393,0.76481 0.03097,0.493426 0.01703,-0.271383 0.01703,-0.71547 0,-0.986854 z m 2.339356,-4.82699 c 0,-0.1539 -0.0572,-0.171631 -0.553749,-0.171631 -0.304562,0 -0.660609,0.04828 -0.791218,0.107268 l -0.237471,0.107266 0.3407,0.05219 c 0.187383,0.02868 0.543431,0.05765 0.791218,0.06437 0.39737,0.0107 0.45052,-0.0081 0.45052,-0.159443 z m 0.05258,-0.894219 c -0.08493,-0.157706 -0.251505,-0.338705 -0.370159,-0.402201 -0.195897,-0.104842 -0.231005,-0.09661 -0.38175,0.08956 -0.2596,0.32059 -0.173171,0.456855 0.356371,0.561826 0.259421,0.05145 0.48929,0.08091 0.510819,0.06552 0.02153,-0.01535 -0.03036,-0.157006 -0.115281,-0.314718 z m 1.213162,-5.000234 c -0.0826,-0.02158 -0.21775,-0.02158 -0.300346,0 -0.0826,0.02158 -0.01501,0.03924 0.150173,0.03924 0.165191,0 0.232769,-0.01766 0.150173,-0.03924 z m 2.295504,-0.02271 c 0.420289,-0.06546 0.422044,-0.06697 0.08581,-0.07335 -0.188789,-0.0036 -0.497717,0.02543 -0.686505,0.06448 -0.293903,0.0608 -0.30624,0.07134 -0.08581,0.07335 0.141592,0.0012 0.45052,-0.02773 0.686506,-0.06448 z m 1.716264,-0.0039 c -0.02917,-0.0472 -0.09903,-0.08522 -0.155238,-0.0845 -0.06141,8.08e-4 -0.05083,0.03452 0.02652,0.0845 0.164858,0.106539 0.194565,0.106539 0.12872,0 z m -0.450522,-0.146347 c -0.106195,-0.02046 -0.279966,-0.02046 -0.386159,0 -0.106196,0.02045 -0.0193,0.03719 0.193078,0.03719 0.212388,0 0.299274,-0.01673 0.193081,-0.03719 z m -0.222728,-0.239786 c 0.290477,0 0.509877,-0.02955 0.487558,-0.06565 -0.07068,-0.114381 -0.641119,-0.320499 -0.886977,-0.320499 -0.295736,0 -0.791893,0.202949 -0.943886,0.386089 -0.10448,0.125891 -0.07246,0.132231 0.350084,0.06932 0.255795,-0.03809 0.702745,-0.06925 0.993221,-0.06925 z m 0.287086,-0.471973 c 0,-0.0472 -0.06758,-0.08522 -0.150172,-0.0845 -0.128338,0.0011 -0.131457,0.01341 -0.02145,0.0845 0.161948,0.104659 0.171627,0.104659 0.171627,0 z m -0.08581,-0.386157 c -0.231594,-0.246522 -0.710501,-0.288338 -0.978571,-0.08544 -0.208153,0.157543 -0.103678,0.19963 0.592412,0.238658 0.283183,0.01588 0.531264,0.03618 0.55129,0.04509 0.02003,0.0089 -0.05429,-0.08032 -0.165131,-0.198308 z m -0.300347,-0.471974 c -0.02917,-0.0472 -0.145017,-0.08581 -0.257439,-0.08581 -0.112422,0 -0.228271,0.03861 -0.257439,0.08581 -0.03162,0.05117 0.07231,0.08581 0.257439,0.08581 0.185132,0 0.289064,-0.03465 0.257439,-0.08581 z m -0.128719,-0.295281 c 0,-0.09058 -0.164685,-0.128626 -0.213668,-0.04937 -0.02964,0.04796 0.0063,0.08722 0.07988,0.08722 0.07358,0 0.133785,-0.01703 0.133785,-0.03785 z m 3.861594,-4.7148332 c 0,-0.1518008 -0.282315,-0.3961172 -0.457727,-0.3961172 -0.09553,0 -0.303483,-0.046939 -0.462125,-0.1042998 -0.217825,-0.078763 -0.326909,-0.080274 -0.445598,-0.0061 -0.10892,0.068026 -0.184589,0.070728 -0.246512,0.00881 -0.130964,-0.130964 -0.309614,6.168e-4 -0.192473,0.1417141 0.06919,0.083362 0.0438,0.1269479 -0.103098,0.1770011 -0.175799,0.059903 -0.166349,0.069953 0.09646,0.1026603 0.160239,0.019936 0.314704,-6.177e-4 0.343252,-0.045603 0.03129,-0.04934 0.23939,-0.021349 0.523878,0.070475 0.503553,0.1625275 0.943945,0.1865621 0.943945,0.051518 z m -0.286044,-0.024263 c -0.03146,-0.031467 -0.0572,-0.097111 -0.0572,-0.1458821 0,-0.053774 0.03997,-0.04871 0.101548,0.012878 0.05586,0.055856 0.08159,0.1214978 0.0572,0.145883 -0.02438,0.024389 -0.07007,0.018589 -0.101548,-0.012879 z M 19.875521,3.1927567 c 0.0293,-0.076372 0.01492,-0.1108137 -0.03373,-0.080748 -0.04666,0.028833 -0.08483,0.088765 -0.08483,0.1331774 0,0.1234363 0.06151,0.09624 0.118555,-0.052428 z m 0.95411,0.047365 c 0.02917,-0.0472 -0.02648,-0.085812 -0.123655,-0.085812 -0.09718,0 -0.176692,0.038612 -0.176692,0.085812 0,0.0472 0.05564,0.085812 0.123656,0.085812 0.06801,0 0.147521,-0.038612 0.176691,-0.085812 z M 20.51749,2.6042469 c 0.221305,0.00474 0.319982,-0.019983 0.252085,-0.06304 -0.150886,-0.095706 -1.012609,-0.092957 -1.012609,0.00319 0,0.042146 0.05793,0.09886 0.128721,0.1260272 0.0708,0.027167 0.13257,0.1181847 0.137273,0.2022615 0.0056,0.1010919 0.02927,0.080206 0.06971,-0.061674 0.05339,-0.1872776 0.107361,-0.2135508 0.424817,-0.2068083 z M 15.142768,33.94664 c -0.07688,-0.0769 -0.10521,-0.595745 -0.104357,-1.911895 6.74e-4,-0.993501 0.0241,-1.89189 0.05212,-1.996415 0.02802,-0.104528 0.239883,-0.311283 0.470801,-0.459467 0.230917,-0.148178 0.419849,-0.304004 0.419849,-0.346288 0,-0.04229 0.05793,-0.07686 0.128722,-0.07686 0.0708,0 0.12872,0.02983 0.12872,0.06626 0,0.03643 0.138591,0.140937 0.307981,0.232157 0.16939,0.09122 0.380227,0.257707 0.468528,0.369964 0.166862,0.21213 0.367706,0.192582 0.283227,-0.02755 -0.02659,-0.06928 -0.01203,-0.125975 0.03235,-0.125975 0.152577,0 0.193455,0.113132 0.0871,0.241046 -0.07507,0.09028 -0.119194,0.713437 -0.149429,2.110317 l -0.04291,1.982205 -0.988589,0.02397 c -0.695895,0.0169 -1.019834,-0.0071 -1.094119,-0.08154 z m 1.84837,-2.025513 c 0.0213,-1.76256 0.01128,-1.915673 -0.12872,-1.966213 -0.0835,-0.03017 -0.254323,-0.125759 -0.3796,-0.212474 -0.295315,-0.204406 -0.334811,-0.200615 -0.751372,0.07211 -0.403673,0.264293 -0.372104,0.05514 -0.353617,2.34269 0.009,1.119474 0.04285,1.605252 0.115005,1.652404 0.05621,0.0367 0.411119,0.0569 0.788697,0.04484 l 0.686506,-0.02195 z m 0.745884,2.019473 c -0.02356,-0.06142 -0.03244,-1.012417 -0.01976,-2.113387 l 0.02308,-2.001768 0.429066,-0.245458 c 0.51341,-0.293701 0.745091,-0.309991 1.119341,-0.07869 0.154806,0.09568 0.42002,0.179161 0.589367,0.185531 0.237447,0.0089 0.307903,0.04767 0.307903,0.169295 0,0.09125 0.06149,0.157726 0.145881,0.157726 0.113464,0 0.122999,-0.0229 0.04291,-0.102975 -0.146584,-0.146581 -0.138753,-0.376793 0.0086,-0.254454 0.08267,0.06862 0.19953,0.03865 0.450519,-0.115537 0.416769,-0.256022 0.705323,-0.265794 1.141137,-0.03865 0.608897,0.317378 0.599902,0.285998 0.61401,2.142054 0.0069,0.920348 0.0098,1.838595 0.0062,2.04055 l -0.0065,0.367196 -1.137025,-0.02391 -1.137027,-0.02391 v -1.952286 c 0,-1.504646 -0.02459,-1.952281 -0.107265,-1.952247 -0.059,2e-5 -0.115866,-0.04822 -0.126374,-0.107233 -0.01051,-0.05899 -0.03947,0.819518 -0.06436,1.952252 l -0.04526,2.059521 -1.095823,0.02404 c -0.837844,0.01838 -1.105906,-0.0021 -1.138655,-0.08759 z m 1.934131,-2.032045 v -1.966887 l -0.25151,-0.05522 c -0.138331,-0.03038 -0.297524,-0.110681 -0.353762,-0.178446 -0.142595,-0.171821 -0.258808,-0.15576 -0.714024,0.09867 l -0.396968,0.221869 v 1.866252 c 0,1.026437 0.02575,1.891989 0.0572,1.923458 0.03146,0.03145 0.417624,0.05717 0.858133,0.05717 h 0.800922 z m 2.680441,1.902522 c 0.0167,-0.03543 0.0093,-0.891446 -0.01639,-1.902328 l -0.04674,-1.837954 -0.404921,-0.24861 -0.40492,-0.248608 -0.453212,0.247598 -0.453212,0.247599 -0.02326,1.793848 c -0.01279,0.986617 -0.0043,1.843113 0.01876,1.90333 0.04635,0.120796 1.728131,0.163335 1.783896,0.04512 z m 0.63767,0.178776 c -0.03146,-0.03144 -0.05721,-0.919627 -0.05721,-1.973702 0,-1.646343 -0.01814,-1.916494 -0.12872,-1.916494 -0.0708,0 -0.128721,-0.03502 -0.128721,-0.07777 0,-0.04277 0.07392,-0.05845 0.164279,-0.03482 0.103348,0.027 0.196133,-0.01576 0.250161,-0.1153 0.04723,-0.08704 0.262928,-0.253991 0.47932,-0.371002 0.21639,-0.117005 0.39344,-0.242509 0.39344,-0.278893 0,-0.146729 0.325854,-0.0528 0.514879,0.148386 0.110848,0.117989 0.252735,0.214528 0.315304,0.214528 0.06256,0 0.190993,0.07724 0.285388,0.171632 0.159638,0.159638 0.171717,0.287007 0.17294,1.823525 6.73e-4,0.90855 0.03579,1.706377 0.07794,1.772951 0.04215,0.0666 0.04437,0.18242 0.005,0.257437 -0.03943,0.07502 -0.09259,0.203976 -0.118152,0.286569 -0.04098,0.132419 -0.171917,0.150177 -1.107533,0.150177 -0.583582,0 -1.0868,-0.02579 -1.118264,-0.05724 z M 24.929,33.712348 c 0.03638,-0.03495 0.05569,-0.86857 0.0429,-1.85242 l -0.02324,-1.788817 -0.397586,-0.244259 -0.397585,-0.244259 -0.431045,0.223632 c -0.3574,0.185423 -0.440407,0.273538 -0.485838,0.515704 -0.06234,0.33224 -0.04574,3.38549 0.019,3.49933 0.04888,0.08594 1.573952,-0.01333 1.673377,-0.108911 z m -11.565118,0.170729 -0.686505,-0.05057 -0.0231,-1.909855 c -0.01993,-1.648802 -0.0038,-1.939108 0.117136,-2.123879 0.07713,-0.117712 0.203369,-0.215247 0.280536,-0.216749 0.07716,-0.0013 0.215262,-0.05945 0.306879,-0.128722 0.230108,-0.174043 0.448132,-0.157841 0.799674,0.0594 0.252413,0.156002 0.327211,0.168419 0.471519,0.0783 0.141359,-0.08828 0.195117,-0.08352 0.305713,0.02707 0.07381,0.07382 0.106887,0.161505 0.07352,0.194879 -0.03337,0.03341 -0.103361,0.01798 -0.155523,-0.03414 -0.05217,-0.05219 -0.146606,-0.07498 -0.209877,-0.0507 -0.09441,0.03623 -0.09223,0.07895 0.01217,0.238278 0.10454,0.159545 0.123076,0.528883 0.104041,2.073023 l -0.02316,1.878899 -0.343253,0.0076 c -0.188788,0.004 -0.65218,-0.01509 -1.029759,-0.0429 z m 1.158478,-2.016092 v -1.836831 l -0.396771,-0.232528 -0.396773,-0.232522 -0.354093,0.192999 c -0.574241,0.312995 -0.568627,0.292617 -0.568627,2.063709 0,1.178641 0.02843,1.626889 0.107267,1.691644 0.142892,0.117356 0.426454,0.164588 1.072665,0.178669 l 0.536332,0.01165 z m 11.041301,1.951243 c -0.03146,-0.03145 -0.05634,-0.890671 -0.0553,-1.909344 0.0022,-2.057945 -0.005,-2.02989 0.608912,-2.396258 0.404589,-0.241451 0.736061,-0.234279 1.116369,0.02411 0.219508,0.14916 0.334712,0.182925 0.400313,0.117321 0.05066,-0.05064 0.154289,-0.06825 0.230293,-0.03906 0.107931,0.04142 0.118588,0.08966 0.04867,0.220285 -0.05413,0.101146 -0.08951,0.891992 -0.08951,2.000726 0,1.311605 -0.02931,1.86277 -0.102974,1.936434 -0.110315,0.110318 -2.051043,0.151498 -2.156773,0.04579 z m 1.935825,-0.271047 c 0.03861,-0.03865 0.05972,-0.836334 0.04689,-1.772709 l -0.02332,-1.702486 -0.343253,-0.202514 c -0.527465,-0.311196 -0.535316,-0.312381 -0.803973,-0.121078 -0.138753,0.0988 -0.295544,0.179638 -0.348423,0.179638 -0.05287,0 -0.133804,0.09905 -0.179832,0.220117 -0.09743,0.256239 -0.114792,3.408796 -0.01933,3.508387 0.08054,0.08401 1.575697,-0.0138 1.671237,-0.109355 z m 0.529333,0.03509 c -0.02786,-0.0726 -0.0372,-0.976523 -0.02076,-2.008732 0.03117,-1.957559 0.07024,-2.160383 0.41614,-2.160383 0.293772,0 0.347605,0.392867 0.323436,2.360366 l -0.02319,1.887391 -0.322491,0.02667 c -0.228986,0.01892 -0.337173,-0.01158 -0.373138,-0.105315 z m 0.48816,-0.371884 c 0.02387,-0.797073 -0.02893,-3.248301 -0.07143,-3.317083 -0.125313,-0.202758 -0.181437,0.367728 -0.187037,1.901167 -0.0053,1.413837 0.01252,1.651906 0.122689,1.651906 0.0815,0 0.131312,-0.08658 0.135785,-0.23599 z M 11.15098,33.478923 c -0.09819,-0.0982 -0.07259,-3.626617 0.02768,-3.813967 0.04885,-0.09129 0.14404,-0.165988 0.211515,-0.165988 0.261137,0 0.303883,0.329715 0.280607,2.164343 l -0.02317,1.825975 -0.217743,0.02539 c -0.119761,0.01394 -0.245262,-0.0021 -0.278893,-0.03575 z m 0.260374,-2.752452 c -0.0152,-0.509932 -0.02769,-0.116223 -0.02776,0.87492 -7.1e-5,0.991145 0.01237,1.408369 0.02763,0.927157 0.01527,-0.481205 0.01532,-1.292137 8.5e-5,-1.802077 z m -0.816734,2.533621 c -0.07648,-0.07648 -0.105481,-0.582566 -0.105481,-1.840474 0,-0.954241 0.02345,-1.796069 0.05209,-1.870723 0.0789,-0.205606 0.36616,-0.166487 0.421099,0.05738 0.02607,0.106197 0.03646,0.984208 0.02309,1.951135 -0.02063,1.492288 -0.04404,1.76184 -0.154809,1.783126 -0.07178,0.01381 -0.177972,-0.02236 -0.235986,-0.0804 z m 18.483664,-1.588828 c -0.02159,-0.935176 -0.05214,-1.853888 -0.06784,-2.04158 -0.02273,-0.27166 0.0024,-0.347392 0.123233,-0.371311 0.306156,-0.06061 0.378589,0.411062 0.353217,2.300115 -0.02267,1.687994 -0.03062,1.760258 -0.196478,1.786137 -0.167257,0.02606 -0.174122,-0.02807 -0.212132,-1.673361 z m 0.128784,-2.023553 c -0.08475,-0.08412 -0.09461,-0.07426 -0.04804,0.04801 0.03222,0.08463 0.0802,0.132257 0.106631,0.105833 0.02642,-0.02639 5.4e-5,-0.09567 -0.0586,-0.153874 z m 0.50423,1.942186 c 0,-0.973696 -0.03931,-1.730231 -0.100505,-1.934496 -0.08685,-0.289922 -0.08028,-0.355331 0.04845,-0.481925 0.140568,-0.138237 0.158287,-0.135085 0.315037,0.05609 0.153015,0.186644 0.166089,0.350443 0.166089,2.080969 v 1.878388 h -0.214534 -0.214532 z m 0.23446,0.290386 c -0.01807,-0.200587 -0.03285,-0.0365 -0.03285,0.364706 0,0.401183 0.01479,0.565292 0.03285,0.364712 0.01807,-0.200588 0.01807,-0.528822 0,-0.729418 z m -0.04838,-2.315369 c -0.06368,-0.06371 -0.07485,-0.03017 -0.03753,0.11256 0.03035,0.116036 0.06925,0.154938 0.09066,0.09067 0.02064,-0.06188 -0.0033,-0.153369 -0.05314,-0.203228 z m -4.595247,0.318173 c -0.183155,-0.183154 -0.175309,-0.268772 0.02954,-0.322341 0.09541,-0.02491 0.216362,0.01434 0.278892,0.09068 0.09581,0.116918 0.08422,0.127989 -0.08757,0.08371 -0.165383,-0.04263 -0.181032,-0.03065 -0.09504,0.07301 0.147208,0.177376 0.04029,0.241053 -0.125829,0.07494 z M 22.84624,29.75134 c 0,-0.04997 0.03861,-0.067 0.08581,-0.03785 0.0472,0.02916 0.08581,0.07005 0.08581,0.09088 0,0.02081 -0.03861,0.03785 -0.08581,0.03785 -0.0472,0 -0.08581,-0.04087 -0.08581,-0.09089 z m -6.865058,-0.767247 c 0,-0.04721 0.09426,-0.08582 0.209469,-0.08582 0.115207,0 0.233335,0.03858 0.262504,0.08582 0.03095,0.05004 -0.05632,0.08581 -0.209468,0.08581 -0.144377,0 -0.262505,-0.03858 -0.262505,-0.08581 z m 7.020593,-0.05866 c 0.06194,-0.02478 0.135961,-0.02175 0.164476,0.0068 0.02852,0.02849 -0.02217,0.04883 -0.112629,0.04505 -0.09997,-0.004 -0.120303,-0.02445 -0.05185,-0.05186 z m 0.554055,-6.74e-4 c 0.0835,-0.02176 0.199343,-0.02033 0.257441,0.0034 0.0581,0.0235 -0.01023,0.04128 -0.151807,0.03953 -0.141591,-0.0013 -0.189126,-0.02101 -0.105634,-0.04277 z m 0.684874,-0.0021 c 0.129792,-0.01966 0.34218,-0.01966 0.471972,0 0.129793,0.01966 0.0236,0.03575 -0.235986,0.03575 -0.259585,0 -0.365778,-0.01609 -0.235986,-0.03575 z m -4.251159,-0.367527 c -0.04129,-0.157881 -0.006,-0.170426 0.44051,-0.156635 0.428633,0.01319 0.442746,0.01885 0.120686,0.04781 -0.354798,0.03192 -0.474567,0.135982 -0.257439,0.223592 0.059,0.02384 0.02488,0.04633 -0.0758,0.05004 -0.114415,0.004 -0.199903,-0.05758 -0.227953,-0.164851 z m 9.357051,0.114796 c 0.059,-0.02377 0.155536,-0.02377 0.214532,0 0.059,0.02384 0.01072,0.0433 -0.107266,0.0433 -0.117994,0 -0.166263,-0.01947 -0.107266,-0.0433 z m -8.193983,-0.262342 c 0.130442,-0.01974 0.323522,-0.01919 0.429067,0.0013 0.105545,0.02035 -0.0012,0.03651 -0.237166,0.0359 -0.235987,-6.46e-4 -0.322342,-0.01731 -0.191901,-0.03703 z m -1.068481,-0.254481 c 0.06194,-0.02479 0.13596,-0.02176 0.164475,0.0068 0.02853,0.02849 -0.02217,0.04882 -0.112629,0.04505 -0.09997,-0.004 -0.120302,-0.02445 -0.05185,-0.05186 z M 18.6414,26.752934 c 0.117993,-0.03778 0.272458,-0.07197 0.343254,-0.07594 0.114417,-0.0068 0.114417,0.0021 0,0.07594 -0.0708,0.04573 -0.225261,0.07992 -0.343254,0.07594 l -0.214532,-0.0072 z m -5.642218,-0.06148 c 0.129793,-0.01966 0.34218,-0.01966 0.471973,0 0.129791,0.01966 0.0236,0.03575 -0.235987,0.03575 -0.259584,0 -0.365778,-0.01609 -0.235986,-0.03575 z m 0.943945,0 c 0.129793,-0.01966 0.342181,-0.01966 0.471974,0 0.129791,0.01966 0.0236,0.03575 -0.235987,0.03575 -0.259584,0 -0.365779,-0.01609 -0.235987,-0.03575 z m 1.674358,6.74e-4 c 0.106745,-0.02053 0.261209,-0.01974 0.343253,0.0021 0.08204,0.02148 -0.0054,0.03825 -0.194079,0.0373 -0.18879,-6.72e-4 -0.255918,-0.01852 -0.149174,-0.03906 z m 1.393465,-0.008 c 0,-0.03778 0.04634,-0.114992 0.102974,-0.171626 0.125279,-0.125281 0.788952,-0.141274 0.71225,-0.01717 -0.02917,0.04721 -0.164326,0.08581 -0.300347,0.08581 -0.136021,0 -0.271177,0.03858 -0.300346,0.08581 -0.06329,0.102417 -0.214532,0.114513 -0.214532,0.01717 z m 2.190253,-0.172474 c -0.09589,-0.09589 -0.03669,-0.177175 0.148157,-0.20343 0.147833,-0.02101 0.203134,-0.0978 0.235985,-0.327769 l 0.04291,-0.30034 h 0.514879 0.51488 l 0.02689,0.278892 c 0.01479,0.153389 0.05341,0.281289 0.08581,0.284226 0.686639,0.06222 1.455139,0.08249 1.613967,0.04263 0.156208,-0.03919 0.204126,-0.109605 0.204126,-0.29989 0,-0.136755 0.04827,-0.268131 0.107267,-0.291936 0.059,-0.02384 -0.321773,-0.04633 -0.846155,-0.05004 -0.524382,-0.004 -1.122929,-0.02996 -1.330105,-0.05838 l -0.376683,-0.05158 0.02808,-2.372629 c 0.01545,-1.304946 0.05406,-2.39902 0.08581,-2.431276 0.03175,-0.03226 0.250805,-0.07087 0.486791,-0.08581 l 0.429066,-0.02721 0.02582,0.598897 c 0.03206,0.743517 -0.01665,0.944496 -0.285535,1.178297 -0.207833,0.180702 -0.21226,0.210905 -0.21226,1.447742 v 1.263181 l 0.793773,0.03548 c 0.436575,0.01953 0.832388,0.0021 0.879585,-0.03872 0.0511,-0.04418 0.0893,-0.743821 0.09446,-1.729235 0.0048,-0.910274 0.03538,-1.761563 0.06805,-1.891754 0.03474,-0.138385 0.01916,-0.285202 -0.03749,-0.353458 -0.142288,-0.171444 -0.02343,-0.295897 0.282597,-0.295897 0.246501,0 0.255663,0.0096 0.110546,0.115706 -0.269379,0.196972 -0.07217,0.313364 0.530954,0.313364 0.311863,0 0.541002,0.026 0.509199,0.05785 -0.0318,0.03178 -0.284143,0.04863 -0.560756,0.0373 -0.36357,-0.01482 -0.515543,0.01233 -0.54845,0.0981 -0.09093,0.236938 -0.07271,3.839994 0.0194,3.839994 0.05818,0 0.08926,-0.490444 0.08926,-1.40849 v -1.408488 l 0.522383,-0.436497 c 0.287311,-0.240071 0.60238,-0.43649 0.700153,-0.43649 0.211377,0 0.905222,0.722587 0.98148,1.022133 0.02897,0.1138 0.02915,0.779923 4.22e-4,1.480275 -0.03257,0.792871 -0.0212,1.27337 0.03011,1.27337 0.0494,0 0.0824,-0.578319 0.0824,-1.443864 v -1.443863 l 0.228275,-0.208043 c 0.189427,-0.172635 0.218382,-0.180628 0.170147,-0.047 -0.03197,0.08857 -0.01702,0.210588 0.03324,0.271134 0.05891,0.07096 0.0823,0.61598 0.06584,1.533878 l -0.02552,1.423788 0.300346,-0.01033 c 0.260753,-0.0089 0.272065,-0.01744 0.08581,-0.06444 l -0.214533,-0.05421 -0.02444,-1.222837 c -0.016,-0.801141 0.0062,-1.222843 0.06435,-1.222843 0.05696,0 0.0888,0.430773 0.0888,1.201389 0,0.792434 0.03111,1.201382 0.09137,1.201382 0.06162,0 0.08356,-0.419043 0.06738,-1.287196 -0.01319,-0.707961 -0.05432,-1.2872 -0.09137,-1.2872 -0.03705,0 -0.06738,-0.06209 -0.06738,-0.137901 0,-0.0902 0.04671,-0.119974 0.13508,-0.08607 0.07746,0.0297 0.28791,-0.05286 0.493426,-0.193591 0.570648,-0.390834 0.670575,-0.396302 1.00162,-0.05475 0.160287,0.165376 0.337277,0.300683 0.39331,0.300683 0.165825,0 0.205299,0.315721 0.206537,1.651906 0.001,1.208143 0.009,1.265741 0.172797,1.265741 0.164665,0 0.171627,-0.05717 0.171627,-1.410329 0,-0.775685 0.03765,-1.509385 0.08369,-1.63045 0.08957,-0.235599 0.351003,-0.295244 0.494662,-0.112857 0.199719,0.253565 0.191815,0.548815 -0.02247,0.839262 -0.196716,0.266631 -0.212631,0.360692 -0.212631,1.256751 0,1.097844 -0.07498,1.001022 0.845765,1.09206 0.252782,0.02498 0.513439,0.09012 0.579239,0.14473 0.133091,0.110459 0.167693,0.54717 0.03695,0.466369 -0.09338,-0.05772 -0.487959,0.30275 -0.451419,0.412368 0.01302,0.03906 -0.500118,0.05838 -1.140321,0.0429 -0.853264,-0.0206 -1.182847,-0.05872 -1.23458,-0.142607 -0.05669,-0.09195 -0.08083,-0.08772 -0.122729,0.02148 -0.0434,0.113093 -0.217612,0.135914 -1.037438,0.135914 -0.848727,0 -0.997078,-0.02081 -1.070401,-0.15017 -0.08036,-0.14178 -0.09175,-0.141195 -0.203888,0.01051 -0.107618,0.145618 -0.209835,0.156446 -1.088974,0.115416 -0.672554,-0.03138 -0.995056,-0.08069 -1.051201,-0.160696 -0.06315,-0.09001 -0.09058,-0.0918 -0.124517,-0.0082 -0.03177,0.07829 -0.35336,0.107268 -1.190589,0.107268 -1.001911,0 -1.158132,-0.01899 -1.234531,-0.150177 -0.0833,-0.143019 -0.08759,-0.143019 -0.09008,0 -0.0031,0.17726 -0.111408,0.190554 -0.349644,0.04289 -0.12406,-0.07688 -0.190568,-0.08051 -0.234822,-0.01279 -0.06813,0.104251 -0.503416,0.207558 -0.574604,0.136372 z M 29.384338,26.19499 c -0.01929,-0.165188 -0.04592,-0.300347 -0.0592,-0.300347 -0.01328,0 -0.0399,0.135159 -0.05919,0.300347 -0.02127,0.182244 0.0021,0.300346 0.05919,0.300346 0.05719,0 0.08047,-0.118102 0.0592,-0.300346 z m -4.478573,-0.07806 c 0,-0.114533 0.02344,-0.26933 0.05209,-0.343983 0.04543,-0.118419 -0.06187,-0.13574 -0.840901,-0.13574 h -0.892988 l 0.03453,0.295761 c 0.04015,0.343917 0.07177,0.35606 0.982221,0.376948 0.651015,0.01495 0.665052,0.01084 0.665052,-0.192986 z m 2.248218,0.158245 c 0.08019,-0.02531 0.125481,-0.09899 0.10066,-0.163679 -0.02482,-0.06471 -0.0022,-0.197875 0.0503,-0.295957 0.09404,-0.175719 0.08111,-0.178332 -0.882531,-0.178332 h -0.977968 l 0.03796,0.235989 c 0.02088,0.129794 0.04981,0.276125 0.06429,0.32519 0.02771,0.09389 1.352763,0.1572 1.607282,0.07679 z m 1.270123,-0.294711 c 0,-0.339439 -0.0036,-0.343257 -0.321799,-0.343264 -0.33571,-6e-6 -0.346852,0.02431 -0.285498,0.622157 0.0037,0.03542 0.141761,0.06437 0.306952,0.06437 0.293195,0 0.300345,-0.0082 0.300345,-0.343251 z m 0.629128,0.02148 c 0.03051,-0.160258 0.01749,-0.278892 -0.03057,-0.278892 -0.04602,0 -0.08367,0.14159 -0.08367,0.314643 0,0.367783 0.0398,0.355324 0.114248,-0.03575 z m 0.743884,0.02148 c 0,-0.329278 -0.142971,-0.32286 -0.155372,0.0069 -0.0066,0.174985 0.0235,0.27892 0.07204,0.248926 0.04584,-0.02835 0.08333,-0.143482 0.08333,-0.255902 z m -9.829278,0.04882 c 0.02714,-0.0439 0.01013,-0.104142 -0.03784,-0.133785 -0.04796,-0.02962 -0.08722,0.0061 -0.08722,0.07988 0,0.150736 0.0515,0.17293 0.125055,0.05387 z m 0.448445,-0.107833 c -0.02739,-0.06846 -0.04774,-0.04815 -0.05185,0.05186 -0.0037,0.09046 0.01655,0.141139 0.04507,0.112628 0.02851,-0.02849 0.03157,-0.10253 0.0068,-0.164473 z m 2.601589,0.1019 c 0,-0.04721 -0.0409,-0.08581 -0.09088,-0.08581 -0.04998,0 -0.06701,0.03858 -0.03784,0.08581 0.02917,0.04721 0.07006,0.08581 0.09088,0.08581 0.02082,0 0.03785,-0.03858 0.03785,-0.08581 z m 2.270385,0.0061 c 0.02715,-0.0439 0.01013,-0.104143 -0.03785,-0.133786 -0.04796,-0.02962 -0.08722,0.0061 -0.08722,0.07988 0,0.150736 0.0515,0.172932 0.125055,0.05387 z m 3.364306,-0.199063 c -0.02381,-0.05899 -0.04328,-0.0107 -0.04328,0.107268 0,0.117995 0.01948,0.166264 0.04328,0.107266 0.02381,-0.05899 0.02381,-0.155537 0,-0.214534 z m 1.616525,-0.06437 c -0.02917,-0.04721 -0.118335,-0.0831 -0.198144,-0.07979 -0.118293,0.0048 -0.113392,0.01966 0.02652,0.07979 0.229628,0.09868 0.23261,0.09868 0.171627,0 z M 29.475318,25.66633 c -0.05899,-0.02376 -0.155535,-0.02376 -0.214533,0 -0.059,0.02384 -0.01073,0.04329 0.107267,0.04329 0.117992,0 0.166263,-0.01946 0.107266,-0.04329 z M 24.09054,25.465722 c -0.02917,-0.04721 -0.22453,-0.08581 -0.434132,-0.08581 -0.209602,0 -0.381095,0.03858 -0.381095,0.08581 0,0.04721 0.19536,0.08581 0.434132,0.08581 0.267568,0 0.413781,-0.03293 0.381095,-0.08581 z m -1.508883,-0.03475 c -0.07343,-0.07136 -1.889465,-0.106372 -1.932184,-0.03724 -0.02448,0.03959 0.408301,0.07201 0.961721,0.07201 0.553421,0 0.990128,-0.01562 0.970463,-0.03475 z m 3.895158,-1.273901 c -0.02748,-0.672561 -0.06399,-1.238931 -0.08111,-1.258595 -0.01712,-0.01966 -0.03113,0.530613 -0.03113,1.222837 0,0.733114 0.03386,1.258596 0.08111,1.258596 0.04946,0 0.0616,-0.476922 0.03113,-1.222838 z m -5.803067,-1.967075 c 0.21624,-0.230474 0.362748,-0.580531 0.308043,-0.736029 -0.02076,-0.05899 -0.144542,-0.107267 -0.275082,-0.107267 h -0.23735 l -0.05541,0.836676 c -0.03047,0.460175 -0.04775,1.357998 -0.03838,1.995157 l 0.01703,1.158479 0.04689,-1.473661 c 0.04334,-1.361976 0.06109,-1.488793 0.234253,-1.673355 z m 4.126997,1.750318 0.0237,-1.310885 -0.274048,-0.341021 c -0.306713,-0.381661 -0.517225,-0.428988 -0.706454,-0.158829 -0.07019,0.100205 -0.217184,0.226797 -0.326666,0.281329 -0.19441,0.09683 -0.199607,0.131712 -0.222652,1.494538 l -0.0236,1.395404 0.753008,-0.02485 0.753008,-0.02484 z m 3.260991,0.144251 0.02378,-1.166627 -0.402578,-0.313647 c -0.221417,-0.172507 -0.429647,-0.313647 -0.462735,-0.313647 -0.03308,0 -0.161904,0.08004 -0.286262,0.177855 -0.221318,0.174089 -0.226087,0.199079 -0.225162,1.179933 5.2e-4,0.551145 0.02514,1.148472 0.0547,1.327398 l 0.05375,0.325323 0.610347,-0.02498 0.610345,-0.02499 z m -2.491493,-0.828524 c -0.01609,-0.365775 -0.02925,-0.06653 -0.02925,0.665053 0,0.731558 0.01316,1.030833 0.02925,0.665052 0.01609,-0.365776 0.01609,-0.964322 0,-1.330105 z m 3.255736,0.82059 c -0.02739,-0.06846 -0.04774,-0.04815 -0.05185,0.05186 -0.0037,0.09046 0.01655,0.141146 0.04507,0.112628 0.02852,-0.02849 0.03157,-0.10253 0.0068,-0.164474 z m 0.197506,-1.378374 c -0.001,-0.15613 -0.01723,-0.168446 -0.0845,-0.06437 -0.107517,0.166366 -0.107517,0.257437 0,0.257437 0.0472,0 0.08522,-0.08689 0.0845,-0.19308 z m -8.01968,-1.613112 c 0.03056,-0.04943 0.03571,-0.141699 0.01142,-0.204992 -0.06399,-0.166749 -0.605293,-0.04182 -0.641877,0.148157 -0.02234,0.115994 0.03496,0.146763 0.273311,0.146763 0.165866,0 0.326582,-0.04047 0.35715,-0.08992 z m 9.136566,5.463799 c 0,-0.01784 0.06759,-0.0854 0.150173,-0.15017 0.136105,-0.106741 0.13914,-0.103704 0.03239,0.03239 -0.112104,0.142944 -0.182573,0.1884 -0.182573,0.117772 z M 14.930033,25.578226 c -0.206053,-0.05387 -0.226539,-0.198157 -0.27181,-1.914563 -0.02178,-0.825956 -0.065,-1.662511 -0.09604,-1.859019 -0.08559,-0.54194 0.07094,-0.605011 1.607361,-0.64759 1.227626,-0.03401 1.267035,-0.04095 1.487931,-0.26185 0.192929,-0.192932 0.251887,-0.21145 0.393766,-0.123685 0.135368,0.08373 0.142022,0.108453 0.03526,0.130958 -0.07238,0.01529 -0.131608,0.06067 -0.131608,0.100981 0,0.04027 -0.06759,0.09089 -0.150173,0.112472 -0.0826,0.02155 0.01394,0.04949 0.214533,0.06209 0.200588,0.01253 0.406613,0.02667 0.45783,0.03138 0.05122,0.0048 0.145895,-0.116917 0.210391,-0.270312 0.109087,-0.259439 0.105585,-0.278893 -0.05021,-0.278893 -0.207771,0 -0.224613,-0.170319 -0.01731,-0.17506 0.103735,-0.0027 0.07056,-0.04882 -0.107266,-0.150176 -0.222656,-0.126905 -0.532093,-0.146972 -2.290127,-0.148508 -1.117978,-6.73e-4 -2.06085,-0.02996 -2.095273,-0.06437 -0.03443,-0.03441 -0.0079,-0.06316 0.05899,-0.06391 0.101631,-0.0013 0.100866,-0.0144 -0.0046,-0.08114 -0.153844,-0.09729 -0.157075,-0.09435 0.426581,-0.388645 0.437108,-0.220407 0.579734,-0.243106 1.930797,-0.307343 0.802354,-0.03812 1.516749,-0.0732 1.587545,-0.07789 0.0708,-0.0048 -0.0065,-0.06868 -0.171627,-0.142231 -0.303784,-0.13524 -1.045768,-0.127732 -2.223124,0.02249 -0.325229,0.04148 -0.446729,0.03131 -0.40634,-0.034 0.03351,-0.0542 -0.02112,-0.104763 -0.130566,-0.120809 -0.167426,-0.02458 -0.151004,-0.05267 0.148902,-0.2549 0.238258,-0.160668 0.482803,-0.238298 0.834149,-0.264804 0.273387,-0.0206 0.516318,-0.0061 0.539842,0.03172 0.04235,0.06853 -0.06846,0.102706 -0.650753,0.200723 -0.165191,0.02782 -0.377578,0.111577 -0.471974,0.186164 -0.163303,0.129031 -0.157061,0.133105 0.12872,0.08397 0.855088,-0.146992 1.983422,-0.217417 2.206622,-0.137726 0.223306,0.07974 0.228081,0.07684 0.07248,-0.04384 -0.09161,-0.07107 -0.277318,-0.129221 -0.412674,-0.129221 -0.363507,0 -0.198271,-0.169799 0.176703,-0.181584 0.174204,-0.0054 0.249157,-0.02761 0.166562,-0.04922 -0.0826,-0.02155 -0.150173,-0.09434 -0.150173,-0.161671 0,-0.06734 -0.05792,-0.122425 -0.128719,-0.122425 -0.0708,0 -0.128721,0.03475 -0.128721,0.07717 0,0.04243 -0.173771,0.09099 -0.386158,0.107887 -0.212388,0.0169 -0.38616,0.0013 -0.38616,-0.03427 0,-0.03575 0.164118,-0.06743 0.364707,-0.07042 0.311541,-0.0048 0.335846,-0.01704 0.16673,-0.08485 -0.108888,-0.04371 -0.437122,-0.102644 -0.729413,-0.131032 -0.519953,-0.0505 -0.82048,-0.186157 -0.595262,-0.268696 0.0593,-0.02175 0.08947,-0.06917 0.06707,-0.105415 -0.04428,-0.07167 -0.982677,-0.04129 -1.058222,0.03427 -0.02546,0.02545 0.01357,0.04633 0.08672,0.04633 0.166904,0 0.2358,0.245727 0.140857,0.502383 -0.05554,0.150137 -0.127407,0.18931 -0.308991,0.168428 l -0.236622,-0.02721 -0.0157,-0.772319 c -0.0086,-0.424773 -0.03394,-1.226056 -0.05625,-1.780622 -0.03653,-0.907957 -0.02603,-1.008308 0.105422,-1.008308 0.107368,0 0.151658,0.08427 0.167438,0.318563 0.02722,0.404079 0.04826,0.421211 0.308274,0.250844 0.117805,-0.07718 0.292782,-0.140338 0.388837,-0.140338 0.273655,0 0.204868,-0.16776 -0.125364,-0.305741 -0.165005,-0.06895 -0.290506,-0.172245 -0.278891,-0.229565 0.02929,-0.144575 -0.372664,-0.191909 -0.457941,-0.05394 -0.09058,0.146554 -0.200774,0.03509 -0.13493,-0.13648 0.06426,-0.16746 0.620856,-0.179358 0.716988,-0.01535 0.03776,0.06437 0.194126,0.18124 0.347517,0.259639 0.17234,0.08808 0.278893,0.207282 0.278893,0.311969 0,0.09319 0.0021,0.198388 0.0045,0.233789 0.0025,0.03542 -0.06385,0.07847 -0.147416,0.09571 -0.08357,0.01725 -0.27869,0.128015 -0.433598,0.246171 -0.347882,0.265344 -0.371727,0.601981 -0.07711,1.088694 0.188346,0.311162 0.208104,0.322455 0.262782,0.150177 0.03381,-0.106513 0.130141,-0.186285 0.224968,-0.186285 0.135862,0 0.165843,0.06114 0.165843,0.338194 0,0.329996 0.110023,0.517413 0.209377,0.356657 0.02729,-0.04418 0.242165,-0.121564 0.477513,-0.172036 0.432278,-0.0927 1.102546,0.01313 1.529125,0.241411 0.255016,0.136479 0.38095,0.577098 0.260303,0.910745 -0.08995,0.24873 -0.0743,0.30962 0.171173,0.666406 0.148587,0.215961 0.270159,0.457365 0.270159,0.536443 0,0.07909 0.09838,0.260691 0.218621,0.403595 0.259651,0.308576 0.244162,0.526154 -0.04034,0.566518 -0.14994,0.02129 -0.174684,0.04869 -0.09079,0.100516 0.09436,0.05832 0.09617,0.135247 0.0099,0.423041 -0.05797,0.19347 -0.08835,0.379931 -0.06753,0.414356 0.02082,0.03441 0.06398,0.892839 0.09591,1.90758 0.03193,1.014738 0.09391,1.857854 0.137745,1.873591 0.143372,0.05145 0.08356,0.185928 -0.08271,0.185928 -0.150756,0 -0.166886,-0.107678 -0.224965,-1.501736 -0.03441,-0.825949 -0.08682,-1.501768 -0.11649,-1.501816 -0.02966,-4e-5 -0.04108,0.675733 -0.02539,1.501736 l 0.02854,1.501816 h -0.407551 c -0.224153,0 -0.389923,0.01764 -0.368379,0.03919 0.02155,0.02155 0.433449,0.04539 0.915342,0.05293 0.481893,0.0075 0.876168,0.04788 0.876168,0.08955 0,0.07574 -4.455205,0.09136 -4.74112,0.01663 z m 2.484616,-0.161726 0.360796,-0.04593 -0.0012,-1.411156 c -6.74e-4,-0.776137 0.02372,-1.451505 0.0542,-1.500821 0.03048,-0.04929 0.0116,-0.142452 -0.04195,-0.206978 -0.106773,-0.128655 0.0191,-0.267788 0.162228,-0.179329 0.0438,0.02707 0.104326,-0.02855 0.134503,-0.123651 0.06098,-0.19215 0.296752,-0.228354 0.455205,-0.0699 0.148762,0.148763 0.138233,-0.193577 -0.01228,-0.399426 -0.107115,-0.146486 -0.223871,-0.153772 -1.651906,-0.103067 -0.845154,0.03004 -1.648227,0.07979 -1.784606,0.110614 l -0.247965,0.05603 0.05488,0.773208 c 0.03018,0.425265 0.05489,1.269289 0.05489,1.875599 v 1.102391 h 0.221916 0.221915 l -0.02886,-1.416012 c -0.01586,-0.778798 8.6e-5,-1.415957 0.03552,-1.415917 0.0354,4.7e-5 0.06435,-0.07249 0.06435,-0.161208 0,-0.18425 0.687039,-0.782655 0.89858,-0.782655 0.07715,0 0.282355,0.09654 0.455998,0.214534 0.173642,0.117995 0.362395,0.214534 0.419449,0.214534 0.162735,0 0.234408,0.182939 0.103405,0.263931 -0.09938,0.06142 -0.0977,0.09364 0.01046,0.201645 0.106246,0.106089 0.124274,0.376327 0.103264,1.547743 l -0.02545,1.419209 h -0.987912 c -0.543353,0 -0.970005,0.02896 -0.948117,0.06437 0.04209,0.06811 1.309243,0.04976 1.918674,-0.02782 z m -0.165322,-1.448718 c 0.01312,-0.705889 -0.0028,-1.343054 -0.03549,-1.415924 -0.03264,-0.07287 -0.06268,-0.15887 -0.06676,-0.191113 -0.004,-0.03226 -0.178622,-0.173606 -0.387877,-0.314145 l -0.380462,-0.255525 -0.306041,0.228332 c -0.517195,0.385878 -0.514896,0.377782 -0.517845,1.823034 -0.0014,0.735489 0.02436,1.364346 0.05747,1.397458 0.03312,0.03313 0.409614,0.04922 0.836679,0.03575 l 0.776478,-0.02445 z m 1.201405,0.05084 c 0.01618,-0.835808 -0.008,-1.270884 -0.07487,-1.351559 -0.05431,-0.06546 -0.06185,-0.118972 -0.01675,-0.118972 0.06466,0 0.08162,-0.219631 0.032,-0.414193 -0.0038,-0.01543 -0.10369,0.08669 -0.221683,0.226919 -0.207883,0.24706 -0.214532,0.29469 -0.214532,1.536921 0,0.70508 0.02737,1.309336 0.06083,1.342792 0.03346,0.03347 0.13965,0.04957 0.235985,0.03575 0.165746,-0.0237 0.176442,-0.09131 0.199028,-1.257666 z m 0.228755,-4.066374 c -0.389225,-0.462699 -0.617793,-0.518249 -2.054171,-0.499212 -0.958761,0.01273 -1.320258,0.04748 -1.418471,0.136332 -0.07249,0.06559 -0.26581,0.17741 -0.429597,0.248448 -0.279054,0.121038 -0.194928,0.129375 1.336949,0.132526 1.145517,0.0021 1.66504,-0.02694 1.735983,-0.09789 0.10342,-0.103416 0.235333,-0.06377 0.791216,0.237747 0.299951,0.162702 0.301706,0.155423 0.03809,-0.157955 z m -0.188714,-0.707959 c -0.02255,-0.117995 -0.07391,-0.214534 -0.114127,-0.214534 -0.04021,0 -0.05089,0.05791 -0.02372,0.128721 0.02717,0.0708 0.0043,0.128723 -0.05066,0.128723 -0.05503,0 -0.0762,0.03858 -0.04702,0.08581 0.110407,0.178643 0.276899,0.08765 0.235535,-0.128721 z m -0.47718,-1.446759 c -0.07614,-0.116204 -0.280276,-0.25809 -0.453635,-0.31531 -0.344283,-0.113618 -1.058821,-0.06385 -1.300379,0.09064 -0.133338,0.08525 -0.129551,0.0915 0.0347,0.05717 0.227752,-0.04754 0.973917,0.140412 1.391872,0.350637 0.374871,0.188548 0.518396,0.108265 0.327444,-0.18316 z m -2.976351,0.111591 c 0,-0.04444 -0.03861,-0.08075 -0.08581,-0.08075 -0.0472,0 -0.08581,0.0602 -0.08581,0.133787 0,0.07358 0.03861,0.109915 0.08581,0.08075 0.0472,-0.02916 0.08581,-0.08938 0.08581,-0.133786 z M 15.177,17.272762 c 0.0267,-0.06959 -0.03584,-0.263093 -0.138989,-0.429998 -0.149917,-0.242569 -0.181722,-0.404982 -0.158517,-0.809451 0.0161,-0.280657 -0.005,-0.484929 -0.04713,-0.458686 -0.0765,0.04754 -0.0015,1.613117 0.08383,1.751274 0.07064,0.114318 0.207229,0.08649 0.260809,-0.05313 z m 0.540715,-0.152352 c -0.0051,-0.233713 -0.01798,-0.251087 -0.07978,-0.107266 -0.101879,0.23708 -0.101879,0.386159 0,0.386159 0.0472,0 0.08311,-0.125497 0.07978,-0.278893 z m -3.729097,8.357384 c -0.02236,-0.02236 -0.04066,-0.960996 -0.04066,-2.085865 v -2.045217 l 0.579239,-0.01346 0.579241,-0.01346 -0.429067,-0.05885 -0.429066,-0.05885 0.541398,-0.01346 c 0.336028,-0.0084 0.521278,-0.04599 0.488361,-0.0993 -0.02917,-0.04721 -0.01441,-0.08581 0.03279,-0.08581 0.152854,0 0.211371,0.195006 0.08759,0.291916 -0.07882,0.06169 -0.111181,0.221922 -0.09374,0.464121 0.02431,0.337559 -0.0038,0.397715 -0.321799,0.688385 -0.191641,0.175181 -0.348439,0.355216 -0.348439,0.400086 0,0.04484 0.06011,-0.004 0.133585,-0.109145 0.186952,-0.266914 0.387466,-0.238153 0.718122,0.102995 l 0.284683,0.293713 -0.03788,1.121065 c -0.02084,0.61658 -0.06674,1.149927 -0.102034,1.185214 -0.06962,0.06962 -1.575702,0.102623 -1.64234,0.03596 z m 1.485105,-1.21751 c 0.02338,-0.964309 0.01819,-0.996424 -0.193657,-1.195436 l -0.217683,-0.204501 -0.256862,0.24609 c -0.141274,0.135349 -0.256863,0.197491 -0.256863,0.13809 0,-0.131948 -0.211175,-0.353176 -0.337122,-0.353176 -0.06101,0 -0.09194,0.405318 -0.09194,1.204991 v 1.204997 l 0.665052,-0.02505 0.665053,-0.02505 z m -1.010878,-1.6741 c 0,-0.06337 0.137133,-0.219774 0.30474,-0.347612 0.232973,-0.177693 0.298653,-0.284826 0.278894,-0.454882 -0.02396,-0.206286 -0.05703,-0.222455 -0.454915,-0.222455 h -0.429065 l -0.0084,0.557786 c -0.0045,0.306784 0.0063,0.585064 0.02421,0.618398 0.05247,0.09789 0.284424,-0.02545 0.284426,-0.151235 z m 15.977987,0.17644 c 0.0018,-0.141597 0.02097,-0.189126 0.04275,-0.105637 0.02176,0.0835 0.02032,0.199342 -0.0032,0.257445 -0.02351,0.05811 -0.0413,-0.01023 -0.03956,-0.151808 z m -2.591126,-0.477042 c 0,-0.04997 0.03861,-0.067 0.08581,-0.03785 0.0472,0.02916 0.08581,0.07005 0.08581,0.09087 0,0.02081 -0.03861,0.03785 -0.08581,0.03785 -0.0472,0 -0.08581,-0.04088 -0.08581,-0.09089 z m 2.231144,0 c 0,-0.04997 0.03861,-0.067 0.08581,-0.03785 0.0472,0.02916 0.08581,0.07005 0.08581,0.09087 0,0.02081 -0.03861,0.03785 -0.08581,0.03785 -0.0472,0 -0.08581,-0.04088 -0.08581,-0.09089 z m -1.666805,-0.488956 c -0.0324,-0.03238 -0.238231,-0.07062 -0.457388,-0.08492 -0.219157,-0.01428 -0.458815,-0.0806 -0.532571,-0.147355 -0.07894,-0.07144 -0.35271,-0.129247 -0.665505,-0.14054 -0.834138,-0.0301 -0.845001,-0.160131 -0.01349,-0.161612 0.554629,-6.74e-4 0.767158,0.03098 0.847187,0.127409 0.06956,0.08382 0.245377,0.12518 0.503932,0.118567 0.358595,-0.0092 0.37214,-0.0165 0.139666,-0.07566 -0.253648,-0.06451 -0.254101,-0.06565 -0.03064,-0.07566 0.124743,-0.0054 0.250245,-0.07123 0.278893,-0.145887 0.0855,-0.222824 0.06084,-0.242037 -0.11102,-0.08651 -0.08972,0.08118 -0.1837,0.114286 -0.208871,0.07357 -0.118373,-0.191537 0.321469,-0.429135 0.507931,-0.274379 0.07284,0.06048 0.09572,0.187207 0.06315,0.349997 l -0.05104,0.255223 0.844099,-0.01704 0.8441,-0.01704 0.143086,-0.267134 c 0.07869,-0.146925 0.211544,-0.280657 0.295217,-0.297182 0.133621,-0.02639 0.128656,0.0027 -0.04082,0.240924 -0.106124,0.14904 -0.179085,0.282833 -0.162137,0.297324 0.118167,0.101012 0.434925,0.221216 0.58296,0.221216 0.0975,0 0.177267,0.04344 0.177267,0.09654 0,0.06505 -0.09102,0.07534 -0.278893,0.03159 -0.435541,-0.101446 -2.294715,-0.13458 -2.464129,-0.0439 -0.08363,0.04478 -0.178575,0.05489 -0.210981,0.02249 z m 2.954003,-0.357883 c 0,-0.112533 0.427465,-0.435292 0.576509,-0.435292 0.189879,0 0.08491,0.189726 -0.196267,0.354731 -0.29313,0.172023 -0.380242,0.190481 -0.380242,0.08056 z m -0.32793,-0.289924 c 0.160696,-0.162177 0.375883,-0.190237 0.456648,-0.05953 0.02917,0.04721 -0.02331,0.08581 -0.116636,0.08581 -0.09331,0 -0.240409,0.0268 -0.326864,0.05953 -0.147234,0.05575 -0.148067,0.05037 -0.01314,-0.08582 z m -3.362039,-0.215284 c 0,-0.155011 0.477202,-0.444961 0.732324,-0.444961 0.0692,0 0.125808,-0.03488 0.125808,-0.07754 0,-0.04263 -0.202732,-0.105374 -0.450519,-0.139401 -0.586745,-0.08058 -3.88691,-0.07911 -4.2467,0.0021 -0.152813,0.03441 -0.337837,0.03953 -0.411165,0.01138 -0.114308,-0.04384 -0.105848,-0.08833 0.0593,-0.311708 0.137743,-0.186311 0.290231,-0.276158 0.535174,-0.315323 0.194486,-0.03111 0.423016,-0.141605 0.528721,-0.255666 0.180087,-0.194313 0.226563,-0.200367 1.420628,-0.185013 0.67895,0.0087 1.031718,0.03004 0.783933,0.04742 -0.641422,0.04484 -0.558943,0.194171 0.107265,0.194171 0.306783,0 0.557787,-0.03435 0.557787,-0.07626 0,-0.159235 0.60752,-0.19644 0.829768,-0.05084 0.25095,0.164426 0.353869,0.114958 0.187194,-0.08998 -0.337203,-0.414611 -0.522629,-0.563663 -0.760376,-0.611213 -0.144475,-0.02889 -0.301285,-0.124667 -0.348465,-0.212823 -0.09154,-0.171046 -0.377933,-0.216825 -0.465908,-0.07449 -0.02917,0.04721 -0.171332,0.08581 -0.315917,0.08581 -0.200554,0 -0.241786,0.02545 -0.173897,0.107267 0.07033,0.08479 -0.111834,0.105886 -0.869079,0.100701 -0.880606,-0.0061 -0.984221,0.01057 -1.281606,0.20564 -0.391898,0.257034 -0.373476,0.33088 0.03072,0.123146 0.330999,-0.170116 0.758329,-0.182487 2.416699,-0.06996 0.601766,0.04081 1.094119,0.109376 1.094119,0.152319 0,0.04484 -0.685146,0.06956 -1.608998,0.05805 -1.100994,-0.01367 -1.668177,0.01172 -1.796436,0.08047 -0.103088,0.05528 -0.286516,0.100484 -0.407613,0.100484 -0.316812,0 -0.284649,-0.256104 0.07651,-0.609234 l 0.296681,-0.290077 0.883251,0.0237 c 0.485789,0.01299 0.999099,-0.01629 1.140691,-0.06519 0.206278,-0.07121 0.133798,-0.08022 -0.364707,-0.04539 -0.552062,0.03858 -0.622452,0.02646 -0.624874,-0.107302 -0.0025,-0.137684 -0.01355,-0.136472 -0.127355,0.01394 -0.119945,0.15852 -0.131004,0.158938 -0.294421,0.01105 -0.100918,-0.09133 -0.229158,-0.130884 -0.316143,-0.0975 -0.24101,0.09249 -0.703276,-0.423345 -0.755331,-0.842845 -0.08739,-0.704299 -0.119909,-3.310402 -0.0419,-3.358613 0.04348,-0.02687 0.07906,0.01134 0.07906,0.08492 0,0.08633 0.08371,0.137315 0.235986,0.143738 0.145188,0.0061 0.178205,0.02506 0.08581,0.0492 -0.0826,0.02158 -0.150174,0.09434 -0.150174,0.161672 0,0.09427 0.136996,0.122425 0.595629,0.122425 0.327595,0 0.619494,0.03858 0.648663,0.08581 0.03357,0.05435 -0.185038,0.08582 -0.595628,0.08582 -0.567429,0 -0.648664,0.01932 -0.648664,0.154459 0,0.155341 0.152503,0.360416 0.268019,0.360416 0.03414,0 0.181875,-0.100804 0.328307,-0.224025 0.239965,-0.201921 0.291194,-0.213692 0.519117,-0.11928 0.139083,0.05758 0.355032,0.199417 0.479888,0.315129 0.309387,0.28673 0.501306,0.204347 0.437656,-0.187875 -0.02884,-0.177686 -0.01299,-0.298831 0.03908,-0.298831 0.04816,0 0.07026,-0.04828 0.04911,-0.107267 -0.02115,-0.05899 -0.0037,-0.174845 0.03878,-0.257438 0.07049,-0.137066 0.01144,-0.151295 -0.676649,-0.163031 -0.414637,-0.007 -0.64769,-0.02894 -0.517898,-0.0486 0.442855,-0.06709 0.237044,-0.178027 -0.429065,-0.231284 -0.78244,-0.06255 -0.781912,-0.06265 -1.406855,0.228279 -0.462761,0.215422 -0.486229,0.24198 -0.526184,0.595495 -0.06836,0.604796 -0.480913,1.950617 -0.680862,2.221058 -0.10222,0.138258 -0.255821,0.251378 -0.34134,0.251378 -0.137586,0 -0.155488,-0.08178 -0.155488,-0.710319 0,-0.799 -0.159257,-1.194258 -0.400515,-0.994033 -0.09852,0.08176 -0.122288,0.274045 -0.104266,0.843364 0.01283,0.405594 -0.0058,0.784556 -0.04134,0.842125 -0.03979,0.06437 -0.252679,0.10129 -0.553056,0.09589 -0.428436,-0.0076 -0.453605,-0.01704 -0.205114,-0.07587 0.458872,-0.108675 0.422761,-0.17279 -0.09732,-0.17279 -0.267452,0 -0.486276,-0.03387 -0.486276,-0.07527 0,-0.04141 0.168012,-0.0563 0.373359,-0.0332 l 0.373361,0.04209 0.04918,-0.542424 c 0.05542,-0.61124 0.0022,-0.758946 -0.369608,-1.023623 l -0.260557,-0.185531 -0.294471,0.224603 c -0.268757,0.204992 -0.286347,0.245019 -0.201467,0.458456 0.180541,0.453979 0.237221,0.8256 0.143203,0.938881 -0.116886,0.140843 -0.386311,0.142628 -0.442678,0.0027 -0.02586,-0.0641 -0.04602,-0.04681 -0.05006,0.0429 -0.0045,0.102241 -0.07705,0.150177 -0.226913,0.150177 -0.218441,0 -0.219989,-0.0048 -0.201311,-0.644681 0.01035,-0.354577 -0.0065,-0.669942 -0.0373,-0.70081 -0.03086,-0.03084 -0.05613,-0.257782 -0.05613,-0.504249 0,-0.513939 -0.09164,-0.469192 1.307573,-0.638492 0.412383,-0.0499 0.806825,-0.112615 0.87654,-0.139365 0.06971,-0.02675 0.234315,0.02443 0.365784,0.113728 0.131467,0.0893 0.345225,0.207928 0.475018,0.263612 0.129793,0.05569 0.235986,0.140689 0.235986,0.188898 0,0.109517 -0.04409,0.109833 -0.258603,0.0021 -0.09375,-0.04721 -0.247171,-0.124433 -0.340924,-0.171632 -0.221885,-0.111698 -0.733912,-0.103469 -1.606596,0.02579 -0.849023,0.12578 -0.957831,0.206259 -0.814557,0.602479 0.05667,0.15671 0.103036,0.3562 0.103036,0.443313 0,0.0871 0.02541,0.132971 0.05647,0.101921 0.03106,-0.03104 0.108287,-0.01346 0.171626,0.03913 0.144119,0.119604 0.152779,-0.02512 0.01002,-0.167861 -0.08295,-0.08295 -0.0828,-0.140864 6.74e-4,-0.274603 0.06322,-0.101176 0.07101,-0.169484 0.01934,-0.169484 -0.04759,0 -0.08654,-0.03737 -0.08654,-0.08313 0,-0.04573 0.05494,-0.06203 0.122085,-0.0363 0.06714,0.02579 0.200105,-0.03117 0.295463,-0.126526 0.09536,-0.09536 0.223845,-0.183148 0.285528,-0.195086 0.170978,-0.03307 0.498309,0.09786 0.498309,0.199355 0,0.04949 0.07724,0.06985 0.171626,0.04519 0.0944,-0.02471 0.171627,-0.0144 0.171627,0.0229 0,0.152453 0.340494,0.147253 0.480398,-0.0073 0.200784,-0.221861 0.416744,-0.203618 0.582398,0.04922 0.100071,0.15273 0.139642,0.421042 0.142382,0.965398 l 0.0038,0.753883 0.154453,-0.300341 c 0.08495,-0.165194 0.203875,-0.493426 0.264279,-0.729416 0.0604,-0.235984 0.160723,-0.587933 0.222933,-0.782098 0.0622,-0.19417 0.09156,-0.435453 0.06521,-0.536181 -0.08081,-0.309047 0.175865,-0.582537 0.654506,-0.697362 0.238501,-0.05721 0.459162,-0.145327 0.490358,-0.195802 0.03757,-0.06079 0.0012,-0.06907 -0.107533,-0.02454 -0.469136,0.192011 -0.494954,0.182263 -0.438509,-0.165566 0.02912,-0.179394 0.125441,-0.407518 0.214067,-0.506945 0.08863,-0.09943 0.211298,-0.307752 0.272607,-0.462947 0.146882,-0.37181 0.349939,-0.467993 1.000927,-0.474118 0.597642,-0.0056 0.974896,0.143219 0.974896,0.384632 0,0.174428 -0.252679,0.211638 -0.508274,0.07485 -0.175302,-0.09382 -0.778926,0.03957 -0.778926,0.172128 0,0.04542 0.324331,0.08178 0.729412,0.08178 0.870529,0 1.007608,0.166467 0.150175,0.182367 -0.566827,0.01052 -0.570964,0.01222 -0.193081,0.07945 0.212388,0.03779 0.569585,0.07157 0.793772,0.07508 0.245774,0.0038 0.407613,0.04545 0.407613,0.104834 0,0.07124 -0.195804,0.081 -0.707958,0.03528 -1.213782,-0.108344 -1.214697,-0.108285 -1.251862,0.08078 -0.01855,0.09439 -0.0701,0.194577 -0.114527,0.222628 -0.04443,0.02806 0.355846,0.07665 0.889512,0.108003 0.533667,0.03135 1.063227,0.08206 1.176801,0.11269 0.122811,0.03313 0.185966,0.02246 0.155835,-0.02629 -0.115556,-0.186975 0.121658,-0.306306 0.762506,-0.383577 0.865107,-0.104312 0.920261,-0.126126 0.518787,-0.205192 -0.199677,-0.03933 -0.463109,-0.02515 -0.666817,0.03589 -0.185207,0.05549 -0.374563,0.07752 -0.420789,0.04894 -0.119801,-0.07403 -0.104049,-0.434632 0.02322,-0.531562 0.149781,-0.114075 0.726485,-0.134007 0.79238,-0.02739 0.02993,0.04844 0.163269,0.08807 0.296296,0.08807 0.133027,0 0.28992,0.05789 0.348652,0.128667 0.09214,0.111016 0.0671,0.122999 -0.182573,0.08735 -0.27937,-0.03989 -0.27751,-0.03716 0.05389,0.07927 0.188789,0.06632 0.294983,0.123557 0.235987,0.127186 -0.213869,0.01314 -0.09902,0.148029 0.284843,0.334523 0.274704,0.133461 0.383685,0.234934 0.363973,0.338898 -0.03805,0.20066 -0.499931,0.253483 -0.603183,0.06898 -0.06061,-0.108296 -0.217009,-0.134386 -0.758228,-0.126479 -0.375028,0.0054 -0.68187,0.04439 -0.68187,0.08647 0,0.04207 -0.125502,0.0823 -0.278893,0.08937 -0.259579,0.01197 -0.262551,0.01533 -0.04291,0.0486 0.145957,0.0221 0.238571,0.09087 0.242762,0.180223 0.004,0.08752 0.03956,0.05503 0.08992,-0.0824 0.06003,-0.163778 0.128092,-0.215126 0.244728,-0.184625 0.09527,0.02491 0.142637,0.0916 0.115423,0.162517 -0.03752,0.09779 0.101766,0.120263 0.745192,0.120263 0.694388,0 0.842702,0.02795 1.210566,0.228175 0.230574,0.125489 0.419225,0.277283 0.419225,0.337304 0,0.06 -0.08689,0.24533 -0.193079,0.411796 -0.227961,0.357337 -0.437712,0.387642 -0.8794,0.127039 -0.260356,-0.153612 -0.388192,-0.173705 -0.798677,-0.125517 -0.268787,0.03159 -0.546629,0.118163 -0.617427,0.192474 -0.11633,0.122109 -0.110945,0.124446 0.05594,0.02431 0.157553,-0.09452 0.220541,-0.08649 0.429065,0.05475 0.281577,0.190736 0.538459,0.212096 0.701054,0.05832 0.164338,-0.155451 0.25158,-0.133557 0.405837,0.101869 0.103486,0.157934 0.139186,0.446793 0.145833,1.179927 0.0049,0.533939 0.02362,0.804575 0.04174,0.601421 0.03415,-0.383008 0.233601,-0.574041 0.369597,-0.353991 0.05404,0.08744 0.09507,0.05677 0.162966,-0.121805 0.04991,-0.131268 0.09074,-0.277601 0.09074,-0.325183 0,-0.04761 0.06759,-0.07368 0.150173,-0.05798 0.113154,0.02148 0.15662,0.128803 0.176328,0.435359 0.02459,0.382556 0.01349,0.40684 -0.185929,0.40684 -0.116645,0 -0.23156,-0.04828 -0.255365,-0.107267 -0.02877,-0.07127 -0.04556,-0.06263 -0.05006,0.02573 -0.01013,0.198372 0.169619,0.338961 0.433326,0.338961 0.262057,0 0.556927,0.238683 0.439697,0.355909 -0.04134,0.04135 -0.30449,0.08927 -0.584756,0.106487 -0.280266,0.01724 -0.600714,0.06745 -0.712106,0.111644 l -0.202533,0.08035 0.216581,0.141908 c 0.119119,0.07805 0.326108,0.138506 0.459972,0.134345 0.262698,-0.0082 1.30133,0.165712 1.417052,0.237228 0.160905,0.09945 0.05386,0.205221 -0.165356,0.163396 l -0.235986,-0.04505 0.247764,0.116865 c 0.136268,0.06424 0.211657,0.13918 0.167528,0.166452 -0.04413,0.02728 -0.136314,0.01407 -0.204856,-0.02923 -0.2861,-0.180986 -1.848247,0.0113 -1.655741,0.2038 0.09029,0.09029 0.856628,0.06824 1.273094,-0.03664 0.336017,-0.08461 0.426263,-0.0715 0.853225,0.123968 0.48869,0.223733 0.539055,0.295916 0.394689,0.565663 -0.115283,0.21541 -0.517918,0.13716 -0.517918,-0.100649 0,-0.142804 -0.02179,-0.154043 -0.127933,-0.06592 -0.08048,0.06681 -0.231689,0.08482 -0.407613,0.04863 -0.153823,-0.03165 -0.472759,-0.08867 -0.708745,-0.126722 -0.356182,-0.05745 -0.287706,-0.06707 0.403124,-0.0569 0.457702,0.0068 0.859952,0.04 0.893887,0.07397 0.03393,0.03393 0.142149,0.06148 0.240477,0.06114 0.148468,-4.17e-4 0.135131,-0.02363 -0.07867,-0.137012 -0.195221,-0.103496 -0.558165,-0.141113 -1.501731,-0.155638 -0.684361,-0.01051 -1.36014,-0.04592 -1.501731,-0.0787 -0.150292,-0.03475 -0.192294,-0.03092 -0.100919,0.0094 0.08609,0.03792 0.163321,0.106009 0.171628,0.151356 0.0084,0.04539 0.101651,0.07141 0.207424,0.05791 0.182644,-0.02336 0.708717,0.287667 0.708717,0.418989 0,0.07839 -0.790096,-0.149585 -1.25369,-0.361742 -0.193959,-0.08877 -0.483578,-0.161013 -0.6436,-0.160561 -0.16002,4.23e-4 -0.672045,-0.04633 -1.137835,-0.104022 -0.806706,-0.09987 -0.853526,-0.09683 -0.98685,0.06431 -0.08305,0.100361 -0.347105,0.211975 -0.649376,0.274468 -0.280176,0.05791 -0.550487,0.15015 -0.600693,0.204945 -0.06797,0.07418 -0.04745,0.08268 0.08035,0.03333 0.432462,-0.167033 0.955864,-0.193282 2.438619,-0.122291 2.016255,0.09653 2.395025,0.146937 2.494032,0.331937 0.06753,0.126183 0.200754,0.141449 0.99953,0.11458 0.506887,-0.01704 0.962765,-0.06471 1.013058,-0.105874 0.05456,-0.04465 0.299126,0.0048 0.606323,0.122838 0.283184,0.108735 0.582458,0.219625 0.665053,0.24642 0.0826,0.0268 0.150174,0.09284 0.150174,0.146776 0,0.115295 -0.533967,0.0363 -0.775916,-0.11483 -0.115707,-0.07227 -0.185992,-0.06976 -0.282142,0.01002 -0.0867,0.07196 -0.146004,0.07721 -0.18366,0.01629 -0.07054,-0.114142 -1.630961,-0.120081 -1.842239,-0.0069 -0.09922,0.05314 -0.258109,0.0534 -0.441416,6.74e-4 -0.186087,-0.0534 -0.316158,-0.05239 -0.371378,0.0027 -0.04674,0.04674 -0.153279,0.08499 -0.236754,0.08499 -0.09965,0 -0.134807,0.04418 -0.102375,0.128721 0.02716,0.0708 0.0067,0.128716 -0.04559,0.128716 -0.05225,-3.4e-5 -0.09499,-0.07011 -0.09499,-0.155767 z m 1.406106,-2.072228 C 26.842802,18.834577 26.5754,18.7553 26.489959,18.685212 c -0.148291,-0.121646 -0.149013,-0.117686 -0.01588,0.0871 0.126241,0.194184 0.182604,0.210891 0.594226,0.176097 l 0.454755,-0.03845 z m -1.127213,-0.489083 c -0.059,-0.02377 -0.155536,-0.02377 -0.214533,0 -0.05899,0.02384 -0.01073,0.04329 0.107267,0.04329 0.117992,0 0.166263,-0.01947 0.107266,-0.04329 z m -0.240024,-0.21438 c 0.166636,-0.07592 0.274646,-0.07536 0.454557,0.0021 l 0.235987,0.101941 -0.214533,-0.17207 c -0.182776,-0.146587 -0.686507,-0.24931 -0.686507,-0.139988 0,0.01974 -0.02343,0.09697 -0.05209,0.171632 -0.06219,0.162055 -0.02499,0.167174 0.262581,0.03616 z m -1.4003,-0.313216 c -0.385898,-0.541946 -0.80575,-0.649179 -1.335014,-0.34098 -0.467557,0.272265 -0.465451,0.370044 0.0085,0.390671 0.221694,0.0096 0.436319,0.05077 0.476946,0.09141 0.04063,0.04061 0.287835,0.08085 0.549357,0.08941 l 0.475491,0.01556 -0.175195,-0.246037 z m 1.04509,0.03737 c 0.06487,-0.169047 0.542343,-0.216925 0.804886,-0.08072 0.122923,0.06377 0.243495,0.09595 0.267937,0.07151 0.02445,-0.02445 0.0048,-0.04444 -0.04363,-0.04444 -0.05077,0 -0.0763,-0.15446 -0.06026,-0.364706 0.04084,-0.535359 -0.07823,-0.817544 -0.135788,-0.321801 -0.04201,0.361897 -0.06101,0.38616 -0.302273,0.38616 -0.230088,0 -0.261298,-0.03192 -0.293761,-0.300348 l -0.03633,-0.30034 -0.04949,0.30034 c -0.04325,0.262442 -0.08199,0.3016 -0.306933,0.31024 -0.440778,0.01698 -0.483841,0.03017 -0.422184,0.129961 0.03636,0.05886 0.01306,0.08134 -0.05929,0.05724 -0.20799,-0.06926 -0.189647,-0.310092 0.02595,-0.340651 0.166298,-0.02357 0.202331,-0.08662 0.224483,-0.392787 0.02108,-0.291316 0.05907,-0.364704 0.188816,-0.364704 0.08934,0 0.201788,0.06759 0.249896,0.150169 0.06709,0.115174 0.08807,0.03892 0.09007,-0.327115 0.0023,-0.432961 -0.02146,-0.495089 -0.256668,-0.668977 -0.142604,-0.105436 -0.291378,-0.171854 -0.33061,-0.147612 -0.03923,0.02424 -0.142454,-0.008 -0.229381,-0.07147 -0.150346,-0.109941 -0.150867,-0.126526 -0.01067,-0.340509 0.110365,-0.168434 0.219421,-0.224933 0.434179,-0.224933 0.166277,0 0.388506,-0.08 0.528833,-0.190386 0.333923,-0.262663 0.459797,-0.264582 0.841916,-0.0128 0.221609,0.146009 0.359911,0.189828 0.417472,0.132264 0.05756,-0.05757 -0.0096,-0.138217 -0.202676,-0.243457 -0.212799,-0.115988 -0.542742,-0.168695 -1.25433,-0.200386 l -0.965579,-0.04303 -0.0025,0.471973 c -0.0014,0.278475 -0.0542,0.540263 -0.128539,0.638547 -0.07957,0.1052 -0.125992,0.364173 -0.125992,0.702891 0,0.557616 -0.091,0.720191 -0.304105,0.543333 -0.10067,-0.08355 -0.124961,-0.07665 -0.124961,0.03548 0,0.157396 -0.382798,0.1977 -0.47413,0.04991 -0.03036,-0.04909 -0.13883,-0.06404 -0.241051,-0.0332 l -0.185857,0.05617 0.193079,-0.184715 c 0.129833,-0.124203 0.193078,-0.285277 0.193078,-0.491724 0,-0.264764 0.02361,-0.300832 0.171629,-0.262131 0.145329,0.03798 0.171069,0.0034 0.167994,-0.225976 -0.0028,-0.212009 -0.06655,-0.310926 -0.293213,-0.455251 l -0.289579,-0.184393 -0.307482,0.208938 -0.307479,0.208939 0.0026,1.048121 c 0.0022,0.831781 0.02293,1.012692 0.101042,0.876489 0.188567,-0.328805 0.348396,-0.391843 0.926582,-0.365472 0.539634,0.02458 1.019444,0.232952 1.026592,0.445755 0.0111,0.330342 0.779519,0.641544 0.887739,0.359528 z m 1.860979,-6.74e-4 c 0,-0.07803 -0.334524,-0.111187 -0.441019,-0.04371 -0.0794,0.05031 -0.02749,0.07441 0.162126,0.07529 0.153391,6.73e-4 0.278893,-0.01346 0.278893,-0.03159 z m 0.452153,-0.02336 c -0.0581,-0.0235 -0.173946,-0.02492 -0.25744,-0.0034 -0.0835,0.02176 -0.03596,0.04101 0.105633,0.04277 0.141593,0.0021 0.209904,-0.01603 0.151807,-0.03953 z m -1.631342,-0.565852 c 0.02007,-0.05899 -0.0019,-0.242427 -0.0487,-0.407615 -0.04685,-0.165193 -0.08903,-0.464349 -0.09372,-0.664796 -0.0048,-0.200448 -0.04636,-0.354914 -0.09264,-0.343256 -0.110775,0.02788 -0.05526,1.126983 0.05904,1.168613 0.05013,0.01825 0.03754,0.06344 -0.02956,0.105953 -0.09278,0.05879 -0.09373,0.07437 -0.0046,0.07543 0.06178,6.74e-4 0.08847,0.03994 0.0593,0.08712 -0.02917,0.04721 -0.01535,0.08582 0.03069,0.08582 0.04605,0 0.100154,-0.04828 0.120225,-0.107267 z m 0.808743,-0.08046 c -0.02739,-0.06846 -0.04773,-0.04815 -0.05185,0.05186 -0.0037,0.09046 0.01655,0.141146 0.04507,0.112628 0.02852,-0.02849 0.03157,-0.102531 0.0068,-0.164474 z M 22.136869,16.35043 c -0.01812,-0.201835 -0.03321,-0.05805 -0.03353,0.319533 -3.58e-4,0.37758 0.01452,0.542712 0.03296,0.366974 0.01843,-0.17574 0.01869,-0.484666 6.16e-4,-0.686507 z m 3.196644,0.898772 c -6.74e-4,-0.03542 -0.03875,-0.122285 -0.08451,-0.19308 -0.06728,-0.104089 -0.08344,-0.09177 -0.0845,0.06437 -6.74e-4,0.106196 0.03729,0.19308 0.0845,0.19308 0.0472,0 0.08522,-0.02896 0.08451,-0.06437 z m 2.059517,-0.34325 c -9.44e-4,-0.23937 -0.02263,-0.288825 -0.0845,-0.19308 -0.109301,0.169127 -0.109301,0.514874 0,0.514874 0.0472,0 0.08522,-0.144809 0.0845,-0.321794 z M 18.794121,16.19855 c -0.0137,-0.440625 -0.06082,-0.772084 -0.109818,-0.772515 -0.05293,-4.17e-4 -0.07526,0.295264 -0.05826,0.771761 0.01515,0.424881 0.06457,0.772514 0.109819,0.772514 0.04817,0 0.07233,-0.319897 0.05826,-0.77176 z m 4.944575,0.322556 c 0.05912,-0.03946 0.04095,-0.06358 -0.04862,-0.06437 -0.07865,-6.73e-4 -0.159219,-0.03031 -0.179015,-0.06565 -0.0198,-0.03542 -0.02301,-0.01293 -0.0071,0.0499 0.01587,0.06282 0.0319,0.178703 0.03562,0.257438 0.0056,0.117968 0.01539,0.120506 0.05577,0.0144 0.02695,-0.0708 0.09147,-0.157093 0.143398,-0.191767 z m -6.977135,-0.158392 c -0.07798,-0.195094 -0.08331,-0.189753 -0.08843,0.08843 -0.0037,0.203207 0.02229,0.268327 0.08298,0.207625 0.05856,-0.05859 0.06038,-0.158568 0.0054,-0.29605 z m 0.506824,0.178527 c 0,-0.04721 -0.0409,-0.08581 -0.09088,-0.08581 -0.04998,0 -0.06701,0.03858 -0.03785,0.08581 0.02917,0.04721 0.07006,0.08582 0.09088,0.08582 0.02082,0 0.03785,-0.03858 0.03785,-0.08582 z m 8.944029,-0.321795 c -0.04938,-0.498188 -0.09104,-0.534485 -0.09849,-0.08581 -0.0037,0.224185 0.02408,0.407607 0.06181,0.407607 0.03773,0 0.05423,-0.144801 0.03668,-0.321795 z m -2.276944,-0.08419 c -0.02176,-0.08349 -0.04099,-0.03596 -0.04275,0.105637 -0.0018,0.141592 0.01606,0.209902 0.03956,0.151806 0.0235,-0.05811 0.02494,-0.173948 0.0032,-0.257443 z m -6.780091,0.04667 c -0.02739,-0.06846 -0.04773,-0.04815 -0.05185,0.05186 -0.0037,0.09046 0.01655,0.14114 0.04507,0.112628 0.02853,-0.02849 0.03157,-0.102531 0.0068,-0.164474 z m 5.088859,-0.825653 c 6.73e-4,-0.06182 -0.03729,-0.08847 -0.0845,-0.05933 -0.0472,0.02916 -0.08522,0.137644 -0.08451,0.241053 0.001,0.152857 0.01686,0.163942 0.08451,0.05927 0.04575,-0.0708 0.08378,-0.179269 0.0845,-0.241048 z m 4.635227,-0.1022 c 0,-0.04721 -0.07125,-0.08581 -0.158326,-0.08581 -0.08708,0 -0.228221,-0.07724 -0.313647,-0.171625 -0.08542,-0.0944 -0.243597,-0.171631 -0.351488,-0.171631 -0.332816,0 -0.304108,0.14087 0.05035,0.247067 0.185263,0.05549 0.360049,0.138472 0.388415,0.184365 0.06791,0.109874 0.384698,0.107927 0.384698,-0.0027 z m -0.51488,-1.412899 c 0,-0.02194 -0.08689,-0.082 -0.19308,-0.133452 -0.18541,-0.08985 -0.186462,-0.08826 -0.02651,0.03989 0.175082,0.140268 0.219585,0.159232 0.219585,0.09357 z m -1.567877,-0.183579 c -0.02853,-0.02852 -0.102531,-0.03157 -0.164478,-0.0068 -0.06845,0.02739 -0.04812,0.04774 0.05185,0.05185 0.09046,0.0037 0.141144,-0.01655 0.112632,-0.04507 z m -2.925999,-0.539119 c 0.06992,-0.09983 0.09046,-0.18151 0.04564,-0.18151 -0.159141,0 -0.188522,-0.283682 -0.04573,-0.441476 0.07925,-0.08756 0.1203,-0.159216 0.09123,-0.159216 -0.0924,0 -0.402802,0.371318 -0.402802,0.481862 0,0.05844 0.06758,0.12241 0.150174,0.142165 0.134555,0.03219 0.132323,0.04313 -0.02146,0.105149 -0.248194,0.100112 -0.471974,0.309372 -0.471974,0.441341 0,0.149833 0.475429,-0.13206 0.654917,-0.388315 z m 3.914637,0.444435 c -0.106194,-0.02046 -0.279966,-0.02046 -0.386159,0 -0.106194,0.02045 -0.01931,0.03719 0.193079,0.03719 0.212388,0 0.299274,-0.01673 0.19308,-0.03719 z m -0.772319,-0.682777 c -0.059,-0.02381 -0.155536,-0.02381 -0.214533,0 -0.059,0.02381 -0.01073,0.04328 0.107267,0.04328 0.117992,0 0.166262,-0.01948 0.107266,-0.04328 z m -1.780624,-0.54386 c -0.02917,-0.0472 -0.137642,-0.0831 -0.241051,-0.07978 -0.181268,0.0058 -0.181857,0.0087 -0.01639,0.07978 0.236199,0.101497 0.320169,0.101497 0.257439,0 z m -9.825612,8.505635 c 0,-0.04721 0.03861,-0.109678 0.08581,-0.13885 0.0472,-0.02916 0.08581,-0.0144 0.08581,0.0328 0,0.04721 -0.03861,0.109678 -0.08581,0.138843 -0.0472,0.02916 -0.08581,0.0144 -0.08581,-0.0328 z m 4.593686,-0.292724 c -0.03673,-0.08463 -0.0427,-0.177955 -0.01329,-0.207383 0.08713,-0.08713 0.157389,0.0353 0.117282,0.204366 -0.03555,0.149915 -0.04018,0.15005 -0.104,0.0027 z m 5.073499,0.0466 c -0.02191,-0.03542 0.516403,-0.06437 1.196252,-0.06437 0.679847,0 1.236118,0.02896 1.236156,0.06437 3.7e-5,0.03543 -0.538275,0.06437 -1.196251,0.06437 -0.657977,0 -1.214246,-0.02896 -1.236157,-0.06437 z M 20.2933,20.431695 c -0.06729,-0.02714 -0.107266,-0.216542 -0.107266,-0.508107 v -0.46482 H 20.6151 c 0.446723,0 0.568229,-0.12568 0.239187,-0.247399 -0.221055,-0.08177 -0.516237,-0.02539 -0.44769,0.08553 0.02585,0.04181 -0.0084,0.07605 -0.07606,0.07605 -0.212276,0 -0.317729,-0.96354 -0.141492,-1.292838 0.06582,-0.122991 0.180675,-0.165988 0.443369,-0.165988 0.438218,0 0.366385,-0.107658 -0.07999,-0.119867 -0.298632,-0.0082 -0.325534,-0.02983 -0.349964,-0.282044 -0.03556,-0.367042 0.207534,-0.508896 0.632018,-0.368805 0.4292,0.14165 0.642101,0.622182 0.316939,0.715348 -0.0826,0.02363 -0.009,0.0229 0.163584,-0.0021 0.24682,-0.03522 0.353997,-0.0048 0.502366,0.143826 0.267069,0.267075 0.175914,0.642811 -0.254812,1.050317 -0.187073,0.176992 -0.312302,0.321801 -0.278285,0.321801 0.03402,0 0.112089,0.08045 0.173494,0.17877 0.09344,0.149619 0.08989,0.211955 -0.02172,0.382309 -0.319417,0.487494 -0.727514,0.665213 -1.142757,0.497656 z m 0.736692,-0.485872 c 0.229061,-0.243819 0.170588,-0.31543 -0.257567,-0.31543 -0.287407,0 -0.328951,0.02531 -0.328951,0.200232 0,0.374839 0.289231,0.431654 0.586518,0.115198 z m 0.374184,-1.146708 c 0.441155,-0.42265 0.253235,-0.756797 -0.371873,-0.661233 -0.541606,0.08281 -0.674642,0.1738 -0.674642,0.461508 0,0.469791 0.637613,0.591476 1.046515,0.199725 z m -0.488729,-1.314049 c -0.02917,-0.04721 -0.137643,-0.08197 -0.241051,-0.07727 -0.175025,0.008 -0.173193,0.01333 0.02652,0.07727 0.117992,0.03778 0.226466,0.07256 0.241051,0.07727 0.01458,0.0048 0.0026,-0.0301 -0.02652,-0.07727 z m 3.003462,2.917645 c -0.110469,-0.04747 0.134158,-0.07284 0.686505,-0.07123 0.554377,0.0013 0.782194,0.02686 0.643599,0.07123 -0.287142,0.09196 -1.116104,0.09196 -1.330104,0 z M 11.649478,20.234092 c -0.03701,-0.05987 0.328475,-0.742811 0.417158,-0.779477 0.0055,-0.0021 0.357593,-0.01811 0.782369,-0.03522 0.602092,-0.02418 0.668292,-0.01704 0.300346,0.03246 -0.619141,0.08328 -0.882185,0.200224 -1.059646,0.471063 l -0.145696,0.222359 H 12.6621 c 0.601322,0 0.742552,-0.027 0.868517,-0.166217 0.08273,-0.09141 0.124545,-0.208097 0.09292,-0.259276 -0.03729,-0.06034 0.03312,-0.08616 0.200189,-0.07342 0.268809,0.02047 0.268541,0.03549 -0.0077,0.434558 -0.162045,0.234024 -0.171498,0.235983 -1.139345,0.235983 -0.536769,0 -0.998974,-0.03724 -1.027121,-0.08281 z m 6.991918,-2.582577 V 17.30308 l 0.3218,0.02667 c 0.266841,0.02208 0.326856,0.06243 0.351403,0.236361 0.03415,0.241942 -0.176007,0.43387 -0.475071,0.43387 -0.174436,0 -0.198132,-0.04168 -0.198132,-0.348428 z m 0.38616,0.0054 c 0.02917,-0.04721 0.01214,-0.08581 -0.03784,-0.08581 -0.04998,0 -0.09087,0.03858 -0.09087,0.08581 0,0.04721 0.01703,0.08581 0.03785,0.08581 0.02082,0 0.06172,-0.03858 0.09087,-0.08581 z m -1.54403,-0.599711 c -0.03007,-0.04863 0.0043,-0.06303 0.08075,-0.03375 0.148664,0.05704 0.175864,0.118561 0.05243,0.118561 -0.04441,0 -0.104342,-0.03819 -0.133176,-0.08483 z m -4.512951,-0.208318 c -0.01966,-0.01966 -0.02255,-0.229364 -0.0064,-0.466047 0.02407,-0.353008 0.05729,-0.428227 0.184935,-0.418612 0.108443,0.0082 0.170338,0.103894 0.204235,0.31587 0.07358,0.460134 0.07311,0.469231 -0.02591,0.502242 -0.0525,0.0175 -0.09225,-0.08328 -0.09225,-0.233842 -10e-7,-0.145524 -0.0384,-0.264588 -0.08535,-0.264588 -0.04943,0 -0.06526,0.126418 -0.03761,0.300339 0.04127,0.259661 -0.02419,0.381945 -0.141631,0.264638 z m 10.889338,-3.884538 c 0.06194,-0.02479 0.135959,-0.02174 0.164475,0.0068 0.02852,0.02852 -0.02217,0.0488 -0.112631,0.04507 -0.09997,-0.004 -0.120301,-0.02446 -0.05185,-0.05185 z m 0.888004,-0.56837 c -0.163009,-0.196414 0.02452,-0.329635 0.423788,-0.301068 0.307938,0.02204 0.377654,0.05789 0.377654,0.194306 0,0.135111 -0.06843,0.171867 -0.355831,0.191111 -0.208931,0.01399 -0.392895,-0.02083 -0.445611,-0.08435 z m -2.771155,-0.528745 c -0.02744,-0.02744 -0.0323,-0.141942 -0.01079,-0.25445 0.07889,-0.412678 1.126574,-0.366785 1.136399,0.04977 6.72e-4,0.03065 -0.162805,0.07422 -0.363394,0.09684 -0.200587,0.02262 -0.442919,0.06736 -0.538514,0.09942 -0.09559,0.03206 -0.19626,0.03586 -0.223699,0.0085 z m 0.760427,-0.355143 c -0.02852,-0.02852 -0.10253,-0.03157 -0.164476,-0.0068 -0.06845,0.02739 -0.04812,0.04773 0.05185,0.05185 0.09046,0.0037 0.141145,-0.01655 0.112629,-0.04507 z m 2.311595,0.337888 c -0.03146,-0.03145 -0.05449,-0.137658 -0.05118,-0.235986 0.0059,-0.175843 0.0072,-0.175961 0.07978,-0.0071 0.06145,0.143007 0.07476,0.124274 0.07978,-0.112332 0.0081,-0.379142 0.177657,-0.267069 0.177657,0.117397 0,0.277854 -0.1344,0.389715 -0.286043,0.238072 z m -9.807796,-0.32607 c -0.02658,-0.06924 -0.0091,-0.233356 0.03882,-0.364706 0.08337,-0.228504 0.08743,-0.223066 0.0939,0.125889 0.0069,0.371186 -0.04566,0.465737 -0.132733,0.238817 z m 7.090377,-0.563381 c 0,-0.140071 0.0374,-0.254674 0.08311,-0.254674 0.04572,0 0.05846,0.06426 0.02832,0.142796 -0.03684,0.09602 -0.02191,0.122469 0.0456,0.08075 0.05522,-0.03413 0.100401,-0.164033 0.100401,-0.288681 0,-0.162041 0.02638,-0.200261 0.09252,-0.134107 0.155986,0.155984 0.05677,0.559341 -0.156881,0.637739 -0.172775,0.0634 -0.19308,0.04407 -0.19308,-0.183822 z M 21.370257,5.4540569 c 0.05664,-0.05664 0.102974,-0.2256794 0.102974,-0.3756522 0,-0.1499709 0.05793,-0.3207484 0.128721,-0.3795038 0.17248,-0.143146 0.163749,-0.2654949 -0.01408,-0.197257 -0.09602,0.03684 -0.122469,0.021901 -0.08075,-0.045593 0.08557,-0.1384783 0.395173,-0.1267078 0.395173,0.015027 0,0.063485 -0.07724,0.1853142 -0.171627,0.2707398 -0.114938,0.1040189 -0.171626,0.2643021 -0.171626,0.4852733 0,0.2533343 -0.03388,0.3299521 -0.145881,0.3299521 -0.113466,0 -0.123,-0.022878 -0.04291,-0.1029755 z M 21.186379,5.1065136 c 0.08162,-0.4368447 0.201041,-0.4852695 0.201041,-0.081523 0,0.2604458 -0.03512,0.3604147 -0.126575,0.3604147 -0.09628,0 -0.114104,-0.066747 -0.07447,-0.2788929 z"></path></svg>