<svg xmlns="http://www.w3.org/2000/svg" viewBox="0 0 32 32" height="32" width="32"><title>kumarighar.svg</title><rect fill="none" x="0" y="0" width="32" height="32"></rect><path fill="#051c05" transform="translate(1 1)" d="M 1.5670672,27.564615 C 1.4347227,27.429817 1.432814,27.417435 1.4656627,26.906904 1.6197206,24.512515 2.9759665,22.404624 5.0613294,21.318478 5.8034051,20.931976 6.5316227,20.71237 7.4736983,20.590991 7.6998694,20.561843 7.7186954,20.54641 7.8342564,20.2951 c 0.1289657,-0.280451 0.4410568,-0.609172 0.7315533,-0.770537 0.2490349,-0.138333 1.0865395,-0.138333 1.335574,0 0.2911553,0.161731 0.6026933,0.490313 0.7324873,0.772564 l 0.122859,0.26717 h 0.406407 0.406405 v -0.663301 c 0,-0.633749 0.0057,-0.669082 0.127415,-0.793077 0.124221,-0.126527 0.147397,-0.129777 0.924955,-0.129777 1.063151,0 1.407168,0.10281 1.919468,0.573613 l 0.194662,0.178896 0.194661,-0.178896 c 0.5123,-0.470805 0.856318,-0.573613 1.91947,-0.573613 0.777557,0 0.800731,0.0032 0.924953,0.129777 0.121739,0.123995 0.127417,0.159328 0.127417,0.793077 v 0.663301 h 0.406403 0.406408 l 0.122859,-0.26717 c 0.146495,-0.318572 0.487141,-0.653266 0.815414,-0.801166 0.19454,-0.08765 0.314654,-0.102962 0.657993,-0.08389 0.260349,0.01447 0.486398,0.05872 0.594653,0.11642 0.285078,0.151955 0.60127,0.483302 0.731555,0.766617 0.115651,0.251498 0.134207,0.266699 0.360556,0.295347 0.967915,0.122502 1.655839,0.332798 2.444799,0.747362 2.068626,1.086975 3.409712,3.183001 3.563237,5.569095 0.03285,0.510531 0.03095,0.522913 -0.101405,0.657709 L 27.77013,27.702007 H 17.850631 7.93113 L 7.8037156,27.572226 C 7.6511708,27.416853 7.6332737,27.109254 7.755523,26.74384 c 0.071017,-0.212277 0.071017,-0.260469 0,-0.465476 -0.1014887,-0.292965 -0.1014887,-0.817324 0,-1.120679 0.071017,-0.212279 0.071017,-0.260469 0,-0.465478 -0.043573,-0.125774 -0.07922,-0.3761 -0.07922,-0.556281 0,-0.180181 0.035647,-0.434158 0.07922,-0.564396 0.071017,-0.212277 0.071017,-0.260469 0,-0.465478 -0.1013805,-0.292678 -0.1015616,-0.8249 -3.715e-4,-1.117 0.062995,-0.181847 0.06694,-0.264275 0.019639,-0.410231 l -0.059183,-0.182658 -0.3258687,0.03099 C 6.201428,21.54018 4.8774407,22.197462 3.9639982,23.127833 3.0582164,24.050401 2.42041,25.373826 2.2956477,26.589603 l -0.032768,0.31932 H 4.476454 c 2.1443494,0 2.2168095,0.0032 2.3173825,0.10575 0.1443003,0.146975 0.1337051,0.397343 -0.023599,0.557556 L 6.6428217,27.701997 H 4.1723848 1.7019479 Z m 8.2611561,-0.764069 c -0.1342553,-0.151099 -0.121217,-0.414555 0.030884,-0.624101 0.097559,-0.134402 0.1271806,-0.240868 0.1271806,-0.457142 0,-0.216275 -0.029631,-0.322739 -0.1271806,-0.457143 -0.069953,-0.09637 -0.1271775,-0.247534 -0.1271775,-0.335935 0,-0.0884 0.057227,-0.239571 0.1271775,-0.335935 0.097559,-0.134402 0.1271806,-0.240868 0.1271806,-0.457142 0,-0.216274 -0.029631,-0.322741 -0.1271806,-0.457142 -0.069953,-0.09637 -0.1271775,-0.247535 -0.1271775,-0.335936 0,-0.0884 0.057227,-0.239571 0.1271775,-0.335936 0.097559,-0.134402 0.1271806,-0.240866 0.1271806,-0.457142 0,-0.216274 -0.029631,-0.32274 -0.1271806,-0.457141 -0.159478,-0.219704 -0.1619719,-0.448732 -0.00728,-0.661937 0.3726607,-0.513393 0.011698,-1.233719 -0.618305,-1.233719 -0.6299594,0 -0.990965,0.720326 -0.6183038,1.233719 0.1547632,0.213205 0.1522685,0.442233 -0.00724,0.661937 -0.097556,0.134401 -0.1271792,0.240867 -0.1271792,0.457141 0,0.216276 0.029616,0.32274 0.1271792,0.457142 0.069955,0.09637 0.1271791,0.247534 0.1271791,0.335936 0,0.0884 -0.057229,0.239571 -0.1271791,0.335936 -0.097556,0.134401 -0.1271792,0.240868 -0.1271792,0.457142 0,0.216274 0.029616,0.32274 0.1271792,0.457142 0.069955,0.09637 0.1271791,0.247535 0.1271791,0.335935 0,0.0884 -0.057229,0.239571 -0.1271791,0.335935 -0.097556,0.134404 -0.1271792,0.240868 -0.1271792,0.457143 0,0.216274 0.029616,0.32274 0.1271792,0.457142 0.1521044,0.209546 0.1651437,0.473002 0.030882,0.624101 l -0.09629,0.108372 h 0.690919 0.690919 z m 6.4753947,-0.24851 c -0.430435,-0.435908 -0.707191,-0.857782 -0.908541,-1.384943 -0.243319,-0.637034 -0.291848,-1.050086 -0.293854,-2.501139 l -0.0018,-1.308579 H 14.73603 14.37266 l -0.0018,1.308579 c -0.0019,1.451053 -0.05054,1.864105 -0.293855,2.501139 -0.201351,0.527161 -0.478107,0.949035 -0.908545,1.384943 l -0.352405,0.356882 h 1.919984 1.919986 z m 4.529495,0.24851 c -0.134258,-0.151099 -0.121219,-0.414555 0.03088,-0.624101 0.09756,-0.134402 0.127179,-0.240868 0.127179,-0.457142 0,-0.216275 -0.02963,-0.322739 -0.127179,-0.457143 -0.06995,-0.09637 -0.127178,-0.247534 -0.127178,-0.335935 0,-0.0884 0.05723,-0.239571 0.127178,-0.335935 0.09756,-0.134402 0.127179,-0.240868 0.127179,-0.457142 0,-0.216274 -0.02963,-0.322741 -0.127179,-0.457142 -0.06995,-0.09637 -0.127178,-0.247535 -0.127178,-0.335936 0,-0.0884 0.05723,-0.239571 0.127178,-0.335936 0.09756,-0.134402 0.127179,-0.240866 0.127179,-0.457142 0,-0.216274 -0.02963,-0.32274 -0.127179,-0.457141 -0.159477,-0.219704 -0.161971,-0.448732 -0.0073,-0.661937 0.372661,-0.513393 0.0117,-1.233719 -0.618304,-1.233719 -0.629957,0 -0.990963,0.720326 -0.618303,1.233719 0.154761,0.213205 0.152268,0.442233 -0.0073,0.661937 -0.09756,0.134401 -0.127178,0.240867 -0.127178,0.457141 0,0.216276 0.02961,0.32274 0.127178,0.457142 0.06995,0.09637 0.12718,0.247534 0.12718,0.335936 0,0.0884 -0.05723,0.239571 -0.12718,0.335936 -0.09756,0.134401 -0.127178,0.240868 -0.127178,0.457142 0,0.216274 0.02961,0.32274 0.127178,0.457142 0.06995,0.09637 0.12718,0.247535 0.12718,0.335935 0,0.0884 -0.05723,0.239571 -0.12718,0.335935 -0.09756,0.134404 -0.127178,0.240868 -0.127178,0.457143 0,0.216274 0.02961,0.32274 0.127178,0.457142 0.152107,0.209546 0.165144,0.473002 0.03088,0.624101 l -0.09628,0.108372 h 0.69092 0.690919 z m 5.195155,-0.24851 c -0.174359,-1.718172 -0.78057,-3.170391 -1.768888,-4.237475 -0.293078,-0.316435 -0.384546,-0.379403 -0.762421,-0.524854 -0.534264,-0.205652 -0.987595,-0.321941 -1.412573,-0.362363 l -0.327897,-0.03119 -0.05919,0.182661 c -0.04729,0.145953 -0.04334,0.228384 0.01964,0.41023 0.101191,0.2921 0.101009,0.82432 -3.92e-4,1.117 -0.07101,0.205009 -0.07101,0.2532 0,0.465478 0.101481,0.303354 0.101481,0.827714 0,1.120676 -0.07101,0.20501 -0.07101,0.253201 0,0.465479 0.10102,0.301953 0.101609,0.827328 0.0015,1.116978 -0.06297,0.181784 -0.06638,0.264273 -0.01773,0.429623 l 0.06019,0.204637 h 2.152089 2.152089 l -0.03622,-0.356883 z m -2.571371,-0.541939 c -0.06428,-0.06546 -0.103815,-0.17624 -0.103815,-0.290794 0,-0.114554 0.03956,-0.225335 0.103815,-0.290796 0.06427,-0.06546 0.173032,-0.10575 0.285504,-0.10575 0.112467,0 0.221235,0.04028 0.285505,0.10575 0.06427,0.06546 0.103815,0.176241 0.103815,0.290796 0,0.114554 -0.03954,0.225334 -0.103815,0.290794 -0.06428,0.06546 -0.173034,0.10575 -0.285505,0.10575 -0.112466,0 -0.221236,-0.04029 -0.285504,-0.10575 z m 1.557294,0 c -0.06427,-0.06546 -0.103815,-0.17624 -0.103815,-0.290794 0,-0.114554 0.03954,-0.225335 0.103815,-0.290796 0.06428,-0.06546 0.173033,-0.10575 0.285505,-0.10575 0.112467,0 0.221235,0.04028 0.285505,0.10575 0.06428,0.06546 0.103816,0.176241 0.103816,0.290796 0,0.114554 -0.03954,0.225334 -0.103816,0.290794 -0.06428,0.06546 -0.173034,0.10575 -0.285505,0.10575 -0.112467,0 -0.221235,-0.04029 -0.285505,-0.10575 z m -0.778647,-1.374668 c -0.06428,-0.06546 -0.103815,-0.176238 -0.103815,-0.290794 0,-0.114554 0.03954,-0.225333 0.103815,-0.290796 0.06428,-0.06546 0.173032,-0.10575 0.285505,-0.10575 0.112466,0 0.221235,0.04029 0.285505,0.10575 0.06428,0.06547 0.103816,0.17624 0.103816,0.290796 0,0.114553 -0.03955,0.225334 -0.103816,0.290794 -0.06427,0.06546 -0.173035,0.10575 -0.285505,0.10575 -0.112467,0 -0.221235,-0.04028 -0.285505,-0.10575 z m -12.733668,2.032807 c 0.673074,-0.256441 1.327111,-0.841245 1.665168,-1.488901 0.320657,-0.614324 0.375072,-0.974424 0.375072,-2.482184 v -1.339776 h -1.393349 -1.39335 l -0.06019,0.204641 c -0.04864,0.165348 -0.04524,0.247838 0.01773,0.429621 0.100376,0.289789 0.09978,0.82269 -0.0012,1.11441 -0.07101,0.205009 -0.07101,0.2532 0,0.465477 0.04357,0.130237 0.07922,0.382966 0.07922,0.561624 0,0.178655 -0.03565,0.431385 -0.07922,0.561624 -0.07101,0.212278 -0.07101,0.260468 0,0.465477 0.101384,0.29268 0.101577,0.824901 3.73e-4,1.117001 -0.06244,0.180245 -0.06675,0.264873 -0.02071,0.406931 0.05669,0.174926 0.06344,0.178459 0.273494,0.142984 0.118461,-0.02 0.360124,-0.09153 0.537036,-0.158929 z m 7.280075,0.01219 c 0.0446,-0.137634 0.03985,-0.224831 -0.02193,-0.403187 -0.101191,-0.2921 -0.101009,-0.824321 3.92e-4,-1.117001 0.07101,-0.205008 0.07101,-0.253199 0,-0.465478 -0.04355,-0.130236 -0.0792,-0.382967 -0.0792,-0.561623 0,-0.178658 0.03565,-0.431386 0.07922,-0.561624 0.07101,-0.212277 0.07101,-0.26047 0,-0.465476 -0.101051,-0.291721 -0.101662,-0.824622 -0.0015,-1.11441 0.06297,-0.181785 0.06638,-0.264275 0.01773,-0.429622 l -0.06011,-0.204641 h -1.393349 -1.393349 v 1.339777 c 0,1.161155 0.01367,1.394218 0.102551,1.748151 0.152792,0.608473 0.378942,1.001582 0.855893,1.487754 0.441466,0.450004 0.835883,0.689548 1.381223,0.838874 0.412193,0.112862 0.448188,0.106431 0.512321,-0.09149 z M 14.212632,20.445332 C 14.179702,20.379905 14.06833,20.236427 13.965139,20.126499 13.7248,19.870464 13.400987,19.771215 12.805956,19.771215 h -0.457768 v 0.39654 0.396538 h 0.962159 0.962159 z m 2.911264,-0.277577 v -0.39654 h -0.444203 c -0.244311,0 -0.546617,0.02626 -0.671791,0.05837 -0.255361,0.06549 -0.611798,0.349563 -0.7295,0.581398 l -0.07784,0.153308 h 0.961666 0.961667 z M 3.8868824,26.010094 c -0.064272,-0.06546 -0.1038187,-0.176241 -0.1038187,-0.290795 0,-0.243112 0.1506343,-0.39654 0.3893236,-0.39654 0.2386893,0 0.3893235,0.153428 0.3893235,0.39654 0,0.114554 -0.039549,0.225334 -0.1038198,0.290795 -0.064272,0.06546 -0.1730325,0.10575 -0.2855039,0.10575 -0.1124716,0 -0.2212349,-0.04029 -0.2855047,-0.10575 z m 1.5572955,0 c -0.064272,-0.06546 -0.1038197,-0.176241 -0.1038197,-0.290795 0,-0.114553 0.039549,-0.225334 0.1038197,-0.290795 0.064272,-0.06546 0.1730333,-0.10575 0.2855047,-0.10575 0.1124716,0 0.2212349,0.04028 0.2855038,0.10575 0.064272,0.06546 0.1038198,0.176241 0.1038198,0.290795 0,0.114554 -0.039549,0.225334 -0.1038198,0.290795 -0.064272,0.06546 -0.1730323,0.10575 -0.2855038,0.10575 -0.1124714,0 -0.2212349,-0.04029 -0.2855047,-0.10575 z M 4.6655302,24.635429 c -0.064272,-0.06546 -0.1038197,-0.176238 -0.1038197,-0.290794 0,-0.243113 0.1506349,-0.396538 0.3893242,-0.396538 0.1124714,0 0.221235,0.04029 0.2855039,0.10575 0.064272,0.06547 0.1038198,0.176241 0.1038198,0.290795 0,0.114555 -0.03955,0.225336 -0.1038198,0.290795 -0.064272,0.06546 -0.1730325,0.10575 -0.2855039,0.10575 -0.1124716,0 -0.2212349,-0.04028 -0.2855046,-0.10575 z M 13.938985,18.130658 C 12.136733,17.840576 10.550287,16.64515 9.7865278,15.001678 9.6150154,14.632616 9.54838,14.537823 9.4601739,14.537416 9.1865624,14.536245 8.8051769,14.279449 8.6334176,13.980933 8.5261141,13.794443 8.4533539,13.738129 8.1964153,13.642708 7.2321847,13.284616 6.698322,12.236709 6.9801002,11.255233 7.0794939,10.909029 7.317115,10.514872 7.5445766,10.318906 7.6926386,10.191344 7.7221999,10.117878 7.8045938,9.6726981 7.9101241,9.1025378 8.1796834,8.2734951 8.4137487,7.7992325 9.1129892,6.3824406 10.327768,5.1661734 11.699317,4.5096355 c 0.171301,-0.082 0.319643,-0.1537915 0.329646,-0.1595368 0.01,-0.00578 -0.05135,-0.1012433 -0.136335,-0.2122203 -0.173889,-0.2270591 -0.271177,-0.4850195 -0.271177,-0.7190295 0,-0.4169968 0.288174,-0.8910199 0.647159,-1.0645272 0.10939,-0.052877 0.183398,-0.1269008 0.183398,-0.1834593 0,-0.192328 0.319978,-0.7398156 0.573609,-0.9814545 0.143145,-0.1363771 0.393835,-0.31172248 0.557089,-0.38965747 0.284349,-0.13574442 0.332819,-0.14169928 1.153336,-0.14169928 0.820517,0 0.868986,0.005933 1.153335,0.14169928 0.163253,0.0779362 0.413945,0.25328037 0.55709,0.38965747 0.25363,0.2416389 0.573609,0.7891265 0.573609,0.9814545 0,0.056557 0.07399,0.1305855 0.183398,0.1834593 0.358986,0.1735073 0.647158,0.6475304 0.647158,1.0645272 0,0.23401 -0.09729,0.4919704 -0.271176,0.7190295 -0.08498,0.1109764 -0.14634,0.2064748 -0.136337,0.2122203 0.01,0.00578 0.158346,0.077539 0.329649,0.1595368 1.377224,0.6592546 2.585748,1.871831 3.292447,3.3034831 0.223056,0.4518729 0.497962,1.3064511 0.606706,1.8860165 0.07812,0.4163099 0.110139,0.4938549 0.255962,0.6197709 0.3623,0.31284 0.646545,0.960291 0.646545,1.472693 0,0.349288 -0.175184,0.875774 -0.390127,1.172456 -0.228266,0.315074 -0.525506,0.536369 -0.91446,0.680816 -0.250015,0.09285 -0.324553,0.150755 -0.430022,0.334057 -0.156714,0.272368 -0.475292,0.505043 -0.74125,0.541376 -0.192761,0.02634 -0.206574,0.04256 -0.413973,0.486183 -0.692856,1.482038 -2.037839,2.59241 -3.654011,3.016635 -0.500742,0.131436 -1.593912,0.18764 -2.0916,0.107544 z m 1.965029,-0.89587 c 1.277524,-0.33296 2.336791,-1.181051 2.982777,-2.388119 0.114517,-0.213989 0.208546,-0.420204 0.208947,-0.458259 3.94e-4,-0.03805 -0.06646,-0.157015 -0.148584,-0.264359 -0.46142,-0.603129 -0.309271,-1.401942 0.340949,-1.790059 0.55003,-0.328312 1.289733,-0.101427 1.618165,0.496317 0.129955,0.236522 0.728641,-0.31575 0.835888,-0.771087 0.180274,-0.765403 -0.368602,-1.434831 -1.176448,-1.434831 h -0.327223 v 0.252596 c 0,0.427315 -0.250963,0.629745 -0.571455,0.460939 -0.08541,-0.04499 -0.156426,-0.08713 -0.157825,-0.09365 -0.0015,-0.0065 -0.03374,-0.218975 -0.07188,-0.472116 -0.0418,-0.277444 -0.132569,-0.597877 -0.228532,-0.8067453 -0.441517,-0.9609835 -1.502058,-1.535414 -2.509799,-1.3594034 -0.583808,0.1019653 -0.972903,0.3270031 -1.418804,0.8205703 -0.516054,0.5712227 -0.57224,0.5712227 -1.088294,0 -0.445905,-0.493565 -0.834999,-0.7186003 -1.418808,-0.8205681 -0.756482,-0.1321258 -1.464621,0.1085085 -2.03805,0.6925693 -0.403772,0.4112519 -0.593956,0.7869012 -0.675613,1.3344502 -0.095577,0.640925 -0.0902,0.627432 -0.2833056,0.709614 -0.1583851,0.06739 -0.1987562,0.06721 -0.3292758,-0.0016 C 9.269194,11.247471 9.2335939,11.16681 9.2335939,10.857908 v -0.2336 l -0.3503923,4e-4 c -0.2934497,3.98e-4 -0.3942945,0.02613 -0.6205536,0.158309 -0.752388,0.439502 -0.7668316,1.538719 -0.026226,1.995401 0.2549688,0.157222 0.2934497,0.15145 0.4174453,-0.06261 0.1334111,-0.230306 0.4636323,-0.454636 0.7485784,-0.508537 0.7028343,-0.132944 1.3874263,0.442522 1.3874263,1.166268 0,0.252914 -0.180664,0.714951 -0.32814,0.839204 -0.121072,0.102011 -0.109897,0.172784 0.09158,0.580312 0.658803,1.332447 1.99339,2.307464 3.481927,2.543806 0.463231,0.07354 1.388461,0.02292 1.868756,-0.102259 z m -1.505387,-2.374296 c -0.544558,-0.146439 -1.063475,-0.682744 -1.063958,-1.099607 -2.14e-4,-0.180512 0.193637,-0.387156 0.363176,-0.387156 0.109354,0 0.362707,0.195288 0.365095,0.281413 9.56e-4,0.03423 0.04182,0.110573 0.09083,0.169623 0.356591,0.429632 1.00358,0.373582 1.227162,-0.106323 0.09197,-0.197405 0.261991,-0.344722 0.397845,-0.344722 0.0469,0 0.146819,0.04931 0.222043,0.109578 0.237256,0.190085 0.153787,0.558418 -0.218908,0.966004 -0.300935,0.329107 -0.959997,0.525011 -1.383296,0.411179 z m -2.569535,-2.712597 c -0.481483,-0.182372 -0.822312,-1.026682 -0.533284,-1.321067 0.06585,-0.06708 0.177501,-0.114318 0.270179,-0.114318 0.158171,0 0.366224,0.141747 0.367717,0.250525 0.0021,0.156469 0.07879,0.186122 0.286393,0.11081 0.459455,-0.166668 0.880238,-0.06785 1.231176,0.289167 0.260438,0.26494 0.31396,0.461972 0.175803,0.647186 -0.174648,0.234136 -0.458056,0.208379 -0.708199,-0.06436 -0.190615,-0.207835 -0.379539,-0.20807 -0.569724,-6e-4 -0.183868,0.200478 -0.352502,0.266224 -0.520061,0.202756 z m 4.209405,0.0016 c -0.168577,-0.06408 -0.260615,-0.198206 -0.262608,-0.382714 -0.0012,-0.113248 0.06236,-0.218065 0.244921,-0.403786 0.350938,-0.357008 0.771719,-0.455836 1.231177,-0.28917 0.207607,0.07531 0.284244,0.04566 0.286391,-0.110809 0.0016,-0.108782 0.209548,-0.250525 0.367719,-0.250525 0.240467,0 0.387672,0.180484 0.376968,0.462191 -0.02,0.526243 -0.541441,1.10928 -0.877652,0.981316 -0.05929,-0.02257 -0.180133,-0.114703 -0.268534,-0.204738 -0.208361,-0.212223 -0.392246,-0.214161 -0.583029,-0.0063 -0.18213,0.198584 -0.352662,0.266213 -0.515353,0.204378 z M 9.9064025,13.62812 c 0.2259025,-0.24697 0.054527,-0.624491 -0.2834819,-0.624491 -0.1158927,0 -0.2144286,0.04021 -0.2834817,0.115711 -0.2259008,0.246967 -0.054526,0.624492 0.2834817,0.624492 0.1158924,0 0.2144298,-0.04021 0.2834819,-0.115712 z m 10.2262405,0 c 0.225901,-0.24697 0.05453,-0.624491 -0.283481,-0.624491 -0.115893,0 -0.214429,0.04021 -0.283483,0.115711 -0.2259,0.246967 -0.05453,0.624492 0.283483,0.624492 0.115892,0 0.214429,-0.04021 0.283481,-0.115712 z M 15.00953,8.5331764 C 15.311706,8.2564569 15.98534,7.9109913 16.386735,7.8268914 16.95316,7.70822 17.765879,7.7817366 18.343775,8.0039443 18.555682,8.0854221 17.550594,7.1483921 17.162294,6.9024613 16.940734,6.7621367 16.501805,6.5548872 16.186897,6.4419069 15.45227,6.1783457 15.344383,6.1193048 15.011579,5.7987217 L 14.736042,5.5332995 14.459707,5.7994904 c -0.313276,0.3017723 -0.527519,0.4233334 -1.047366,0.594265 -0.854068,0.2808295 -1.744201,0.8614484 -2.220769,1.448572 L 10.995287,8.084147 11.219034,7.98646 c 0.489912,-0.2138921 1.283283,-0.281725 1.866315,-0.1595682 0.403788,0.0846 1.080141,0.432342 1.370896,0.7048333 0.139613,0.1308433 0.262089,0.238843 0.27217,0.2399973 0.01018,0.00117 0.136582,-0.1061952 0.281115,-0.238546 z M 14.448178,7.6394802 c -0.07007,-0.071377 -0.127416,-0.1914205 -0.127416,-0.2667618 0,-0.1903134 0.215974,-0.3965391 0.41528,-0.3965391 0.199305,0 0.415279,0.2062257 0.415279,0.3965391 0,0.1903108 -0.215974,0.3965377 -0.415279,0.3965377 -0.101137,0 -0.207546,-0.047966 -0.287864,-0.1297759 z m 2.502607,-3.9537984 c 0.11716,-0.1193916 0.11716,-0.4372727 0,-0.5566649 -0.082,-0.083573 -0.277723,-0.093105 -2.191265,-0.1067097 l -2.101211,-0.014943 -0.129105,0.131498 c -0.07109,0.072415 -0.129106,0.1930503 -0.129106,0.2684841 0,0.07543 0.05801,0.1960721 0.129106,0.2684836 l 0.129105,0.131498 2.101211,-0.014936 c 1.913542,-0.013607 2.109254,-0.023139 2.191265,-0.1067101 z"></path></svg>