<svg xmlns="http://www.w3.org/2000/svg" viewBox="0 0 23 23" height="23" width="23"><title>museum_15.svg</title><rect fill="none" x="0" y="0" width="23" height="23"></rect><rect x="1" y="1" rx="10.5" ry="10.5" width="21" height="21" stroke="#ffffff" style="stroke-linejoin:round;stroke-miterlimit:4;" fill="#ffffff" stroke-width="2"></rect><rect x="1" y="1" width="21" height="21" rx="10.5" ry="10.5" fill="#597fa6"></rect><path fill="#ffffff" transform="translate(4 4)" d="M7.5,1.07,1.07,3.21V4.29H13.93V3.21ZM1.07,5.36V6.43H2.14v5.36H1.07L0,13.93H15l-1.07-2.14H12.86V6.43h1.07V5.36ZM5.36,6.43A1.18,1.18,0,0,1,6.43,7.5v4.29H4.29V7.5A1.12,1.12,0,0,1,5.36,6.43Zm4.28,0A1.12,1.12,0,0,1,10.71,7.5v4.29H8.57V7.5A1.13,1.13,0,0,1,9.64,6.43Z"></path></svg>