<svg xmlns="http://www.w3.org/2000/svg" viewBox="0 0 42 42" height="42" width="42"><title>nyatapole.svg</title><rect fill="none" x="0" y="0" width="42" height="42"></rect><path fill="#051c05" transform="translate(1 1)" d="M 3.2739987,37.730418 C 2.8081871,36.819945 2.4359673,35.987421 2.4468437,35.880366 2.4577167,35.773309 2.4328807,35.723561 2.3916337,35.76981 2.3503947,35.81605 2.1736924,35.571025 1.9989634,35.225301 1.8242361,34.879577 1.5577979,34.363879 1.4068811,34.079305 1.2559635,33.794732 1.2131685,33.645056 1.3117801,33.746687 c 0.1178855,0.121501 0.6203615,0.184789 1.4670907,0.184789 1.0905476,0 1.2761746,0.03397 1.2119147,0.221746 -0.053372,0.155956 0.010699,0.221743 0.2159872,0.221743 0.2032645,0 0.2691849,-0.06629 0.2171465,-0.218357 -0.065141,-0.190375 0.6197599,-0.218785 5.3445174,-0.221695 3.8162194,-0.0024 5.4719624,0.04573 5.5974804,0.162544 0.131765,0.122625 0.178243,0.122613 0.178243,-5.2e-5 0,-0.243024 5.688888,-0.231982 5.905987,0.01142 0.123042,0.137972 0.158197,0.134354 0.158197,-0.0163 0,-0.155118 0.400372,-0.176004 2.010409,-0.104883 2.782101,0.122911 7.768965,0.128752 8.046263,0.0095 0.165513,-0.0712 0.208788,-0.03932 0.155981,0.114997 -0.0448,0.130883 0.0079,0.213569 0.136008,0.213569 0.118663,0 0.180311,-0.0841 0.142542,-0.194473 -0.05404,-0.157886 0.628098,-0.19452 3.625863,-0.194731 l 3.692412,-2.96e-4 -0.302825,0.557712 c -0.166557,0.306742 -0.831152,1.532083 -1.476883,2.722983 l -1.174055,2.165273 -2.979053,-0.0051 -2.979052,-0.0052 -0.0061,-0.46587 c -0.0037,-0.288206 0.109499,-0.606235 0.297078,-0.833933 0.31868,-0.386839 0.416477,-1.236035 0.162612,-1.411977 -0.07733,-0.0536 -0.223754,0.02565 -0.325383,0.176064 -0.176075,0.26062 -0.184979,0.257835 -0.188974,-0.05911 -0.0047,-0.372113 -0.134387,-0.423151 -0.378806,-0.149067 -0.130361,0.146183 -0.189916,0.138659 -0.29253,-0.03696 -0.110968,-0.189911 -0.155939,-0.180691 -0.324086,0.06644 -0.268771,0.395031 -0.244593,0.914071 0.05349,1.148192 0.189544,0.148875 0.244438,0.361706 0.230702,0.894463 -0.02045,0.793253 -0.277251,0.953112 -0.413514,0.257415 -0.04778,-0.243921 -0.141474,-0.44349 -0.20822,-0.44349 -0.06676,3.2e-5 -0.121361,0.199604 -0.121361,0.443524 v 0.44349 h -0.988706 -0.988725 v -1.012098 c 0,-1.201155 -0.283519,-2.00428 -0.660219,-1.870209 -0.132222,0.04705 -0.278558,0.01632 -0.325193,-0.0683 -0.186194,-0.33783 -0.351109,-0.138226 -0.269848,0.326603 l 0.084,0.480448 -0.262123,-0.367184 c -0.144169,-0.201949 -0.210044,-0.403278 -0.146391,-0.447392 0.06617,-0.04586 0.06533,-0.171661 -0.002,-0.293769 -0.06474,-0.11746 -0.135761,-0.182227 -0.15783,-0.143929 -0.631836,1.096489 -0.379276,1.929741 0.562743,1.856607 0.488368,-0.03792 0.510234,0.172996 0.02446,0.235871 -0.242429,0.03139 -0.374314,0.144109 -0.400622,0.342438 -0.134926,1.017195 -0.304347,1.179733 -0.462269,0.44349 -0.05127,-0.239068 -0.06635,-0.223451 -0.07871,0.08158 -0.01323,0.326284 -0.07762,0.379216 -0.476697,0.391901 l -0.461406,0.01466 -0.0083,-1.796289 c -0.0059,-1.260038 -0.04489,-1.694156 -0.130715,-1.454173 -0.0673,0.188164 -0.18613,0.29792 -0.264075,0.243901 -0.07795,-0.05402 -0.224868,0.02486 -0.326497,0.175289 -0.176075,0.260621 -0.184978,0.257836 -0.188974,-0.05912 -0.0046,-0.366698 -0.134045,-0.423533 -0.36773,-0.161485 -0.113918,0.127742 -0.198269,0.128635 -0.332712,0.0035 -0.134593,-0.125262 -0.219283,-0.123679 -0.335162,0.0063 -0.257698,0.288975 -0.183052,1.002834 0.135071,1.291697 0.335866,0.304978 0.451452,1.483992 0.145483,1.483992 -0.118463,-1e-6 -0.171958,-0.229955 -0.171958,-0.73915 0,-0.406535 -0.02965,-0.739152 -0.06591,-0.739152 -0.03626,0 -0.184562,0.133048 -0.329574,0.29566 -0.159473,0.178827 -0.198544,0.296555 -0.09887,0.297925 0.108837,0.0014 0.117485,0.03913 0.02548,0.110869 -0.07662,0.05973 -0.217298,0.324811 -0.31261,0.589057 -0.109145,0.302593 -0.264981,0.480447 -0.420963,0.480447 -0.228291,0 -0.248483,-0.141675 -0.258076,-1.810918 -0.0079,-1.370997 -0.04197,-1.714178 -0.140347,-1.412692 -0.07811,0.239394 -0.200096,0.36804 -0.305832,0.32254 -0.09674,-0.04163 -0.215057,-0.0046 -0.262924,0.08222 -0.132504,0.240417 -0.337265,0.188336 -0.250973,-0.06384 0.04699,-0.137315 -6.48e-4,-0.221746 -0.124981,-0.221746 -0.110475,0 -0.227348,0.08316 -0.259716,0.184789 -0.03237,0.10164 -0.09812,0.14432 -0.146112,0.09486 -0.04799,-0.04947 0.02145,-0.240464 0.154301,-0.424451 0.23042,-0.319093 0.252242,-0.322542 0.473177,-0.0748 0.165894,0.186029 0.272027,0.214409 0.374038,0.100012 0.102011,-0.114392 0.04351,-0.187552 -0.206219,-0.257833 -0.191756,-0.05397 -0.348645,-0.165582 -0.348645,-0.248031 0,-0.08244 -0.100368,-0.05861 -0.22305,0.05297 -0.151561,0.137859 -0.19132,0.143662 -0.12405,0.0181 0.05445,-0.10164 0.03617,-0.184787 -0.0406,-0.184787 -0.07679,0 -0.139611,0.161826 -0.139611,0.359613 0,0.22978 -0.0952,0.393491 -0.263659,0.453452 -0.371266,0.132137 -0.340233,0.786718 0.06218,1.311414 0.251466,0.327885 0.296006,0.486249 0.195804,0.696203 -0.07134,0.149474 -0.12188,0.324359 -0.112314,0.388634 0.0096,0.06427 0.0104,0.244365 0.0018,0.400202 -0.02718,0.49338 -0.177765,0.125481 -0.204835,-0.500458 -0.03688,-0.852446 -0.338098,-1.157105 -0.338098,-0.341945 0,0.900065 -0.09783,1.076467 -0.596998,1.076467 h -0.436959 l 0.03759,-1.626131 c 0.02067,-0.894372 -0.0062,-1.626131 -0.05978,-1.626131 -0.156972,0 -0.262147,0.837769 -0.262147,2.0881 0,1.145524 -0.0429,1.249876 -0.443098,1.07767 -0.153457,-0.06604 -0.172371,-0.170933 -0.07996,-0.443491 0.07663,-0.226027 0.07085,-0.505002 -0.01575,-0.760422 -0.07523,-0.221882 -0.09636,-0.358097 -0.04696,-0.302698 0.163084,0.182874 0.453927,-0.299526 0.453927,-0.752893 0,-0.449694 -0.270079,-0.810756 -0.36574,-0.488949 -0.07438,0.250245 -0.293411,0.214608 -0.293411,-0.04774 0,-0.269607 -0.154224,-0.285329 -0.374614,-0.0382 -0.130361,0.146185 -0.187362,0.140594 -0.27998,-0.02744 -0.09635,-0.174814 -0.15193,-0.177836 -0.324084,-0.01762 -0.279731,0.260334 -0.263152,0.942157 0.03015,1.239807 0.169323,0.171831 0.230107,0.42357 0.210776,0.872931 -0.03693,0.858304 -0.03582,0.853215 -0.185055,0.853215 -0.07251,0 -0.132738,-0.282725 -0.133849,-0.628278 -10e-4,-0.345553 -0.05953,-0.728063 -0.129811,-0.850022 -0.09071,-0.157397 -0.12838,0.02492 -0.129812,0.628276 l -0.002,0.850024 H 14.105453 13.19389 L 13.10622,38.329211 C 13.058,37.739739 13.004105,36.932533 12.986448,36.535418 12.964988,36.052996 12.878667,35.751343 12.726304,35.62641 12.554087,35.485198 12.540313,35.420435 12.670044,35.361837 12.979558,35.222029 12.48929,34.970782 11.90219,34.96834 c -0.694839,-0.0029 -0.972135,0.312014 -0.51587,0.585835 0.176528,0.105936 0.35706,0.298119 0.401184,0.427063 0.05727,0.167366 -0.0068,0.145654 -0.22371,-0.07588 -0.167167,-0.170679 -0.378091,-0.279986 -0.468725,-0.242905 -0.229721,0.094 -0.20595,0.869714 0.03953,1.289835 0.119597,0.20468 0.226985,0.800176 0.258985,1.436141 l 0.05467,1.086471 -0.139505,-0.813065 C 11.106733,37.484681 10.930251,37.400747 10.930251,38.4819 v 0.913947 l -3.4045912,-0.0052 -3.4045904,-0.0052 -0.8469288,-1.65541 z m 18.0706873,0.401893 c 0,-0.128735 -0.07044,-0.207731 -0.156548,-0.175547 -0.244442,0.09136 -0.284986,0.409612 -0.05217,0.409612 0.114801,0 0.20873,-0.105342 0.20873,-0.234065 z M 4.206775,37.627226 c 0,-0.08131 -0.059319,-0.147829 -0.1318303,-0.147829 -0.072514,0 -0.1318293,0.06652 -0.1318293,0.147829 0,0.08131 0.059319,0.14783 0.1318293,0.14783 0.072514,0 0.1318303,-0.06653 0.1318303,-0.14783 z m 27.684317,0 c 0,-0.08131 -0.06282,-0.147829 -0.139611,-0.147829 -0.07679,0 -0.102947,0.06652 -0.05813,0.147829 0.04481,0.08131 0.107638,0.14783 0.139611,0.14783 0.03198,0 0.05813,-0.06653 0.05813,-0.14783 z M 18.402648,37.008188 c -0.04209,-0.117929 -0.07332,-0.08289 -0.07965,0.08931 -0.0057,0.155836 0.02544,0.243149 0.06924,0.194027 0.0438,-0.04911 0.04849,-0.176628 0.01041,-0.283341 z m -14.0640427,0.02771 c 0,-0.08131 -0.062823,-0.147832 -0.1396099,-0.147832 -0.076786,0 -0.1029476,0.06652 -0.058133,0.147832 0.044814,0.08131 0.1076359,0.14783 0.1396108,0.14783 0.031973,0 0.058133,-0.06652 0.058132,-0.14783 z M 17.996752,36.780281 c -0.134008,-0.15027 -0.244578,0.07599 -0.134628,0.275464 0.08305,0.150701 0.114108,0.150818 0.158762,6.16e-4 0.03054,-0.102707 0.01967,-0.226938 -0.02413,-0.276061 z m 12.97153,-0.511661 c 0,-0.194307 -0.299621,-0.07265 -0.365309,0.148346 -0.03212,0.108032 0.02815,0.141066 0.156547,0.08582 0.114819,-0.04941 0.208762,-0.154783 0.208762,-0.234166 z M 18.14506,36.35528 c -0.0438,-0.04912 -0.157511,-0.05438 -0.252675,-0.01167 -0.105165,0.04719 -0.07392,0.08222 0.07965,0.08931 0.138968,0.0064 0.216832,-0.02851 0.173026,-0.07765 z m -1.385425,-0.229998 c 0.02803,-0.09432 0.02625,-0.360408 -0.0041,-0.59132 -0.05176,-0.395548 -0.09222,-0.419839 -0.699132,-0.419839 -0.622585,0 -0.644189,0.01434 -0.644189,0.427672 0,0.243784 0.08504,0.464264 0.197746,0.512768 0.108759,0.04681 0.197745,0.01852 0.197745,-0.06282 0,-0.08134 0.163139,-0.04866 0.362532,0.07265 0.44521,0.270842 0.52444,0.279033 0.589279,0.06091 z m 6.75038,-0.142081 c -0.08544,-0.155011 -0.319708,-0.03057 -0.319708,0.169817 0,0.07397 0.08864,0.09631 0.196988,0.0497 0.108344,-0.04661 0.163566,-0.145405 0.12272,-0.219516 z m 2.976044,0.165732 c 0,-0.08132 -0.05932,-0.147831 -0.13183,-0.147831 -0.07251,0 -0.13183,0.06652 -0.13183,0.147831 0,0.08131 0.05932,0.147829 0.13183,0.147829 0.07251,0 0.13183,-0.06652 0.13183,-0.147829 z m -3.888988,-0.147831 c 0.04481,-0.08131 0.01864,-0.14783 -0.05813,-0.14783 -0.07679,0 -0.139611,0.06652 -0.139611,0.14783 0,0.08131 0.02616,0.147831 0.05813,0.147831 0.03198,0 0.0948,-0.06652 0.139611,-0.147831 z m -15.8855243,-0.0652 c 0,-0.03586 -0.059329,-0.106306 -0.1318303,-0.156556 -0.072514,-0.05025 -0.1318303,-0.0209 -0.1318303,0.06519 0,0.08611 0.05933,0.156556 0.1318303,0.156556 0.072514,0 0.1318303,-0.02934 0.1318303,-0.06519 z m 27.6843163,-0.08264 c 0,-0.08132 -0.06282,-0.14783 -0.139609,-0.14783 -0.07679,0 -0.102948,0.06652 -0.05813,0.14783 0.04481,0.08131 0.107637,0.147831 0.139611,0.147831 0.03198,0 0.05813,-0.06652 0.05813,-0.147831 z M 22.135666,35.409773 c 0,-0.08131 -0.08898,-0.147829 -0.197745,-0.147829 -0.108759,0 -0.197745,0.06652 -0.197745,0.147829 0,0.08131 0.08898,0.147832 0.197745,0.147832 0.10876,0 0.197745,-0.06652 0.197745,-0.147832 z m 12.721603,-0.443491 c 0.04481,-0.08129 0.01865,-0.147829 -0.05813,-0.147829 -0.07679,0 -0.13961,0.06652 -0.13961,0.147829 0,0.08131 0.02616,0.147831 0.05813,0.147831 0.03198,0 0.0948,-0.06652 0.139611,-0.147831 z M 6.3160568,34.670624 c 0,-0.08131 -0.059329,-0.147832 -0.1318303,-0.147832 -0.072514,0 -0.1318303,0.06652 -0.1318303,0.147832 0,0.08131 0.05933,0.14783 0.1318303,0.14783 0.072514,0 0.1318303,-0.06652 0.1318303,-0.14783 z m 27.8161472,0.08265 c 0,-0.03586 -0.05932,-0.106295 -0.13183,-0.156555 -0.07251,-0.05025 -0.13183,-0.02091 -0.13183,0.06519 0,0.08611 0.05932,0.156555 0.13183,0.156555 0.07251,0 0.13183,-0.02934 0.13183,-0.06519 z M 10.139129,34.374969 c 0,-0.08131 -0.09249,-0.147831 -0.2055247,-0.147831 -0.1130396,0 -0.1688617,0.06652 -0.1240498,0.147831 0.044815,0.08131 0.1372969,0.147829 0.2055255,0.147829 0.06823,0 0.124049,-0.06652 0.124049,-0.147829 z m 27.684317,0 c 0,-0.08131 -0.05933,-0.147831 -0.13183,-0.147831 -0.07251,0 -0.13183,0.06652 -0.13183,0.147831 0,0.08131 0.05932,0.147829 0.13183,0.147829 0.07251,0 0.13183,-0.06652 0.13183,-0.147829 z M 22.992561,34.227133 c 0.04481,-0.08131 0.01864,-0.14783 -0.05813,-0.14783 -0.07679,0 -0.139611,0.06653 -0.139611,0.14783 0,0.08131 0.02616,0.14783 0.05813,0.14783 0.03198,0 0.0948,-0.06652 0.139611,-0.14783 z m -10.348662,4.964628 c 0,-0.115186 -0.07415,-0.243166 -0.164786,-0.284406 -0.12072,-0.05492 -0.1248,-0.10764 -0.01525,-0.197107 0.08224,-0.06717 0.179178,-0.255174 0.215409,-0.417786 0.03623,-0.162614 0.07275,0.02033 0.08117,0.406532 0.0084,0.386206 -0.01437,0.702193 -0.05063,0.702193 -0.03626,0 -0.06591,-0.09424 -0.06591,-0.209426 z m 7.370073,0.172469 c -0.0069,-0.02033 -0.02204,-0.385311 -0.0338,-0.811074 -0.01392,-0.503987 0.03642,-0.798984 0.144244,-0.845383 0.121536,-0.0523 0.165619,0.163576 0.165619,0.811072 0,0.489673 -0.05866,0.882342 -0.131831,0.882342 -0.07251,0 -0.137416,-0.01664 -0.144244,-0.03695 z m 1.335386,-0.07392 c 0.0026,-0.06098 0.08746,-0.277181 0.188637,-0.480447 l 0.183969,-0.369577 -0.01096,0.480448 c -0.0069,0.298324 -0.07832,0.480448 -0.188639,0.480448 -0.09773,0 -0.17558,-0.04989 -0.173012,-0.110869 z m 4.945916,-0.02434 c -0.04098,-0.07437 -0.02275,-0.157518 0.04051,-0.184788 0.06327,-0.02727 0.07591,-0.384578 0.02809,-0.794013 -0.07633,-0.653517 -0.05808,-0.744433 0.149446,-0.744433 0.202242,0 0.2364,0.134268 0.2364,0.929219 0,0.710502 -0.04471,0.929217 -0.189964,0.929217 -0.104481,0 -0.223497,-0.06084 -0.264481,-0.135202 z m -3.025597,-0.713669 c 0.01008,-0.41245 0.101367,-0.742652 0.248701,-0.8993 0.220679,-0.234619 0.228511,-0.221507 0.150124,0.251392 -0.04549,0.27441 -0.0827,0.679095 -0.0827,0.899298 0,0.223305 -0.07342,0.400375 -0.165998,0.400375 -0.110746,0 -0.160714,-0.216942 -0.150123,-0.651765 z m 2.69947,-0.124344 c 0.0064,-0.172213 0.03755,-0.207242 0.07965,-0.08932 0.03808,0.10671 0.0334,0.234219 -0.01041,0.283342 -0.0438,0.04912 -0.07497,-0.03819 -0.06923,-0.194026 z M 12.245905,37.845588 c -0.139316,-0.188239 -0.131161,-0.209872 0.04977,-0.132015 0.119015,0.05121 0.216391,0.152521 0.216391,0.22513 0,0.190103 -0.07631,0.163406 -0.266165,-0.09311 z m 0.397994,-0.218362 c 0,-0.162613 -0.05933,-0.295659 -0.13183,-0.295659 -0.07251,0 -0.131829,-0.07045 -0.131829,-0.156556 0,-0.08611 0.05425,-0.118952 0.12057,-0.07299 0.06632,0.04596 0.150617,-5e-6 0.187338,-0.102157 0.03672,-0.102145 0.07145,0.06375 0.07718,0.368655 0.0057,0.3049 -0.01925,0.554363 -0.05552,0.554363 -0.03626,0 -0.06591,-0.133048 -0.06591,-0.295662 z m 17.617558,0.07392 c 0.04174,-0.121961 0.09919,-0.221746 0.127694,-0.221746 0.0285,0 0.05181,0.09978 0.05181,0.221746 0,0.121957 -0.05746,0.221744 -0.127694,0.221744 -0.07023,0 -0.09355,-0.09978 -0.05181,-0.221744 z m -7.384247,-0.04401 c -0.03575,-0.06486 -0.0105,-0.21454 0.05612,-0.332617 0.09456,-0.167617 0.121555,-0.141763 0.123132,0.11793 0.0022,0.341936 -0.06491,0.422156 -0.179249,0.214687 z m -6.997842,-0.611007 c -0.04172,-0.0757 -0.02545,-0.172546 0.03616,-0.215241 0.06161,-0.0427 0.11201,0.01923 0.11201,0.137614 0,0.249268 -0.04157,0.271044 -0.148172,0.07763 z M 12.11658,35.783986 c 0,-0.131877 0.07733,-0.183829 0.196988,-0.132339 0.108343,0.04661 0.164165,0.144319 0.12405,0.217102 -0.115038,0.208727 -0.321038,0.154335 -0.321038,-0.08476 z m -0.593235,-0.374212 c -0.04481,-0.08131 -0.01864,-0.147829 0.05813,-0.147829 0.07679,0 0.139611,0.06652 0.139611,0.147829 0,0.08131 -0.02616,0.147832 -0.05813,0.147832 -0.03198,0 -0.0948,-0.06652 -0.139611,-0.147832 z M 2.3281962,33.378218 c 0.5256731,-0.02807 1.3858641,-0.02807 1.9115373,0 0.5256722,0.02807 0.095576,0.05102 -0.9557687,0.05102 -1.0513447,0 -1.4814408,-0.02296 -0.9557686,-0.05102 z m 3.1639222,0.0055 c 0.1631399,-0.03523 0.4300956,-0.03523 0.5932354,0 0.1631398,0.03523 0.029654,0.06406 -0.2966172,0.06406 -0.3262797,0 -0.459758,-0.02882 -0.2966182,-0.06406 z m 1.713791,0.0064 c 0.090637,-0.04101 0.2389432,-0.04101 0.3295757,0 0.090637,0.04101 0.01648,0.07457 -0.1647879,0.07457 -0.1812672,0 -0.2554214,-0.03356 -0.1647878,-0.07457 z m 1.5819601,-0.01207 c 0.5981798,-0.0274 1.5770185,-0.0274 2.1751975,0 0.598178,0.0274 0.10876,0.0498 -1.087598,0.0498 -1.1963587,0 -1.6857775,-0.02242 -1.0875995,-0.0498 z m 4.8117995,-4.43e-4 c 0.851951,-0.02576 2.246054,-0.02576 3.098005,0 0.851954,0.02576 0.154901,0.04682 -1.549002,0.04682 -1.703905,0 -2.400956,-0.02108 -1.549003,-0.04682 z m 6.986993,-2.95e-4 c 1.286992,-0.02422 3.392978,-0.02422 4.679968,0 1.286993,0.02421 0.233999,0.044 -2.339982,0.044 -2.573984,0 -3.626976,-0.0198 -2.339986,-0.044 z m 8.510053,2.95e-4 c 0.74705,-0.02641 1.933521,-0.0263 2.636601,2.95e-4 0.703083,0.02653 0.09186,0.04813 -1.35827,0.04798 -1.450131,-1.32e-4 -2.025379,-0.02184 -1.278331,-0.04823 z m 4.21155,0.0061 c 0.163141,-0.03523 0.430097,-0.03523 0.593235,0 0.163141,0.03523 0.02965,0.06405 -0.296617,0.06405 -0.326279,0 -0.459757,-0.02882 -0.296618,-0.06405 z m 1.319838,-2.96e-4 c 0.163985,-0.03537 0.401279,-0.03401 0.527321,0.0029 0.126042,0.03701 -0.0081,0.06594 -0.298155,0.06429 -0.290026,-0.0015 -0.393149,-0.03192 -0.229166,-0.06728 z m 1.316765,-0.0037 c 0.308153,-0.03112 0.812403,-0.03112 1.120554,0 0.308154,0.03112 0.05603,0.0566 -0.560277,0.0566 -0.616305,0 -0.86843,-0.02546 -0.560277,-0.0566 z m 2.944205,0.06972 c 0.03021,-0.02119 0.188407,-0.16455 0.351546,-0.31857 0.293098,-0.276719 0.296619,-0.276262 0.296619,0.03853 0,0.246566 -0.07946,0.318572 -0.351548,0.318572 -0.19335,0 -0.326829,-0.01734 -0.296617,-0.03854 z M 1.1307406,33.093769 c -0.048332,-0.05419 -0.086084,-0.203882 -0.083878,-0.332618 0.00333,-0.192223 0.029018,-0.185836 0.1439143,0.03573 0.1419521,0.273734 0.1007983,0.477246 -0.060032,0.296891 z m 0.5712633,-0.34676 c 0,-0.178995 0.1123984,-0.315485 0.2966179,-0.360194 2.0787943,-0.504529 2.9398879,-0.666885 3.146667,-0.593291 0.1363771,0.04854 0.2479569,0.02656 0.2479569,-0.04882 0,-0.07539 0.6377281,-0.27949 1.4171727,-0.453569 1.6705376,-0.37309 1.6149193,-0.368843 1.6149193,-0.123309 0,0.270512 -3.6277449,1.143887 -3.841014,0.924718 -0.108814,-0.111823 -0.1282047,-0.107999 -0.067616,0.01334 0.055607,0.11134 -0.1540803,0.22887 -0.6068532,0.340147 -0.9190296,0.225871 -1.8394849,0.466607 -2.0430642,0.534344 -0.092201,0.03068 -0.164788,-0.07213 -0.164788,-0.233374 z M 28.72717,31.630729 c 0,-0.214874 -0.03023,-0.221064 -0.223052,-0.04569 -0.122678,0.111587 -0.187394,0.135874 -0.143816,0.05397 0.05014,-0.09424 -0.255129,-0.148521 -0.831567,-0.14783 -0.500942,6.15e-4 -0.910811,0.05333 -0.910823,0.117167 -1.3e-5,0.06385 -0.126215,0.04034 -0.280448,-0.05221 -0.218731,-0.131268 -0.305297,-0.124282 -0.393472,0.03177 -0.07155,0.126604 -0.113788,0.137118 -0.115065,0.02862 -0.0012,-0.112327 -0.331489,-0.17771 -0.957787,-0.189678 -1.538654,-0.02939 -1.834329,-0.0058 -2.128022,0.169599 -0.253335,0.151328 -0.261343,0.143517 -0.09066,-0.08846 0.173739,-0.236127 0.14172,-0.248317 -0.44491,-0.169352 -0.347668,0.0468 -0.693204,0.127423 -0.767859,0.179163 -0.07823,0.05421 -0.09588,0.02176 -0.04168,-0.0766 0.126996,-0.230421 -0.218271,-0.219316 -0.438929,0.01411 -0.13974,0.14783 -0.186759,0.14783 -0.235098,0 -0.03323,-0.101641 -0.144464,-0.184788 -0.247181,-0.184788 -0.102719,0 -0.187668,0.08316 -0.188778,0.184788 -0.0015,0.142408 -0.02688,0.140827 -0.110456,-0.0068 -0.07065,-0.124905 -0.311087,-0.172643 -0.69009,-0.137018 -0.319908,0.03008 -0.681868,-2.94e-4 -0.804353,-0.06741 -0.122485,-0.06715 -0.25171,-0.06945 -0.287165,-0.0052 -0.03545,0.06433 -0.291178,0.09855 -0.568278,0.07604 -0.719475,-0.05842 -1.891835,-0.05358 -2.319686,0.0096 -0.201157,0.0297 -0.399239,-0.0067 -0.440184,-0.08107 -0.04244,-0.07702 -0.154407,-0.06066 -0.260455,0.03805 -0.102303,0.09522 -0.186008,0.109536 -0.186008,0.03182 0,-0.1968 -0.835171,-0.182283 -0.953751,0.01657 -0.063,0.105644 -0.09756,0.108436 -0.09887,0.0079 -0.003,-0.225338 -1.715238,-0.246424 -1.717828,-0.02115 -0.0012,0.110522 -0.03793,0.12083 -0.09887,0.02782 -0.142015,-0.216761 -0.558259,-0.263208 -0.558259,-0.0623 0,0.127472 -0.04611,0.129495 -0.176918,0.0077 -0.0973,-0.09056 -0.215949,-0.120876 -0.26366,-0.06737 -0.0477,0.05349 -0.08675,0.02721 -0.08675,-0.05841 0,-0.08563 0.252125,-0.199767 0.560278,-0.253647 0.308151,-0.05388 0.708586,-0.192988 0.889852,-0.309135 0.324533,-0.207939 0.322515,-0.2098 -0.131831,-0.121664 -0.253772,0.04923 -1.068983,0.24731 -1.811577,0.44018 -1.5095309,0.392065 -1.6160036,0.406379 -1.6160036,0.217306 0,-0.197383 0.5428057,-0.373946 2.3325816,-0.75875 0.884134,-0.190089 1.575185,-0.404279 1.535669,-0.475978 -0.03952,-0.0717 -0.154832,-0.09466 -0.256259,-0.05101 -0.101429,0.04365 -0.184411,0.01435 -0.184411,-0.06508 0,-0.09389 -0.08075,-0.09374 -0.230702,4.44e-4 -0.246913,0.154963 -3.0588327,0.801197 -3.1308804,0.719477 C 8.5994826,30.479341 8.24592,29.293216 7.8374548,27.870349 7.4289886,26.447485 6.9432353,24.763404 6.7580025,24.127949 6.5727705,23.492493 6.4507266,22.939484 6.4867951,22.899038 c 0.054744,-0.0614 0.9670045,2.815314 1.0739927,3.386741 0.018549,0.0991 0.069041,0.27997 0.1122025,0.40193 0.043161,0.121961 0.300665,1.012359 0.5722352,1.978665 0.3462387,1.231985 0.520818,1.673673 0.5843031,1.478302 0.04979,-0.153243 0.036456,-0.354771 -0.029622,-0.447847 -0.066088,-0.09307 -0.1085018,-0.226123 -0.094243,-0.295661 0.014258,-0.06954 -0.043452,-0.31507 -0.1282348,-0.545625 -0.2815118,-0.76555 -0.2516601,-1.33479 0.078621,-1.499077 0.3083659,-0.153391 0.4003019,-0.373097 0.1561206,-0.373097 -0.077277,0 -0.2552438,0.06887 -0.39549,0.153031 -0.4614945,0.276961 -0.2937318,-0.243528 0.2364481,-0.733588 0.5016184,-0.463659 0.4503216,-0.567426 -0.1532842,-0.310083 -0.4336682,0.184891 -0.4273058,0.08298 0.024372,-0.390434 l 0.3625316,-0.379977 -0.560276,0.104366 C 7.6850081,25.546207 7.6273561,25.448364 8.0957712,25.035193 8.5529995,24.631885 8.5074732,24.460305 7.9639409,24.538341 7.4202246,24.616401 7.3603297,24.442571 7.8455257,24.194666 8.1270361,24.050834 8.1598033,23.980629 8.0283328,23.802991 7.9402328,23.683953 7.8155481,23.623013 7.7512581,23.66757 7.6869701,23.71213 7.5602108,23.69618 7.4695772,23.63214 7.3604139,23.55498 7.4382912,23.484827 7.7002803,23.424278 L 8.0957712,23.332866 7.5960943,23.084037 C 6.7081144,22.641845 7.3651584,22.407566 8.4017495,22.796769 8.5234887,22.84247 8.4299689,22.668561 8.1939359,22.41029 7.9578999,22.152021 7.7059054,21.981514 7.633945,22.031384 c -0.071962,0.04986 -0.4154503,0.117504 -0.7633115,0.150294 -0.5962298,0.0562 -0.640706,0.03518 -0.7760507,-0.366912 -0.1206185,-0.358337 -0.1122629,-0.413062 0.052258,-0.342264 0.1077087,0.04635 0.2350389,0.01312 0.2829578,-0.07382 0.086416,-0.156798 8.7167264,-1.710654 8.8252564,-1.588954 0.07871,0.08826 -1.823493,0.500186 -4.127194,0.893736 -0.355387,0.06071 -4.0063672,0.806975 -4.3989051,0.899139 -0.1716961,0.0403 -0.2844124,0.104433 -0.2504816,0.142476 0.033927,0.03805 5.0982617,0.08406 11.2540717,0.102224 l 11.192376,0.03306 -8.865573,0.03945 c -5.134912,0.02284 -8.865572,0.09538 -8.865572,0.17239 0,0.07311 -0.133479,0.09686 -0.296617,0.05276 -0.235843,-0.06375 -0.264538,-0.0416 -0.140048,0.108111 0.116266,0.139823 0.698381,0.180746 2.261349,0.158977 1.368661,-0.01906 2.135002,0.02553 2.191194,0.127479 0.04753,0.08623 -0.006,0.156792 -0.11911,0.156792 -0.113039,0 -0.205525,0.06652 -0.205525,0.14783 0,0.08131 0.118646,0.147831 0.26366,0.147831 0.175699,0 0.26366,-0.09855 0.26366,-0.295409 0,-0.292727 0.06309,-0.294594 6.950133,-0.205445 6.068174,0.07855 6.969122,0.119088 7.099762,0.319431 0.09982,0.153077 0.23277,0.191579 0.399393,0.115663 0.241906,-0.110219 0.241468,-0.117943 -0.0139,-0.24536 -0.196117,-0.09786 -0.128574,-0.118856 0.26366,-0.08197 0.290027,0.02726 0.645969,0.106531 0.790982,0.176112 0.246691,0.118382 0.249476,0.110477 0.04324,-0.122931 -0.121229,-0.137202 -0.587019,-0.345361 -1.035089,-0.462573 -0.448071,-0.117214 -0.85196,-0.254928 -0.897532,-0.306031 -0.04557,-0.05109 1.204075,-0.07206 2.776994,-0.04656 2.454506,0.03977 2.867269,0.01492 2.912195,-0.175393 0.02879,-0.121961 0.02627,0.0065 -0.0056,0.285538 -0.0758,0.663456 -1.858876,6.279002 -2.012914,6.33941 -0.06522,0.02558 -0.0877,0.136798 -0.04993,0.247152 0.03776,0.110343 -0.0031,0.350877 -0.09068,0.534496 -0.150103,0.314508 -0.169278,0.318604 -0.330955,0.07067 -0.09439,-0.144753 -0.234892,-0.219341 -0.312222,-0.165748 -0.159562,0.110579 -0.192426,0.387956 -0.04173,0.352184 0.05438,-0.0129 0.200372,0.02647 0.324427,0.08752 0.210981,0.103817 0.209052,0.159698 -0.02983,0.864681 -0.140462,0.414533 -0.237905,0.773298 -0.21654,0.797257 0.02136,0.02395 0.491901,0.122542 1.045636,0.219078 0.855306,0.14911 0.973018,0.20321 0.782337,0.359561 -0.123448,0.101241 -0.283943,0.136187 -0.356655,0.07769 -0.243455,-0.195836 -1.000002,-0.190872 -1.218788,0.0079 -0.150952,0.137209 -0.186803,0.141425 -0.118522,0.01395 0.07074,-0.132068 -0.0084,-0.168891 -0.285306,-0.132738 -0.210759,0.02752 -0.46022,0.103413 -0.554359,0.168654 -0.117017,0.08111 -0.139208,0.06064 -0.07016,-0.06465 0.07675,-0.139269 -0.05911,-0.168966 -0.565815,-0.123667 -0.366755,0.03279 -0.64252,0.01551 -0.612812,-0.03839 0.02971,-0.05391 -0.205076,-0.09168 -0.521746,-0.08396 -0.316671,0.0077 -0.550816,0.05935 -0.520323,0.114707 0.0305,0.05537 -0.0049,0.142443 -0.07853,0.193513 -0.07369,0.05106 -0.133982,-0.01901 -0.133982,-0.155719 z M 26.619908,30.1773 c 0.0013,-0.107798 0.03495,-0.112092 0.09887,-0.01265 0.05434,0.08454 0.675415,0.15248 1.415154,0.154797 1.213887,0.0039 1.507851,-0.07704 1.514029,-0.416339 0.001,-0.06098 -1.377254,-0.125783 -3.063032,-0.144006 -2.771556,-0.02997 -2.852377,-0.03737 -0.844036,-0.07756 1.862668,-0.03725 2.20932,-0.0786 2.148544,-0.256194 -0.058,-0.169483 0.117131,-0.220416 0.876995,-0.255063 l 0.949462,-0.0433 0.0031,-1.145682 c 0.0016,-0.630126 -0.03975,-1.145683 -0.09202,-1.145683 -0.161396,0 0.176898,-0.905723 0.369202,-0.988476 0.222258,-0.09563 0.240643,-0.874665 0.02419,-1.02468 -0.08635,-0.05984 -0.180281,-0.03052 -0.20873,0.06519 -0.02845,0.09569 -0.104241,0.174003 -0.16843,0.174003 -0.06418,0 -0.08257,-0.09978 -0.04083,-0.221745 0.09056,-0.264636 -0.100078,-0.29259 -0.319251,-0.04682 -0.219924,0.246615 -0.365263,0.02796 -0.16304,-0.245274 0.243099,-0.328466 0.04766,-0.275798 -0.261016,0.07034 -0.298041,0.334216 -0.344928,0.884542 -0.09887,1.160482 0.234044,0.262468 0.221546,2.394389 -0.01568,2.674283 -0.153349,0.180933 -0.172771,0.04211 -0.129269,-0.923938 0.03829,-0.85037 0.0091,-1.136864 -0.11616,-1.136864 -0.09734,0 -0.16735,0.182024 -0.16735,0.43512 0,0.336199 -0.167582,0.613469 -0.737136,1.2196 -0.405427,0.431461 -0.791029,0.80665 -0.856896,0.833753 -0.06587,0.02709 -0.119759,-0.469019 -0.119759,-1.10249 0,-1.128853 0.0097,-1.162927 0.488161,-1.712368 l 0.48816,-0.560596 h -0.459766 c -0.373332,0 -0.504666,-0.08528 -0.698775,-0.453768 -0.141834,-0.26925 -0.312499,-0.42216 -0.41969,-0.376034 -0.09936,0.04275 -0.216318,0.01306 -0.259902,-0.06604 -0.137842,-0.250102 -0.302889,-0.005 -0.229923,0.341634 0.06821,0.32391 0.06489,0.325017 -0.12954,0.043 -0.109755,-0.159208 -0.172448,-0.368679 -0.139319,-0.465495 0.105881,-0.309404 -0.202713,-0.373474 -0.346614,-0.07195 -0.192365,0.403065 -0.172926,0.980377 0.03967,1.178233 0.09797,0.09117 0.335259,0.180351 0.527321,0.198176 0.426213,0.03956 0.459882,0.225392 0.05259,0.290258 -0.238611,0.038 -0.304651,0.156253 -0.337697,0.604699 -0.04212,0.571575 -0.288494,0.635123 -0.288494,0.0744 0,-0.709603 -0.234073,0.03059 -0.253574,0.801853 -0.0055,0.219405 -0.158397,0.578368 -0.339661,0.797695 l -0.329577,0.398779 v -1.030628 c 0,-0.908198 0.03915,-1.071874 0.329577,-1.377827 0.181264,-0.19096 0.329574,-0.402127 0.329574,-0.469258 0,-0.06714 -0.14831,-0.122064 -0.329574,-0.122064 -0.31285,0 -0.329788,-0.04314 -0.333768,-0.850022 -0.0038,-0.779592 -0.02022,-0.826246 -0.197747,-0.563066 -0.172725,0.256079 -0.254015,0.216373 -0.209163,-0.102179 0.0085,-0.06098 -0.05006,-0.11087 -0.130323,-0.11087 -0.08026,0 -0.112518,0.09766 -0.07167,0.217012 0.04084,0.119354 0.01753,0.256328 -0.05181,0.304384 -0.06935,0.04805 -0.126073,0.02069 -0.126073,-0.06079 0,-0.08149 -0.222463,-0.132553 -0.494363,-0.113482 -0.434066,0.03044 -0.499583,0.08505 -0.537159,0.447689 -0.02803,0.27051 0.04018,0.48104 0.197745,0.610192 0.160702,0.131737 0.243242,0.394611 0.248678,0.791995 0.0046,0.327146 -0.03495,0.56495 -0.08761,0.52845 -0.05266,-0.0365 -0.122161,0.0172 -0.154445,0.119353 -0.03227,0.102145 -0.0392,-0.127633 -0.01535,-0.510607 0.04618,-0.741989 -0.132014,-1.076145 -0.285212,-0.534875 -0.05065,0.178925 -0.08602,0.628924 -0.0786,0.999999 0.01117,0.559614 -0.06469,0.785381 -0.444733,1.323764 l -0.458198,0.649081 V 27.62924 c 0,-1.242378 0.02231,-1.347942 0.390823,-1.849273 0.41918,-0.570258 0.402025,-0.718324 -0.08322,-0.718324 -0.24719,0 -0.308,-0.07985 -0.309621,-0.406534 -0.001,-0.223591 -0.04561,-0.340008 -0.09887,-0.258701 -0.05327,0.08131 -0.230333,0.231548 -0.393473,0.333871 -0.244978,0.15365 -0.296617,0.150228 -0.296617,-0.01966 0,-0.221548 -0.597863,-0.251153 -0.889855,-0.04407 -0.236633,0.167834 -0.203001,0.588995 0.07362,0.921956 0.203412,0.244838 0.231328,0.493047 0.190169,1.690964 -0.06359,1.850666 -0.141489,2.034764 -0.15451,0.36513 -0.01249,-1.600825 -0.174641,-1.978499 -0.804946,-1.874761 -0.407076,0.06702 -0.414064,0.05797 -0.39044,-0.504779 0.0385,-0.916905 0.01351,-1.060704 -0.134749,-0.776089 -0.140954,0.270571 -0.229408,1.375066 -0.258965,3.233607 -0.02527,1.588637 -0.221352,1.169488 -0.308407,-0.659233 -0.04794,-1.007155 -0.02161,-1.301416 0.121997,-1.363212 0.203449,-0.08755 0.25213,-0.868896 0.06232,-1.000435 -0.06644,-0.04605 -0.104614,-0.312614 -0.08482,-0.592365 0.03689,-0.521379 -0.09415,-0.671828 -0.585147,-0.671828 -0.133041,0 -0.271981,-0.08315 -0.308758,-0.184788 -0.05031,-0.139061 -0.101481,-0.129916 -0.206746,0.03696 -0.147256,0.233433 -0.136154,0.697148 0.02352,0.982363 0.05216,0.09317 0.0062,0.207411 -0.102209,0.254063 -0.252168,0.108503 -0.258031,0.891456 -0.0088,1.170971 0.148107,0.16608 0.173061,0.522758 0.117097,1.673648 -0.03912,0.80442 -0.09602,1.4924 -0.126462,1.528844 -0.03044,0.03644 -0.04674,-0.53806 -0.03623,-1.276673 0.0105,-0.738614 -0.04514,-1.466927 -0.123664,-1.618475 -0.116485,-0.224805 -0.143634,-0.139434 -0.14744,0.463607 -0.0041,0.656365 -0.07357,0.834353 -0.619939,1.589174 -0.338402,0.46751 -0.689181,0.850024 -0.779508,0.850024 -0.111797,0 -0.178209,-0.339279 -0.208006,-1.062668 -0.04271,-1.03654 -0.03162,-1.079765 0.450586,-1.758167 0.271901,-0.382525 0.494364,-0.744629 0.494364,-0.804674 0,-0.06004 -0.237295,-0.07348 -0.527321,-0.02988 -0.290026,0.04362 -0.530463,0.06901 -0.534306,0.05642 -0.0038,-0.01259 -0.08233,-0.538447 -0.174419,-1.168573 -0.157648,-1.078723 -0.153388,-1.145685 0.07289,-1.145685 0.132184,0 0.240335,-0.06652 0.240335,-0.147829 0,-0.303827 -0.49065,-0.133923 -0.634314,0.219653 -0.130386,0.320898 -0.192726,0.348975 -0.491753,0.221489 -0.260614,-0.111116 -0.389501,-0.09323 -0.539402,0.07487 -0.108329,0.121478 -0.16255,0.283305 -0.120494,0.359617 0.04206,0.07631 0.01618,0.180534 -0.05751,0.231605 -0.19373,0.134262 -0.164538,0.825647 0.04639,1.098574 0.123162,0.159369 0.200766,0.819429 0.244697,2.081263 0.03884,1.115779 0.02348,1.584322 -0.03876,1.182639 -0.05671,-0.36588 -0.107494,-1.077081 -0.112869,-1.58045 -0.0054,-0.503367 -0.06909,-0.956325 -0.141604,-1.006577 -0.08484,-0.05881 -0.131829,0.491234 -0.131829,1.543493 0,0.89917 -0.01062,1.684748 -0.02358,1.745728 -0.01297,0.06098 0.09084,0.135201 0.230704,0.16493 0.139857,0.02972 0.293803,0.124417 0.342102,0.210408 0.04829,0.086 0.671196,0.201111 1.384215,0.255818 l 1.2964,0.09947 -1.478951,0.02273 c -1.199117,0.01844 -1.465713,0.06142 -1.408989,0.227183 0.05618,0.164172 0.579499,0.205461 2.65695,0.209621 2.50687,0.0051 2.572962,-0.0024 2.134055,-0.241397 l -0.452933,-0.246581 0.428448,-0.04633 c 0.289787,-0.03133 0.433396,-0.127017 0.443739,-0.29566 0.01372,-0.223831 0.02145,-0.222872 0.07558,0.0093 0.05364,0.230183 0.255429,0.258703 1.830327,0.258703 1.485482,-8e-6 1.770041,-0.03564 1.770041,-0.221753 0,-0.121958 0.05747,-0.221744 0.127692,-0.221744 0.07023,0 0.09355,0.09978 0.05181,0.221744 -0.06181,0.180616 0.05919,0.221745 0.652303,0.221745 0.4005,0 0.748276,0.06759 0.772836,0.150221 0.02456,0.08261 0.428437,0.219531 0.897502,0.30424 0.469066,0.08471 0.866842,0.169707 0.883946,0.188887 0.112423,0.126069 1.360138,0.02488 1.36181,-0.110455 z M 16.170356,29.694323 c 0.09064,-0.04101 0.238941,-0.04101 0.329574,0 0.09064,0.04101 0.01648,0.07457 -0.164788,0.07457 -0.181266,0 -0.25542,-0.03356 -0.164786,-0.07457 z m 2.145783,-1.908988 c -0.0031,-1.059567 0.03077,-1.229979 0.301569,-1.515259 0.167813,-0.176786 0.339266,-0.321428 0.381008,-0.321428 0.04175,0 0.08055,0.449034 0.08624,0.997852 0.0092,0.897154 -0.02879,1.050069 -0.377461,1.51526 l -0.387812,0.517405 z m 2.390212,0.824254 c 0,-0.203266 0.02993,-0.28642 0.0665,-0.184787 0.03657,0.101641 0.03657,0.267943 0,0.369575 -0.03657,0.101641 -0.0665,0.01848 -0.0665,-0.184788 z m 4.362821,-0.221745 c 0.0014,-0.325226 0.02846,-0.440867 0.05999,-0.256978 0.03154,0.183887 0.03033,0.449981 -0.0026,0.591319 -0.03299,0.141339 -0.0588,-0.009 -0.05733,-0.334341 z m 1.115029,0.221745 c -0.03792,-0.162614 -0.01517,-0.29566 0.05054,-0.29566 0.06572,0 0.119488,0.133046 0.119488,0.29566 0,0.162613 -0.02275,0.295661 -0.05054,0.295661 -0.02779,0 -0.08156,-0.133048 -0.119488,-0.295661 z m -2.700607,-0.850023 c 0.03494,-0.426859 0.0256,-0.776108 -0.02073,-0.776108 -0.04632,0 -0.08423,-0.133047 -0.08423,-0.29566 0,-0.162613 0.07581,-0.29566 0.168461,-0.29566 0.125344,0 0.154187,0.249642 0.112688,0.975324 -0.03068,0.536428 -0.09716,1.018722 -0.147733,1.071768 -0.05057,0.05305 -0.06338,-0.252805 -0.02846,-0.679664 z m -1.182853,0.03696 c 0.0014,-0.325226 0.02846,-0.440866 0.06,-0.25698 0.03154,0.183889 0.03033,0.449982 -0.0026,0.591321 -0.033,0.141339 -0.0588,-0.009 -0.05733,-0.334341 z m 3.66457,-0.01939 c 0.07253,-0.213928 0.108139,-0.807362 0.07913,-1.318742 -0.03925,-0.69176 -0.01142,-0.911993 0.108726,-0.860293 0.218175,0.09388 0.268927,2.076438 0.06037,2.358234 -0.251864,0.340309 -0.390439,0.240268 -0.24822,-0.179199 z m -5.368509,-0.01757 c -0.0073,-0.142286 -0.0418,-0.473323 -0.07651,-0.735637 -0.03471,-0.262314 -0.01172,-0.441328 0.05108,-0.39781 0.06279,0.04351 0.114174,0.01259 0.114174,-0.0687 0,-0.08132 -0.05404,-0.185283 -0.120089,-0.231056 -0.160943,-0.111531 -0.09275,-0.569179 0.09528,-0.639466 0.104106,-0.0389 0.147783,0.308681 0.142954,1.13767 -0.0038,0.656537 -0.04892,1.193704 -0.100224,1.193704 -0.0513,0 -0.0993,-0.116421 -0.106667,-0.258702 z M 14.02199,26.92181 c 0.0092,-0.542036 0.203871,-0.647804 0.203871,-0.110825 0,0.257473 -0.04724,0.468131 -0.104999,0.468131 -0.05775,0 -0.10224,-0.16079 -0.09887,-0.357309 z m 9.384303,-0.899248 c 0.04174,-0.12196 0.128858,-0.221746 0.193608,-0.221746 0.06475,0 0.117726,0.09978 0.117726,0.221746 0,0.121961 -0.08712,0.221745 -0.193609,0.221745 -0.117932,0 -0.163947,-0.08667 -0.117725,-0.221745 z m -9.350426,-0.517257 c -0.0379,-0.162532 -0.01516,-0.332768 0.05054,-0.3783 0.06571,-0.04552 0.119455,0.08744 0.119455,0.295512 0,0.452959 -0.07513,0.48955 -0.169995,0.08279 z m 8.936694,-1.49e-4 c 0.04481,-0.08131 0.107638,-0.14783 0.139611,-0.14783 0.03198,0 0.05813,0.06653 0.05813,0.14783 0,0.08132 -0.06282,0.14783 -0.139611,0.14783 -0.07679,0 -0.102947,-0.06653 -0.05813,-0.14783 z m -5.674323,-0.728934 c 0.04172,-0.07569 0.01965,-0.17656 -0.04903,-0.224157 -0.06868,-0.04759 -0.162133,-0.01894 -0.207675,0.0637 -0.09606,0.174308 -0.331856,0.202533 -0.328887,0.03937 0.0065,-0.350076 0.237121,-0.505567 0.508538,-0.342678 0.288814,0.173326 0.389044,0.601382 0.140814,0.601382 -0.07679,0 -0.10548,-0.06194 -0.06376,-0.137616 z m -4.163834,-0.712408 c -0.163979,-0.234469 -0.159316,-0.239696 0.04977,-0.05581 0.126887,0.111599 0.230704,0.228006 0.230704,0.258703 0,0.121671 -0.108258,0.04335 -0.280477,-0.202889 z m 0.544136,0.02823 c 0,-0.126759 0.06028,-0.188686 0.133981,-0.137615 0.07368,0.05106 0.09985,0.154781 0.05813,0.230469 -0.113008,0.205046 -0.192115,0.166812 -0.192115,-0.09285 z m -3.587171,5.641176 c -0.0935,-0.113764 -0.1907564,-0.184711 -0.2161441,-0.157667 -0.078192,0.0833 0.1199841,0.3645 0.2568811,0.3645 0.07109,0 0.05274,-0.09307 -0.04074,-0.206833 z m 20.461423,-1.123638 c 0,-0.08131 -0.06282,-0.147828 -0.139612,-0.147828 -0.07679,0 -0.102947,0.06652 -0.05813,0.147828 0.04481,0.08131 0.107637,0.147831 0.13961,0.147831 0.03198,0 0.05813,-0.06652 0.05813,-0.147831 z M 27.295134,26.64895 c -0.146438,-0.164212 -0.545416,-0.04605 -0.545416,0.161532 0,0.07258 0.152465,0.09928 0.338808,0.05935 0.226507,-0.04855 0.29499,-0.121766 0.206608,-0.220877 z m 4.793703,0.186671 c 0.04481,-0.08132 0.02216,-0.147831 -0.05035,-0.147831 -0.07251,0 -0.168493,0.06652 -0.213305,0.147831 -0.04481,0.08131 -0.02216,0.14783 0.05035,0.14783 0.07251,0 0.168493,-0.06652 0.213305,-0.14783 z M 27.80436,26.687792 c 0,-0.08131 -0.05932,-0.147829 -0.131829,-0.147829 -0.07251,0 -0.131832,0.06652 -0.131832,0.147829 0,0.08131 0.05932,0.147832 0.131832,0.147832 0.07251,0 0.131829,-0.06652 0.131829,-0.147832 z m 2.531137,-0.177396 c -0.0846,-0.09487 -0.197565,-0.123394 -0.251054,-0.06343 -0.05349,0.05998 -0.0117,0.168344 0.09286,0.240808 0.246206,0.170631 0.357379,0.04596 0.158196,-0.177395 z m 2.43663,-0.29381 c -0.04209,-0.117929 -0.07332,-0.08289 -0.07965,0.08931 -0.0057,0.155838 0.02543,0.243148 0.06924,0.194027 0.04381,-0.04911 0.04849,-0.176628 0.01041,-0.283342 z m -22.764828,-0.03748 c 0,-0.03586 -0.059321,-0.106306 -0.13183,-0.156556 -0.072512,-0.05025 -0.1318299,-0.02091 -0.1318299,0.06519 0,0.08611 0.059321,0.156555 0.1318299,0.156555 0.072512,0 0.13183,-0.02934 0.13183,-0.06519 z M 33.431278,25.62526 c -0.04209,-0.11793 -0.07332,-0.0829 -0.07965,0.08931 -0.0057,0.155838 0.02543,0.243152 0.06924,0.194029 0.0438,-0.04911 0.04849,-0.176629 0.01041,-0.283339 z m -1.012865,-0.120114 c 0,-0.08131 -0.09249,-0.147829 -0.205527,-0.147829 -0.113038,0 -0.168861,0.06652 -0.124049,0.147829 0.04481,0.08131 0.137299,0.147832 0.205526,0.147832 0.06823,0 0.12405,-0.06652 0.12405,-0.147832 z m 0.357821,-0.340089 c -0.160549,-0.187051 -0.316261,-0.320506 -0.346029,-0.296567 -0.07693,0.06186 0.402694,0.636656 0.531249,0.636656 0.05867,0 -0.02468,-0.153042 -0.18522,-0.340089 z m 0.894564,-0.399062 c 0.04481,-0.08131 0.01865,-0.147829 -0.05813,-0.147829 -0.07679,0 -0.13961,0.06652 -0.13961,0.147829 0,0.08132 0.02616,0.147831 0.05813,0.147831 0.03198,0 0.0948,-0.06652 0.13961,-0.147831 z m -3.625326,-0.295659 c 0,-0.08132 -0.05932,-0.14783 -0.131831,-0.14783 -0.07251,0 -0.13183,0.06652 -0.13183,0.14783 0,0.08131 0.05933,0.14783 0.13183,0.14783 0.07251,0 0.131831,-0.06653 0.131831,-0.14783 z m -9.751005,-0.141634 c 0.245933,0.174422 0.391068,0.177993 0.391068,0.0096 0,-0.14492 -0.298255,-0.302891 -0.758022,-0.401481 -0.18939,-0.04063 -0.296618,0.0087 -0.296618,0.136391 0,0.293307 0.152072,0.414469 0.321865,0.256448 0.09135,-0.08501 0.222694,-0.08538 0.341707,-0.001 z m 5.97928,-0.09086 c 0.05547,-0.162122 0.01318,-0.21805 -0.139759,-0.184787 -0.120624,0.02624 -0.244007,0.130851 -0.274185,0.232485 -0.08071,0.271809 0.320424,0.225589 0.413944,-0.0477 z m -3.478931,-0.06318 c 0,-0.08132 -0.02616,-0.147831 -0.05813,-0.147831 -0.03198,0 -0.0948,0.06652 -0.139611,0.147831 -0.04481,0.08131 -0.01865,0.147829 0.05813,0.147829 0.07679,0 0.13961,-0.06652 0.139611,-0.147829 z M 9.3481484,24.026857 c 0,-0.08131 -0.026163,-0.147832 -0.05813,-0.147832 -0.031977,0 -0.094795,0.06652 -0.139612,0.147832 -0.044815,0.08131 -0.018643,0.147829 0.05813,0.147829 0.076791,0 0.139612,-0.06652 0.139612,-0.147829 z m 20.1700016,0.08263 c 0,-0.03586 -0.05932,-0.106306 -0.131828,-0.156556 -0.07251,-0.05025 -0.131831,-0.0209 -0.131831,0.06519 0,0.08611 0.05933,0.156557 0.131831,0.156557 0.07251,0 0.131828,-0.02934 0.131828,-0.06519 z M 12.314324,23.731191 c 0.04481,-0.08131 0.01865,-0.14783 -0.05813,-0.14783 -0.07679,0 -0.139612,0.06652 -0.139612,0.14783 0,0.08131 0.02616,0.14783 0.05813,0.14783 0.03198,0 0.09479,-0.06653 0.139612,-0.14783 z m 3.625328,-0.221747 c 0,-0.203265 -0.05895,-0.369574 -0.131003,-0.369574 -0.102511,0 -0.107598,0.336348 -0.01063,0.702193 0.04796,0.180943 0.141628,-0.03903 0.141628,-0.332619 z m 2.636602,0.221747 c 0,-0.08131 -0.06282,-0.14783 -0.139611,-0.14783 -0.07679,0 -0.102947,0.06652 -0.05813,0.14783 0.04482,0.08131 0.107638,0.14783 0.139611,0.14783 0.03198,0 0.05813,-0.06653 0.05813,-0.14783 z m 0.725065,0 c 0.14249,-0.258534 -0.0688,-0.477 -0.275397,-0.284738 -0.102303,0.09521 -0.186008,0.231487 -0.186008,0.302838 0,0.178223 0.361009,0.164058 0.461405,-0.0181 z m 1.252386,0 c 0,-0.08131 -0.06283,-0.14783 -0.13961,-0.14783 -0.07679,0 -0.102948,0.06652 -0.05813,0.14783 0.04481,0.08131 0.107636,0.14783 0.139611,0.14783 0.03198,0 0.05813,-0.06653 0.05813,-0.14783 z m 1.977452,0 c 0,-0.08131 -0.06282,-0.14783 -0.139611,-0.14783 -0.07679,0 -0.102948,0.06652 -0.05814,0.14783 0.04481,0.08131 0.107636,0.14783 0.13961,0.14783 0.03198,0 0.05813,-0.06653 0.05814,-0.14783 z m 0.725064,0 c 0.04481,-0.08131 0.01865,-0.14783 -0.05813,-0.14783 -0.07679,0 -0.139612,0.06652 -0.139612,0.14783 0,0.08131 0.02616,0.14783 0.05813,0.14783 0.03198,0 0.0948,-0.06653 0.139612,-0.14783 z m 2.702518,0 c 0,-0.08131 -0.06283,-0.14783 -0.139611,-0.14783 -0.07679,0 -0.102948,0.06652 -0.05813,0.14783 0.04481,0.08131 0.107637,0.14783 0.13961,0.14783 0.03198,0 0.05813,-0.06653 0.05813,-0.14783 z m -6.382106,-0.553617 c -0.141781,-0.158988 -0.21705,0.06369 -0.117524,0.34767 0.09336,0.266401 0.100411,0.266861 0.146586,0.0096 0.02668,-0.148652 0.0136,-0.309418 -0.02906,-0.357258 z m 8.357538,0.07317 c 0.001,-0.06098 -0.08141,-0.11087 -0.183384,-0.11087 -0.123006,0 -0.161218,0.103716 -0.11354,0.308157 0.05464,0.234289 0.09859,0.260867 0.183383,0.11087 0.06133,-0.108504 0.112431,-0.247178 0.113541,-0.308157 z m 0.92483,0.102157 c 0,-0.117162 -0.05933,-0.213022 -0.131831,-0.213022 -0.07251,0 -0.13183,0.136974 -0.13183,0.304387 0,0.167411 0.05932,0.263269 0.13183,0.213019 0.07251,-0.05025 0.131831,-0.187224 0.131831,-0.304384 z m 3.190287,0.05307 c -0.123042,-0.137974 -0.193352,-0.137974 -0.316393,0 -0.12304,0.137973 -0.08788,0.177396 0.158197,0.177396 0.246084,0 0.281238,-0.03943 0.158196,-0.177396 z M 12.38024,23.065961 c 0,-0.229959 -0.0747,-0.369576 -0.197745,-0.369576 -0.10876,0 -0.197746,0.06652 -0.197746,0.14783 0,0.08131 0.05746,0.14783 0.127693,0.14783 0.07022,0 0.09355,0.09978 0.05181,0.221746 -0.04174,0.121959 -0.01019,0.221744 0.07005,0.221744 0.08027,0 0.145934,-0.166308 0.145935,-0.369574 z m 2.636602,0.221745 c 0,-0.08131 -0.05932,-0.147831 -0.13183,-0.147831 -0.07251,0 -0.13183,0.06653 -0.13183,0.147831 0,0.08131 0.05932,0.147829 0.13183,0.147829 0.07251,0 0.13183,-0.06652 0.13183,-0.147829 z m 2.768432,0 c 0,-0.08131 -0.05932,-0.147831 -0.131831,-0.147831 -0.07251,0 -0.13183,0.06653 -0.13183,0.147831 0,0.08131 0.05933,0.147829 0.13183,0.147829 0.07251,0 0.131831,-0.06652 0.131831,-0.147829 z m 0.79098,0 c 0,-0.08131 -0.05932,-0.147831 -0.131829,-0.147831 -0.07251,0 -0.131831,0.06653 -0.131831,0.147831 0,0.08131 0.05933,0.147829 0.131831,0.147829 0.07251,0 0.131829,-0.06652 0.131829,-0.147829 z m 2.241111,-0.08973 c 0,-0.03196 -0.122148,-0.05809 -0.27144,-0.05809 -0.149293,0 -0.236377,0.06361 -0.193524,0.141374 0.07034,0.127638 0.464964,0.05696 0.464964,-0.08328 z m 0.790981,0.08973 c 0,-0.08131 -0.05932,-0.147831 -0.131831,-0.147831 -0.07251,0 -0.131829,0.06653 -0.131829,0.147831 0,0.08131 0.05932,0.147829 0.131829,0.147829 0.07251,0 0.131831,-0.06652 0.131831,-0.147829 z m 0.922811,0 c 0,-0.08131 -0.05932,-0.147831 -0.131831,-0.147831 -0.07251,0 -0.13183,0.06653 -0.13183,0.147831 0,0.08131 0.05932,0.147829 0.13183,0.147829 0.07251,0 0.131831,-0.06652 0.131831,-0.147829 z m 0.79098,0 c 0,-0.08131 -0.05932,-0.147831 -0.13183,-0.147831 -0.07251,0 -0.13183,0.06653 -0.13183,0.147831 0,0.08131 0.05932,0.147829 0.13183,0.147829 0.07251,0 0.13183,-0.06652 0.13183,-0.147829 z m 0.856895,0 c 0.04481,-0.08131 -0.01451,-0.147831 -0.13183,-0.147831 -0.117319,0 -0.176641,0.06653 -0.131829,0.147831 0.04481,0.08131 0.104134,0.147829 0.131829,0.147829 0.02769,0 0.08702,-0.06652 0.13183,-0.147829 z m 0.922812,0 c 0.04481,-0.08131 -0.01452,-0.147831 -0.131832,-0.147831 -0.117317,0 -0.176641,0.06653 -0.131829,0.147831 0.04481,0.08131 0.104135,0.147829 0.131829,0.147829 0.0277,0 0.08702,-0.06652 0.131832,-0.147829 z m 0.856895,0 c 0,-0.08131 -0.05932,-0.147831 -0.13183,-0.147831 -0.07251,0 -0.13183,0.06653 -0.13183,0.147831 0,0.08131 0.05932,0.147829 0.13183,0.147829 0.07251,0 0.13183,-0.06652 0.13183,-0.147829 z m 0.856896,0 c 0.04481,-0.08131 -0.01452,-0.147831 -0.131831,-0.147831 -0.117318,0 -0.176642,0.06653 -0.13183,0.147831 0.04481,0.08131 0.104135,0.147829 0.13183,0.147829 0.0277,0 0.08702,-0.06652 0.131831,-0.147829 z m 3.032092,0 c 0.04481,-0.08131 -0.01101,-0.147831 -0.12405,-0.147831 -0.113039,0 -0.205527,0.06653 -0.205527,0.147831 0,0.08131 0.05582,0.147829 0.12405,0.147829 0.06823,0 0.160713,-0.06652 0.205527,-0.147829 z M 28.46351,22.918129 c 0,-0.121958 -0.08898,-0.221744 -0.197744,-0.221744 -0.343084,0 -0.231902,0.291345 0.164787,0.431819 0.01812,0.0064 0.03296,-0.0881 0.03296,-0.210075 z m -15.29229,-0.07391 c 0,-0.08131 -0.118647,-0.14783 -0.263661,-0.14783 -0.145012,0 -0.26366,0.06653 -0.26366,0.14783 0,0.08132 0.118648,0.14783 0.26366,0.14783 0.145014,0 0.263661,-0.06653 0.263661,-0.14783 z m 0.725066,0 c 0.04481,-0.08131 -0.04068,-0.14783 -0.189965,-0.14783 -0.149293,0 -0.27144,0.06653 -0.27144,0.14783 0,0.08132 0.08548,0.14783 0.189964,0.14783 0.104481,0 0.226629,-0.06653 0.271441,-0.14783 z m 2.175197,0.01723 c 0,-0.07182 -0.118648,-0.16538 -0.263661,-0.207906 -0.17136,-0.05025 -0.26366,-0.0046 -0.26366,0.130591 0,0.114346 0.118646,0.207905 0.26366,0.207905 0.145013,0 0.263661,-0.05876 0.263661,-0.13059 z m 0.79098,-0.01723 c 0,-0.08131 -0.118648,-0.14783 -0.26366,-0.14783 -0.145013,0 -0.263661,0.06653 -0.263661,0.14783 0,0.08132 0.118648,0.14783 0.263661,0.14783 0.145012,0 0.26366,-0.06653 0.26366,-0.14783 z m 0.65915,0 c 0,-0.08131 -0.118646,-0.14783 -0.26366,-0.14783 -0.145012,0 -0.26366,0.06653 -0.26366,0.14783 0,0.08132 0.118648,0.14783 0.26366,0.14783 0.145014,0 0.26366,-0.06653 0.26366,-0.14783 z m 0.790981,0 c 0,-0.08131 -0.118647,-0.14783 -0.263661,-0.14783 -0.145012,0 -0.263659,0.06653 -0.263659,0.14783 0,0.08132 0.118647,0.14783 0.263659,0.14783 0.145014,0 0.263661,-0.06653 0.263661,-0.14783 z m 0.725066,0 c 0.04621,-0.08384 -0.06454,-0.14783 -0.255881,-0.14783 -0.185545,0 -0.337354,0.06653 -0.337354,0.14783 0,0.08132 0.115145,0.14783 0.255878,0.14783 0.140734,0 0.292545,-0.06653 0.337357,-0.14783 z m 0.725064,0 c 0,-0.08131 -0.118646,-0.14783 -0.263659,-0.14783 -0.145014,0 -0.263661,0.06653 -0.263661,0.14783 0,0.08132 0.118647,0.14783 0.263661,0.14783 0.145013,0 0.263659,-0.06653 0.263659,-0.14783 z m 0.725066,0 c 0.0464,-0.08418 -0.06714,-0.14783 -0.26366,-0.14783 -0.196521,0 -0.310053,0.06365 -0.263661,0.14783 0.04481,0.08132 0.16346,0.14783 0.263661,0.14783 0.100203,0 0.218849,-0.06653 0.26366,-0.14783 z m 0.725066,0 c 0,-0.08131 -0.118648,-0.14783 -0.263661,-0.14783 -0.145012,0 -0.26366,0.06653 -0.26366,0.14783 0,0.08132 0.118648,0.14783 0.26366,0.14783 0.145013,0 0.263661,-0.06653 0.263661,-0.14783 z m 0.79098,0 c 0,-0.08131 -0.118646,-0.14783 -0.26366,-0.14783 -0.145013,0 -0.263661,0.06653 -0.263661,0.14783 0,0.08132 0.118648,0.14783 0.263661,0.14783 0.145014,0 0.26366,-0.06653 0.26366,-0.14783 z m 0.65915,0 c 0,-0.08131 -0.118647,-0.14783 -0.26366,-0.14783 -0.145012,0 -0.26366,0.06653 -0.26366,0.14783 0,0.08132 0.118648,0.14783 0.26366,0.14783 0.145013,0 0.26366,-0.06653 0.26366,-0.14783 z m 0.79098,0 c 0,-0.08131 -0.118646,-0.14783 -0.263659,-0.14783 -0.145014,0 -0.263659,0.06653 -0.263659,0.14783 0,0.08132 0.118645,0.14783 0.263659,0.14783 0.145013,0 0.263659,-0.06653 0.263659,-0.14783 z m 0.659152,0 c 0,-0.08131 -0.118648,-0.14783 -0.263662,-0.14783 -0.145012,0 -0.263659,0.06653 -0.263659,0.14783 0,0.08132 0.118647,0.14783 0.263659,0.14783 0.145014,0 0.263662,-0.06653 0.263662,-0.14783 z m 0.790979,0 c 0,-0.08131 -0.118646,-0.14783 -0.263659,-0.14783 -0.145014,0 -0.263661,0.06653 -0.263661,0.14783 0,0.08132 0.118647,0.14783 0.263661,0.14783 0.145013,0 0.263659,-0.06653 0.263659,-0.14783 z m 0.65915,0 c 0,-0.08131 -0.118646,-0.14783 -0.263658,-0.14783 -0.145014,0 -0.263662,0.06653 -0.263662,0.14783 0,0.08132 0.118648,0.14783 0.263662,0.14783 0.145012,0 0.263658,-0.06653 0.263658,-0.14783 z m 0.790982,0 c 0,-0.08131 -0.118648,-0.14783 -0.26366,-0.14783 -0.145014,0 -0.26366,0.06653 -0.26366,0.14783 0,0.08132 0.118646,0.14783 0.26366,0.14783 0.145012,0 0.26366,-0.06653 0.26366,-0.14783 z m 0.659151,0 c 0,-0.08131 -0.118649,-0.14783 -0.263662,-0.14783 -0.145012,0 -0.263659,0.06653 -0.263659,0.14783 0,0.08132 0.118647,0.14783 0.263659,0.14783 0.145013,0 0.263662,-0.06653 0.263662,-0.14783 z m 0.79098,0 c 0,-0.08131 -0.118647,-0.14783 -0.263661,-0.14783 -0.145012,0 -0.26366,0.06653 -0.26366,0.14783 0,0.08132 0.118648,0.14783 0.26366,0.14783 0.145014,0 0.263661,-0.06653 0.263661,-0.14783 z m 1.450131,0 c 0,-0.08131 -0.118648,-0.14783 -0.263661,-0.14783 -0.145013,0 -0.26366,0.06653 -0.26366,0.14783 0,0.08132 0.118647,0.14783 0.26366,0.14783 0.145013,0 0.263661,-0.06653 0.263661,-0.14783 z m 3.90272,-0.699113 c -0.134009,-0.150271 -0.244579,0.07598 -0.134627,0.275463 0.08305,0.150701 0.114109,0.150819 0.158762,6.14e-4 0.03054,-0.102706 0.01967,-0.226938 -0.02413,-0.276061 z M 28.61415,20.726097 c -0.146727,-0.198254 -0.972516,-0.20499 -1.567814,-0.01279 -0.164541,0.05312 -0.296618,0.03098 -0.296618,-0.04974 0,-0.08767 -0.602631,-0.141041 -1.516045,-0.134281 -0.955493,0.0072 -1.516792,0.06817 -1.518064,0.16522 -0.0013,0.104713 -0.03302,0.105431 -0.09887,0.0023 -0.129268,-0.20248 -2.667542,-0.23782 -2.667542,-0.03715 0,0.09201 -0.07332,0.08288 -0.187475,-0.02334 -0.10406,-0.09684 -0.424559,-0.147887 -0.720332,-0.114719 -0.317315,0.03558 -0.501431,0.0028 -0.455165,-0.08121 0.04729,-0.08581 -0.04484,-0.09628 -0.235437,-0.0268 -0.17222,0.06279 -0.491098,0.104893 -0.708617,0.09356 -0.857513,-0.04467 -2.624943,-0.0079 -2.717827,0.05632 -0.05407,0.03748 -0.127893,0.01445 -0.164059,-0.05118 -0.03617,-0.06562 -0.440701,-0.107291 -0.898962,-0.09261 l -0.833205,0.0267 0.725066,-0.202309 c 0.551794,-0.153964 1.951114,-0.201912 5.855551,-0.20064 2.821769,8.92e-4 5.173211,-0.05039 5.225431,-0.114021 0.05222,-0.06364 0.134952,-0.264253 0.183856,-0.445834 l 0.08892,-0.330144 -3.468723,-0.04201 -3.468725,-0.042 3.46054,-0.03439 c 2.974517,-0.02957 3.460539,-0.06553 3.460539,-0.256139 0,-0.193628 -0.710418,-0.221746 -5.602779,-0.221746 -4.89236,0 -5.602777,0.02813 -5.602777,0.221746 0,0.186477 0.330238,0.226417 2.076324,0.251135 l 2.076323,0.02939 -1.977451,0.104769 c -2.236889,0.118515 -2.740226,0.170037 -2.834346,0.290129 -0.03626,0.04626 -0.589885,0.187094 -1.230289,0.312974 -0.836645,0.164448 -1.17864,0.182385 -1.215057,0.06372 -0.06589,-0.214679 -1.059664,-4.760934 -1.167113,-5.339196 -0.05821,-0.313249 -0.04552,-0.376109 0.04319,-0.214047 0.06907,0.126195 0.370128,1.320153 0.669013,2.653246 0.499292,2.22697 0.909788,3.621259 0.704912,2.39431 -0.06765,-0.40512 -0.0167,-0.565678 0.298878,-0.941859 l 0.380424,-0.453489 -0.428446,0.243465 c -0.588814,0.334593 -0.588814,-0.03664 0,-0.43036 0.322423,-0.215596 0.373067,-0.298961 0.204654,-0.336882 -0.123088,-0.02771 -0.34555,0.02267 -0.494364,0.111992 -0.21575,0.12948 -0.270569,0.118417 -0.270569,-0.05461 0,-0.119342 0.113291,-0.257306 0.251754,-0.306586 0.138468,-0.04928 0.327683,-0.192191 0.420482,-0.317578 0.148644,-0.200842 0.110832,-0.215797 -0.317669,-0.125653 -0.600851,0.126402 -0.625718,-0.068 -0.05795,-0.45307 l 0.428448,-0.290577 -0.593235,-0.08667 -0.593236,-0.08667 0.428449,-0.204446 c 0.539606,-0.257489 0.539606,-0.369253 0,-0.5104 l -0.428449,-0.11207 0.395491,-0.112114 c 0.375611,-0.106497 0.380581,-0.117511 0.09887,-0.219308 -0.16314,-0.05895 -0.296617,-0.197125 -0.296617,-0.30705 0,-0.206281 0.312679,-0.144202 0.62176,0.123443 0.08819,0.07637 0.225099,0.114661 0.30423,0.08509 0.07913,-0.02958 -0.0513,-0.215584 -0.289826,-0.413343 -0.303085,-0.251279 -0.61252,-0.361724 -1.027449,-0.366731 -0.457311,-0.0056 -0.603958,-0.06655 -0.638178,-0.265631 -0.04064,-0.236426 0.27393,-0.754764 0.387575,-0.638637 0.02676,0.02734 0.938505,-0.03959 2.026103,-0.148738 3.336155,-0.334811 3.182296,-0.181898 -0.230703,0.229284 -0.851951,0.102639 -1.549003,0.233843 -1.549003,0.29156 0,0.05772 0.964007,0.08283 2.142239,0.05579 1.393155,-0.03197 2.050044,-8.95e-4 1.878578,0.08876 -0.177712,0.09296 0.367205,0.141301 1.671666,0.148305 1.903428,0.0102 1.936019,0.01588 1.977451,0.343008 0.02318,0.182941 0.09333,0.312081 0.155925,0.28698 0.132208,-0.05301 0.517572,0.717389 0.41588,0.831423 -0.03755,0.04211 -0.06827,-10e-4 -0.06827,-0.09591 0,-0.285422 -0.213198,-0.194624 -0.376039,0.160149 -0.14993,0.326647 -0.151132,0.326003 -0.06704,-0.03579 0.07533,-0.324102 0.06042,-0.344951 -0.12399,-0.173336 -0.159942,0.14885 -0.180068,0.282229 -0.08493,0.562828 0.06858,0.202261 0.124685,0.536939 0.124685,0.743725 0,0.327227 -0.04274,0.36395 -0.329576,0.283221 -0.206637,-0.05817 -0.329575,-0.03013 -0.329575,0.07513 0,0.09515 -0.11433,0.134362 -0.263971,0.09048 -0.145184,-0.04258 -0.308324,0.0065 -0.362533,0.109009 -0.12216,0.231047 -0.608614,0.525236 -0.868505,0.525236 -0.132539,0 -0.222406,-0.231275 -0.283537,-0.729685 -0.07281,-0.593651 -0.130416,-0.713965 -0.308988,-0.645348 -0.164185,0.06308 -0.154449,0.02759 0.03865,-0.140849 0.141976,-0.123852 0.330202,-0.194179 0.41828,-0.156277 0.171255,0.07369 0.173552,-0.204354 0.0042,-0.508334 -0.05661,-0.101641 -0.05959,-0.267942 -0.0066,-0.369575 0.05298,-0.101641 -0.02232,-0.06837 -0.167389,0.07391 -0.310489,0.304554 -0.527595,0.330887 -0.609438,0.07391 -0.03237,-0.10164 -0.10414,-0.137569 -0.159492,-0.07986 -0.155844,0.162492 -0.210081,1.00379 -0.06471,1.00379 0.07109,0 0.129257,0.232833 0.129257,0.517406 0,0.284574 -0.04449,0.515927 -0.09887,0.514119 -0.177179,-0.0058 -0.657627,-0.506184 -0.813146,-0.846737 -0.08355,-0.18294 -0.238795,-0.332618 -0.345005,-0.332618 -0.106209,0 -0.193109,-0.133046 -0.193109,-0.29566 0,-0.162613 -0.08264,-0.295661 -0.18364,-0.295661 -0.101004,0 -0.218855,-0.102907 -0.261896,-0.228679 -0.04303,-0.125774 -0.181535,-0.208928 -0.307763,-0.184785 -0.12623,0.02414 -0.23084,-0.03372 -0.232467,-0.12858 -0.0049,-0.282655 -0.200704,-0.41661 -0.200704,-0.137271 0,0.32327 0.350055,0.728254 0.524799,0.607149 0.07465,-0.05173 0.09884,0.004 0.05605,0.12895 -0.04382,0.128064 0.102199,0.43867 0.349502,0.743422 0.233629,0.2879 0.504831,0.651619 0.602673,0.80826 0.158903,0.2544 0.150852,0.276878 -0.0754,0.21053 -0.210857,-0.06183 -0.239919,-0.01611 -0.173451,0.272963 0.07411,0.322303 0.06223,0.331317 -0.165445,0.125494 -0.225907,-0.204224 -0.236787,-0.198385 -0.13768,0.07391 0.05919,0.162614 0.118519,0.410721 0.131853,0.551353 0.03265,0.344178 0.205393,0.522857 0.205393,0.212437 0,-0.334405 0.227153,-0.3126 0.324446,0.03116 0.07434,0.262659 0.27438,0.27759 3.733082,0.278638 2.580879,7.26e-4 3.683581,-0.04819 3.753405,-0.166658 0.07268,-0.123321 0.126515,-0.119924 0.203211,0.01281 0.07512,0.130014 0.619668,0.17381 1.944494,0.156389 1.712262,-0.02252 2.029408,-0.09228 2.035882,-0.447851 10e-4,-0.06097 -1.733195,-0.126425 -3.854011,-0.145432 l -3.85603,-0.03455 3.724199,-0.04164 c 3.529145,-0.03949 3.724201,-0.05606 3.724201,-0.316535 0,-0.187156 0.126213,-0.303185 0.39549,-0.363578 0.278688,-0.06251 0.395489,-0.174632 0.395489,-0.379672 0,-0.160034 0.118271,-0.383865 0.262822,-0.497402 0.144552,-0.113542 0.219593,-0.254905 0.166758,-0.314153 -0.05284,-0.05925 0.03802,-0.221134 0.201892,-0.359751 0.312873,-0.264643 0.530184,-1.058224 0.28978,-1.058224 -0.0762,0 -0.172692,0.09978 -0.214427,0.221745 -0.04174,0.121963 -0.158521,0.221746 -0.259523,0.221746 -0.101003,0 -0.185411,0.04989 -0.187574,0.110869 -0.0022,0.06098 -0.224936,0.397479 -0.495047,0.747776 -0.438881,0.569166 -0.52609,0.621259 -0.820003,0.489818 -0.230362,-0.103031 -0.259778,-0.149891 -0.09819,-0.156453 0.126886,-0.0052 0.230703,-0.103615 0.230703,-0.218799 0,-0.115184 0.06289,-0.232939 0.139785,-0.261674 0.07688,-0.02874 0.145234,-0.267115 0.151893,-0.529726 0.0067,-0.262611 0.06241,-0.477475 0.123873,-0.477475 0.06147,0 0.111768,-0.199571 0.111768,-0.443491 0,-0.304134 -0.06493,-0.44349 -0.206628,-0.44349 -0.144413,0 -0.18222,0.08624 -0.125563,0.286414 0.08176,0.288874 -0.166573,0.896228 -0.366449,0.896228 -0.05934,0 -0.07437,-0.06085 -0.03339,-0.135203 0.04098,-0.07437 0.0052,-0.161126 -0.07957,-0.192803 -0.184313,-0.06889 -0.271591,-0.55897 -0.09955,-0.55897 0.06609,0 0.120167,-0.07141 0.120167,-0.158668 0,-0.08728 -0.09818,-0.137161 -0.218161,-0.11087 -0.142304,0.03118 -0.233271,0.227695 -0.261624,0.5652 -0.06423,0.764572 -0.06148,0.908142 0.02882,1.505736 0.08139,0.538574 0.0765,0.545918 -0.425462,0.638764 -0.279287,0.05166 -0.834074,0.25301 -1.23286,0.447448 -0.687674,0.335289 -1.026747,0.274247 -0.673981,-0.121335 0.08065,-0.09046 0.146662,-0.28254 0.146662,-0.42686 0,-0.199887 -0.08636,-0.250422 -0.362534,-0.212125 -0.199393,0.02765 -0.258717,0.02136 -0.13183,-0.01397 0.255977,-0.07128 0.302772,-0.271952 0.09672,-0.414753 -0.188091,-0.130355 -0.02723,-0.371451 0.186469,-0.279493 0.119814,0.05156 0.165854,-0.03295 0.144435,-0.265159 -0.01729,-0.18746 -0.0409,-0.440625 -0.05247,-0.562585 -0.01636,-0.172603 -0.06732,-0.156221 -0.229926,0.07391 -0.197269,0.279188 -0.204994,0.259933 -0.138636,-0.345549 0.06929,-0.63228 0.06537,-0.639937 -0.281261,-0.549873 -0.26282,0.06829 -0.30163,0.05345 -0.15379,-0.05871 0.10876,-0.08254 0.61301,-0.163061 1.120557,-0.178954 l 0.922809,-0.02889 -0.988726,-0.09458 c -0.719611,-0.06881 -0.311547,-0.101808 1.499231,-0.121198 2.081781,-0.02229 2.463721,0.0062 2.339505,0.173949 -0.08533,0.115302 -0.113215,0.398138 -0.06557,0.665235 0.09173,0.514295 0.313574,0.633856 0.313574,0.168994 0,-0.164255 0.08789,-0.295659 0.197745,-0.295659 0.23733,0 0.259513,-0.315095 0.03955,-0.561755 -0.123041,-0.137975 0.153173,-0.177396 1.242969,-0.177396 1.098014,0 1.445987,-0.05027 1.608327,-0.232304 0.113939,-0.127767 0.207162,-0.204197 0.207162,-0.169844 0,0.184087 -0.944148,6.871058 -0.999357,7.077992 -0.05158,0.193341 0.0765,0.279363 0.605284,0.406534 0.368891,0.08872 0.786437,0.161298 0.927882,0.161298 0.141444,0 0.257171,0.0573 0.257171,0.127329 0,0.07003 -0.14865,0.09547 -0.330332,0.05653 -0.181684,-0.03895 -0.430365,0.02016 -0.552626,0.131372 -0.18951,0.172367 -0.20565,0.171227 -0.109447,-0.0077 0.08278,-0.15398 0.05867,-0.186599 -0.09046,-0.122421 -0.111818,0.04812 -0.269859,0.01286 -0.351201,-0.07836 -0.109306,-0.122565 -0.147894,-0.114824 -0.147894,0.02966 0,0.159189 -0.04131,0.157818 -0.222428,-0.0074 -0.19706,-0.179748 -0.211447,-0.170112 -0.126157,0.08448 0.09117,0.272157 0.08321,0.274115 -0.150486,0.03695 -0.305324,-0.309848 -0.47676,-0.322919 -0.376068,-0.02868 0.09381,0.274167 0.03078,0.284135 -0.160692,0.02543 z m -0.4143,-2.193593 c 0,-0.06776 -0.08898,-0.123191 -0.197745,-0.123191 -0.10876,0 -0.197745,0.05544 -0.197745,0.123191 0,0.06776 0.08898,0.123193 0.197745,0.123193 0.10876,0 0.197745,-0.05544 0.197745,-0.123193 z m 0.856895,0.02465 c 0.04481,-0.08131 0.02216,-0.14783 -0.05035,-0.14783 -0.07251,0 -0.168493,0.06653 -0.213305,0.14783 -0.04481,0.08131 -0.02216,0.147832 0.05035,0.147832 0.07251,0 0.168493,-0.06653 0.213305,-0.147832 z m -1.793069,-1.238505 c 0.118043,-0.159495 0.09612,-0.21971 -0.101098,-0.277539 -0.138514,-0.04063 -0.332566,-0.01549 -0.431224,0.05587 -0.149062,0.107786 -0.145958,0.154316 0.01837,0.275276 0.263919,0.194281 0.336073,0.186758 0.513956,-0.0536 z m -8.872897,-2.90075 c -0.01507,-0.24392 0.02051,-0.443491 0.07904,-0.443491 0.05854,0 0.106428,-0.06652 0.106428,-0.14783 0,-0.08131 -0.124994,-0.147828 -0.277765,-0.147828 -0.199123,0 -0.255111,0.06619 -0.197745,0.233835 0.04401,0.128608 0.08002,0.394704 0.08002,0.591321 0,0.196617 0.05342,0.357484 0.118699,0.357484 0.06528,0 0.106375,-0.19957 0.09132,-0.443491 z m -3.639616,-0.184784 c 10e-4,-0.06098 -0.0573,-0.11087 -0.129812,-0.11087 -0.07251,0 -0.130922,0.149678 -0.129811,0.332618 0.0016,0.268969 0.02648,0.290185 0.129811,0.11087 0.07028,-0.121959 0.128702,-0.271637 0.129812,-0.332618 z m 1.45215,0.102156 c 0,-0.117162 -0.05933,-0.213019 -0.13183,-0.213019 -0.07251,0 -0.131831,0.136973 -0.131831,0.304384 0,0.167413 0.05933,0.263273 0.131831,0.213022 0.07251,-0.05025 0.13183,-0.187225 0.13183,-0.304387 z m 1.492834,-0.17057 0.08057,-0.474956 -0.58896,0.01325 c -0.68905,0.01551 -0.809315,0.271416 -0.127556,0.271416 0.253774,0 0.454381,0.04989 0.445794,0.110871 -0.03045,0.216252 0.01633,0.676614 0.06259,0.615958 0.02584,-0.03388 0.08323,-0.275325 0.127554,-0.536552 z m 5.49416,0.25321 c 0,-0.162614 -0.05933,-0.295659 -0.13183,-0.295659 -0.07251,0 -0.131829,0.133045 -0.131829,0.295659 0,0.162614 0.05933,0.295662 0.131829,0.295662 0.07251,0 0.13183,-0.133048 0.13183,-0.295662 z M 15.412333,14.26135 c 0,-0.07651 -0.05932,-0.139105 -0.131831,-0.139105 -0.07251,0 -0.13183,0.103715 -0.13183,0.230471 0,0.126758 0.05933,0.189355 0.13183,0.139103 0.07251,-0.05025 0.131831,-0.153961 0.131831,-0.230469 z m 9.277986,-0.176063 c 0.06574,-0.307315 0.0383,-0.406531 -0.112457,-0.406531 -0.135313,0 -0.181654,0.106944 -0.144139,0.332618 0.03041,0.182939 0.0597,0.393595 0.06509,0.468129 0.01553,0.214934 0.09711,0.04703 0.191507,-0.394216 z m 4.168682,-0.04568 c 0,-0.232882 -0.07513,-0.360851 -0.211851,-0.360851 -0.139018,0 -0.184338,0.08039 -0.131829,0.233837 0.04401,0.128609 0.08002,0.332106 0.08002,0.452213 0,0.12011 0.05932,0.177267 0.13183,0.127015 0.07251,-0.05025 0.131831,-0.253746 0.13183,-0.452214 z m 0.659149,0.230469 c 0,-0.162613 -0.05376,-0.295657 -0.119488,-0.295657 -0.06572,0 -0.08847,0.133044 -0.05054,0.295657 0.03792,0.162615 0.0917,0.295661 0.119489,0.295661 0.02779,0 0.05054,-0.133046 0.05054,-0.295661 z m -15.55595,0.08265 c 0,-0.03586 -0.05933,-0.106306 -0.131828,-0.156557 -0.07251,-0.05025 -0.131832,-0.0209 -0.131832,0.06519 0,0.08611 0.05933,0.156555 0.131832,0.156555 0.07251,0 0.131828,-0.02934 0.131828,-0.06519 z m 2.966178,-0.08265 c 0.04481,-0.08131 0.01864,-0.147828 -0.05813,-0.147828 -0.07679,0 -0.13961,0.06652 -0.13961,0.147828 0,0.08132 0.02616,0.14783 0.05813,0.14783 0.03198,0 0.09479,-0.06653 0.13961,-0.14783 z m 6.986995,0 c 0.04481,-0.08131 0.01864,-0.147828 -0.05813,-0.147828 -0.07679,0 -0.13961,0.06652 -0.13961,0.147828 0,0.08132 0.02616,0.14783 0.05813,0.14783 0.03198,0 0.0948,-0.06653 0.13961,-0.14783 z m 4.072626,-0.233835 c 0.113069,-0.33041 0.104152,-0.357485 -0.117724,-0.357485 -0.109858,0 -0.197744,0.131404 -0.197744,0.295662 0,0.352464 0.202435,0.392134 0.315468,0.06182 z M 12.38024,13.826577 c 0,-0.08131 -0.08898,-0.147829 -0.197745,-0.147829 -0.10876,0 -0.197746,0.06652 -0.197746,0.147829 0,0.08132 0.08898,0.14783 0.197746,0.14783 0.108759,0 0.197745,-0.06652 0.197745,-0.14783 z m 0.79098,0 c 0,-0.08131 -0.08898,-0.147829 -0.197745,-0.147829 -0.10876,0 -0.197745,0.06652 -0.197745,0.147829 0,0.08132 0.08898,0.14783 0.197745,0.14783 0.108761,0 0.197745,-0.06652 0.197745,-0.14783 z m 0.856896,0 c -0.04481,-0.08131 -0.166961,-0.147829 -0.271441,-0.147829 -0.104481,0 -0.189965,0.06652 -0.189965,0.147829 0,0.08132 0.122149,0.14783 0.271441,0.14783 0.149293,0 0.234777,-0.06652 0.189965,-0.14783 z m 0.725066,0 c 0,-0.08131 -0.08898,-0.147829 -0.197745,-0.147829 -0.10876,0 -0.197745,0.06652 -0.197745,0.147829 0,0.08132 0.08898,0.14783 0.197745,0.14783 0.108759,0 0.197745,-0.06652 0.197745,-0.14783 z m 0.79098,0 c 0,-0.08131 -0.08548,-0.147829 -0.189965,-0.147829 -0.10448,0 -0.226629,0.06652 -0.271441,0.147829 -0.04481,0.08132 0.04068,0.14783 0.189966,0.14783 0.149291,0 0.27144,-0.06652 0.27144,-0.14783 z m 0.79098,0 c 0,-0.08131 -0.118646,-0.147829 -0.263659,-0.147829 -0.145013,0 -0.263661,0.06652 -0.263661,0.147829 0,0.08132 0.118648,0.14783 0.263661,0.14783 0.145013,0 0.263659,-0.06652 0.263659,-0.14783 z m 6.986995,0 c 0,-0.08131 -0.118647,-0.147829 -0.26366,-0.147829 -0.145013,0 -0.263661,0.06652 -0.263661,0.147829 0,0.08132 0.118648,0.14783 0.263661,0.14783 0.145013,0 0.26366,-0.06652 0.26366,-0.14783 z m 0.725065,0 c -0.04481,-0.08131 -0.16696,-0.147829 -0.27144,-0.147829 -0.104481,0 -0.189965,0.06652 -0.189965,0.147829 0,0.08132 0.122149,0.14783 0.271441,0.14783 0.149292,0 0.234776,-0.06652 0.189964,-0.14783 z m -9.096275,3.843584 c 0.04482,-0.08131 0.162017,-0.147829 0.260453,-0.147829 0.09844,0 0.208903,-0.08316 0.245473,-0.184789 0.04038,-0.112247 0.07058,-0.08514 0.07691,0.06908 0.0091,0.221245 0.200952,0.259919 1.493497,0.301019 l 1.483088,0.04715 -1.820444,0.03157 c -1.186979,0.02061 -1.792093,-0.01985 -1.738968,-0.116234 z m 4.492277,-1.202834 c -0.103676,-0.876387 -0.09059,-0.959435 0.141703,-0.899616 0.224328,0.05777 0.1047,-0.879469 -0.131148,-1.027475 -0.109192,-0.06852 -0.158323,-0.260011 -0.121753,-0.474529 0.04457,-0.26144 -0.0052,-0.378878 -0.182434,-0.430071 -0.13406,-0.03874 0.230845,-0.07041 0.810897,-0.07041 0.580053,0 0.950825,0.03041 0.823938,0.0676 -0.308817,0.09051 -0.29496,0.341588 0.01885,0.341588 0.137257,0 0.283703,-0.09978 0.325438,-0.221744 0.04174,-0.121961 0.211221,-0.21403 0.376638,-0.204597 0.223286,0.01273 0.241331,0.03455 0.07005,0.08475 -0.397704,0.116552 -0.251465,0.341588 0.221973,0.341588 0.419139,0 0.447923,0.02938 0.388536,0.396636 -0.03526,0.21815 -0.123167,0.500875 -0.19531,0.628279 -0.0998,0.176229 -0.110518,0.147647 -0.04483,-0.119489 0.05856,-0.238202 0.0394,-0.318599 -0.05962,-0.249976 -0.08868,0.06145 -0.145954,-0.01832 -0.145954,-0.203235 0,-0.167412 -0.06282,-0.304385 -0.139611,-0.304385 -0.07679,0 -0.105832,0.06129 -0.06454,0.136192 0.07492,0.135947 0.161032,0.627185 0.293552,1.674727 0.05549,0.438646 0.02596,0.558221 -0.141461,0.572842 -0.422267,0.03688 -0.466815,0.0599 -0.645193,0.333455 -0.121161,0.185809 -0.400954,0.301687 -0.843603,0.349383 l -0.662314,0.07138 z m 0.656055,-2.332463 c -0.04098,-0.07437 6e-6,-0.165041 0.0911,-0.201507 0.324629,-0.129965 -0.02664,-0.287996 -0.388529,-0.174794 -0.273183,0.08546 -0.308918,0.131147 -0.137969,0.176423 0.126886,0.0336 0.230701,0.122747 0.230701,0.198091 0,0.07535 0.06282,0.136991 0.139611,0.136991 0.07679,0 0.106078,-0.06084 0.06509,-0.135204 z M 17.100725,13.27259 c 0.892364,-0.02562 2.316129,-0.02554 3.163923,1.49e-4 0.847794,0.0257 0.117677,0.04666 -1.622479,0.04657 -1.740157,-9.6e-5 -2.433806,-0.02113 -1.541444,-0.04675 z m 11.574092,-0.347588 c -1.510488,-0.178599 -1.516165,-0.24609 -0.01655,-0.196676 0.781865,0.02577 1.334349,0.107371 1.362244,0.201222 0.02582,0.08682 -0.03217,0.149031 -0.128843,0.138215 -0.09668,-0.01087 -0.644258,-0.07506 -1.21685,-0.142761 z m -12.636293,-0.5268 c 0.09064,-0.04101 0.238943,-0.04101 0.329577,0 0.09064,0.04101 0.01648,0.07457 -0.164788,0.07457 -0.181267,0 -0.255421,-0.03356 -0.164789,-0.07457 z M 14.17689,12.130321 c 0.04245,-0.124044 0.01909,-0.225535 -0.05191,-0.225535 -0.071,0 -0.169195,-0.28127 -0.218217,-0.625039 -0.07137,-0.500451 -0.04342,-0.662521 0.140178,-0.813067 0.12612,-0.103401 0.165249,-0.188024 0.08696,-0.188024 -0.156559,0 -0.256578,-0.49935 -0.370129,-1.8478768 -0.04108,-0.4878399 -0.02808,-0.8146227 0.02892,-0.7261841 0.167737,0.26034 0.690432,0.3620728 0.606955,0.118132 -0.04651,-0.135913 0.02609,-0.2050151 0.215389,-0.2050151 0.15705,0 0.248882,0.06653 0.20407,0.1478315 -0.04481,0.081315 0.04068,0.1478303 0.189963,0.1478303 0.149293,0 0.271441,-0.066531 0.271441,-0.1478303 0,-0.081315 0.122149,-0.1478315 0.271441,-0.1478315 0.149294,0 0.234776,0.06653 0.189965,0.1478315 -0.04481,0.081315 0.03573,0.1478303 0.178978,0.1478303 0.143252,0 0.29506,-0.083158 0.337356,-0.184788 0.06151,-0.1478303 0.09228,-0.1478303 0.153801,0 0.09121,0.2191746 0.582251,0.2503445 0.582251,0.036961 0,-0.081315 0.08898,-0.1478293 0.197745,-0.1478293 0.108759,0 0.197746,0.066519 0.197746,0.1478293 0,0.081315 0.122148,0.1478304 0.27144,0.1478304 0.149292,0 0.234776,-0.066531 0.189964,-0.1478304 -0.04481,-0.081315 0.01101,-0.1478293 0.12405,-0.1478293 0.113038,0 0.205525,0.066519 0.205525,0.1478293 0,0.081315 0.08898,0.1478304 0.197746,0.1478304 0.108759,0 0.197744,-0.079822 0.197744,-0.1773957 0,-0.1379745 0.03516,-0.1379745 0.158197,0 0.206527,0.2315943 0.592726,0.2273805 0.677678,-0.00735 0.09857,-0.2724219 0.34506,0.166796 0.352587,0.6282766 0.0053,0.3236821 0.02278,0.3373059 0.140984,0.1097058 0.07423,-0.1429307 0.09858,-0.3258708 0.05413,-0.4065334 -0.121096,-0.2197145 0.101336,-0.1768068 0.432716,0.083472 0.161147,0.1265713 0.292995,0.1643155 0.292995,0.083879 0,-0.08044 -0.118649,-0.1884769 -0.263662,-0.2400885 -0.270564,-0.096295 -0.368045,-0.3695731 -0.131829,-0.3695731 0.07251,0 0.131828,0.066531 0.131828,0.1478315 0,0.081315 0.08898,0.1478292 0.197745,0.1478292 0.10876,0 0.197746,-0.066531 0.197746,-0.1478292 0,-0.081315 0.08898,-0.1478315 0.197745,-0.1478315 0.169454,0 0.270754,0.3684834 0.213356,0.7761077 -0.0085,0.060985 0.04371,0.110872 0.11622,0.110872 0.07251,0 0.132738,-0.1164218 0.133849,-0.2587027 0.001,-0.1422862 0.06043,-0.3584876 0.131829,-0.4804465 0.106113,-0.1812655 0.150497,-0.1858057 0.243125,-0.024871 0.06232,0.1082827 0.09956,0.3411134 0.08275,0.517405 -0.01681,0.1762933 -0.03815,0.4118312 -0.04741,0.523421 -0.01355,0.1634615 -0.05525,0.1671272 -0.21457,0.018854 -0.159422,-0.1483686 -0.198136,-0.1447122 -0.199763,0.018853 -0.0016,0.1617244 -0.02691,0.1587405 -0.124738,-0.014717 -0.103417,-0.1833786 -0.137932,-0.1731482 -0.219444,0.065046 -0.05504,0.1608502 -0.03795,0.3046209 0.03967,0.3336329 0.07501,0.028034 0.108565,0.2141937 0.07456,0.4136739 -0.034,0.1994826 -0.106441,0.3317789 -0.160966,0.2939905 -0.05453,-0.037792 -0.203979,0.061204 -0.33212,0.2199813 -0.282329,0.349834 -0.463843,0.264129 -0.362347,-0.1710942 0.05091,-0.2182901 0.02626,-0.2853244 -0.07829,-0.2128727 -0.08393,0.058177 -0.152596,0.2681409 -0.152596,0.4666079 0,0.234306 -0.075,0.360851 -0.213887,0.360851 -0.175175,0 -0.184183,-0.04014 -0.04977,-0.221745 0.11159,-0.150777 0.117229,-0.221746 0.01761,-0.221746 -0.08057,0 -0.134221,-0.166309 -0.119219,-0.3695752 0.02673,-0.3620809 0.233431,-0.5366208 0.233431,-0.1971063 0,0.094857 0.02769,0.1414046 0.06155,0.1034462 0.03385,-0.037958 0.0092,-0.265253 -0.05457,-0.5050868 -0.06389,-0.2398315 -0.12124,-0.3529055 -0.127471,-0.2512706 -0.01621,0.2642213 -0.274992,0.2294409 -0.274992,-0.036949 0,-0.2857636 -0.21296,-0.2874715 -0.31048,-0.00247 -0.04269,0.1247579 -0.162406,0.181655 -0.277765,0.1320131 -0.111504,-0.047984 -0.202735,-0.011539 -0.202735,0.081052 0,0.092558 0.08898,0.2065762 0.197744,0.2533754 0.108761,0.046806 0.197746,0.2039052 0.197746,0.3491201 0,0.2815688 -0.336223,0.5020141 -0.544992,0.3573291 -0.06914,-0.047923 -0.214609,-0.0044 -0.323266,0.09674 -0.149639,0.139259 -0.234575,0.142346 -0.350165,0.01273 -0.08394,-0.09413 -0.103821,-0.1711308 -0.04418,-0.1711308 0.05963,0 0.03457,-0.099778 -0.05569,-0.2217467 -0.135119,-0.1825677 -0.123833,-0.221745 0.06388,-0.221745 0.153738,0 0.201931,-0.076163 0.147972,-0.2338357 -0.04401,-0.1286086 -0.08002,-0.2807626 -0.08002,-0.3381161 0,-0.1999294 -0.506561,-0.1454281 -0.577593,0.062146 -0.0399,0.1165864 -0.161313,0.1705545 -0.274312,0.1219274 -0.111506,-0.047972 -0.202735,-0.011539 -0.202735,0.081042 0,0.092558 0.08898,0.2065762 0.197745,0.2533744 0.254126,0.1093557 0.255339,0.4405356 0.002,0.5495445 -0.115055,0.04951 -0.252815,-0.03538 -0.334215,-0.2059292 -0.07617,-0.1595842 -0.228883,-0.2901552 -0.339372,-0.2901552 -0.110489,0 -0.168378,-0.058984 -0.128644,-0.1310802 0.08826,-0.1601202 -0.245231,-0.4951929 -0.362243,-0.3639771 -0.04596,0.051538 -0.173976,0.00953 -0.284488,-0.093309 -0.110513,-0.1028519 -0.200932,-0.1446863 -0.200932,-0.092973 0,0.1894586 0.335917,0.7570067 0.560278,0.9466178 0.126887,0.1072362 0.230702,0.3012929 0.230702,0.4312439 0,0.206049 -0.03373,0.202044 -0.263661,-0.0313 -0.257442,-0.2612601 -0.263658,-0.2582075 -0.263658,0.129558 0,0.244711 0.08854,0.432337 0.230702,0.48887 0.126886,0.05045 0.330929,0.188088 0.453428,0.305836 0.147232,0.141527 0.404165,0.19059 0.758022,0.144754 0.294414,-0.03813 0.535298,-0.01154 0.535298,0.0591 0,0.07063 -0.266956,0.128437 -0.593235,0.128437 -0.570598,0 -0.797427,0.217074 -0.403814,0.386449 0.104181,0.04483 0.156578,0.177488 0.116433,0.294794 -0.0533,0.155766 -0.118761,0.170683 -0.242725,0.05531 -0.09336,-0.08688 -0.308893,-0.125947 -0.478969,-0.0868 -0.170074,0.03913 -0.708381,0.110231 -1.196239,0.157987 -0.760617,0.07444 -0.876016,0.05468 -0.809835,-0.138713 z m -0.124635,-1.288064 c -0.04208,-0.117928 -0.07332,-0.08289 -0.07965,0.08932 -0.0057,0.155836 0.02543,0.243148 0.06923,0.194027 0.0438,-0.04911 0.04849,-0.176628 0.01041,-0.283341 z m 0.569096,-0.120111 c 0,-0.08132 -0.02616,-0.147829 -0.05813,-0.147829 -0.03198,0 -0.09479,0.06652 -0.139611,0.147829 -0.04481,0.08131 -0.01864,0.147829 0.05813,0.147829 0.07679,0 0.13961,-0.06653 0.139611,-0.147829 z M 16.766222,8.8668619 C 16.885358,8.815604 16.932495,8.6523227 16.89376,8.4250933 16.85995,8.2268506 16.778805,8.101732 16.713407,8.1470553 c -0.0654,0.045321 -0.08477,0.1443352 -0.04306,0.2200237 0.04172,0.07568 0.01936,0.1376136 -0.04966,0.1376136 -0.06903,0 -0.159652,0.09978 -0.201388,0.2217464 -0.07956,0.2324737 0.02998,0.2768093 0.346922,0.1404229 z M 15.148672,8.495968 c 0,-0.1674109 -0.05673,-0.2650646 -0.126073,-0.2170106 -0.06935,0.048052 -0.09265,0.1850297 -0.05181,0.3043853 0.104571,0.305582 0.177884,0.2695716 0.177884,-0.087373 z m -0.988727,0.00877 c 0.04481,-0.081313 0.01865,-0.14783 -0.05813,-0.14783 -0.07679,0 -0.139611,0.066532 -0.139611,0.14783 0,0.081312 0.02616,0.1478287 0.05813,0.1478287 0.03198,0 0.0948,-0.066531 0.139611,-0.1478287 z M 18.472988,8.181975 C 18.272029,7.9566268 18.149621,8.093886 18.26108,8.4195999 c 0.06131,0.1791782 0.127513,0.2068777 0.227214,0.095078 0.0997,-0.1118049 0.09524,-0.208733 -0.01531,-0.3327 z m -2.401505,0.1749435 c 0,-0.081312 -0.05932,-0.1478305 -0.131831,-0.1478305 -0.07251,0 -0.13183,0.066531 -0.13183,0.1478305 0,0.081312 0.05932,0.147829 0.13183,0.147829 0.07251,0 0.131831,-0.066532 0.131831,-0.147829 z m 2.022942,-0.080297 c -0.04295,-0.1254669 -0.106338,-0.1964159 -0.140893,-0.1576651 -0.03456,0.038746 -0.02373,0.1414049 0.02408,0.2281199 0.129991,0.2358576 0.205968,0.1900381 0.116828,-0.070465 z m -0.440982,-0.067533 c 0,-0.081315 -0.05933,-0.1478316 -0.13183,-0.1478316 -0.07251,0 -0.13183,0.066531 -0.13183,0.1478316 0,0.081315 0.05932,0.1478311 0.13183,0.1478311 0.07251,0 0.13183,-0.066531 0.13183,-0.1478311 z m 1.712129,0.00432 c 0.154105,-0.1092628 0.132937,-0.1336894 -0.09887,-0.1141129 -0.162225,0.0137 -0.294956,0.07728 -0.294956,0.1412847 0,0.1542616 0.152792,0.143716 0.393828,-0.027179 z m 4.549801,3.9871255 c -0.04481,-0.08131 -0.448748,-0.160411 -0.897635,-0.175781 l -0.816157,-0.02795 0.79098,-0.05408 c 0.813597,-0.05564 1.202057,-0.250986 0.823218,-0.414005 -0.183496,-0.07897 -0.176707,-0.12707 0.05451,-0.386355 0.24845,-0.278607 0.274017,-0.28097 0.431212,-0.03989 0.160074,0.245484 0.546136,0.171787 0.408481,-0.07797 -0.03662,-0.06646 0.05139,-0.155408 0.195595,-0.197692 0.144197,-0.04228 0.262177,-0.176667 0.262177,-0.298628 0,-0.150825 -0.08649,-0.196379 -0.270468,-0.142432 -0.223777,0.06563 -0.263205,0.01857 -0.228389,-0.272541 0.02314,-0.1935218 0.144487,-0.5157518 0.269655,-0.7160652 0.20497,-0.3280329 0.206998,-0.377123 0.02042,-0.4942175 -0.152905,-0.095954 -0.308076,-0.00336 -0.592422,0.353877 -0.21189,0.2661367 -0.385255,0.5439703 -0.385255,0.617407 0,0.073449 -0.07416,0.1044546 -0.164786,0.068927 -0.193382,-0.075817 -0.13999,-0.5746702 0.07909,-0.7389416 0.106859,-0.080122 0.08119,-0.1741183 -0.08698,-0.3184272 -0.131224,-0.1126082 -0.18338,-0.2430064 -0.1159,-0.289775 0.06748,-0.04677 0.158533,-0.2859842 0.202339,-0.5315967 0.05223,-0.2928751 0.16018,-0.4481139 0.313645,-0.4510628 0.223846,-0.00432 0.223827,-0.011079 -3.95e-4,-0.1575136 -0.128947,-0.08419 -1.04846,-0.2053544 -2.043376,-0.2692831 -1.22322,-0.078598 -1.504695,-0.1233311 -0.86931,-0.1381459 0.571961,-0.013338 0.99108,-0.094221 1.071126,-0.2066987 0.206305,-0.2899024 0.103935,-0.8894579 -0.175343,-1.0269647 -0.214312,-0.1055208 -0.205795,-0.1144979 0.05515,-0.05817 0.270461,0.058392 0.298661,0.022224 0.22819,-0.292627 -0.0734,-0.3277607 -0.0411,-0.3592477 0.368455,-0.3592477 0.380946,0 0.481102,-0.076101 0.661662,-0.5027894 0.117026,-0.2765335 0.21277,-0.6847454 0.21277,-0.9071385 V 3.2903231 l -0.313916,0.3527774 c -0.172652,0.1940273 -0.338223,0.485823 -0.367935,0.6484365 -0.03709,0.2030015 -0.145288,0.2846246 -0.345237,0.260445 -0.200156,-0.024203 -0.291845,0.045134 -0.293232,0.2217455 -0.0016,0.2184273 -0.02066,0.2238933 -0.126345,0.036449 -0.06837,-0.1212835 -0.09155,-0.3669672 -0.05149,-0.5459613 0.105433,-0.4710606 -0.04255,-0.6730746 -0.355471,-0.4852757 -0.177474,0.1065077 -0.25566,0.3100723 -0.25566,0.6656347 0,0.2817121 -0.05746,0.5122048 -0.127693,0.5122048 -0.07023,0 -0.0978,-0.087354 -0.06127,-0.1941168 0.03654,-0.1067611 -0.06298,-0.3229644 -0.221143,-0.4804471 -0.206094,-0.2052075 -0.3039,-0.233978 -0.34521,-0.1015456 -0.0317,0.101633 -0.156514,0.1869032 -0.277358,0.189489 -0.276729,0.00593 -0.70581,0.3618277 -0.591186,0.4903648 0.04722,0.052947 -0.0951,0.09625 -0.316249,0.09625 -0.291215,0 -0.421097,-0.081524 -0.471036,-0.2956606 -0.03792,-0.1626135 -0.01517,-0.2956602 0.05054,-0.2956602 0.06572,0 0.119487,-0.099785 0.119487,-0.2217453 0,-0.1219602 -0.10381,-0.2170698 -0.230702,-0.2113544 -0.28564,0.012863 -0.820224,0.2605665 -0.593235,0.27488 0.236254,0.014892 0.204379,0.4538799 -0.03296,0.4538799 -0.108759,0 -0.198652,0.083159 -0.199763,0.1847879 -0.0013,0.1268057 -0.04002,0.1174243 -0.123132,-0.029896 -0.0666,-0.1180777 -0.09228,-0.266994 -0.05705,-0.3309242 0.03524,-0.063931 -0.028,-0.076621 -0.140529,-0.028204 -0.141532,0.060906 -0.204592,-2.956e-4 -0.204592,-0.1984575 0,-0.3018311 -0.592346,-0.7563064 -0.752163,-0.5770941 -0.07203,0.080775 0.237341,0.9020743 0.587028,1.5584002 0.01794,0.033661 0.270061,0.050765 0.560278,0.038022 0.516826,-0.022712 0.527668,-0.012802 0.527668,0.4823142 0,0.3560426 0.0682,0.5263317 0.230703,0.5759482 0.126886,0.038746 -0.391218,0.060257 -1.151344,0.047804 L 16.405384,6.3611609 16.257978,5.1785204 C 16.176902,4.5280655 16.077758,3.713152 16.037652,3.3675992 l -0.07292,-0.6282773 h 0.514776 c 0.283126,0 0.514775,0.066524 0.514775,0.1478301 0,0.2121479 0.359012,0.1826913 0.450422,-0.036961 0.06151,-0.14783 0.09228,-0.14783 0.153801,0 0.09933,0.2386733 0.410828,0.2386733 0.488868,0 0.04833,-0.14783 0.09536,-0.14783 0.235098,0 0.09607,0.1016319 0.276513,0.184788 0.400984,0.184788 0.124467,0 0.25623,-0.083159 0.292801,-0.184788 0.05319,-0.14783 0.06858,-0.14783 0.07691,0 0.0057,0.1016319 0.09445,0.184788 0.197166,0.184788 0.10272,0 0.216682,-0.083159 0.253253,-0.184788 0.05319,-0.14783 0.06858,-0.14783 0.0769,0 0.01352,0.2399787 0.363958,0.2399787 0.450792,0 0.04821,-0.1332257 0.09725,-0.1387861 0.175773,-0.019925 0.0599,0.090669 0.256752,0.2166862 0.437451,0.280026 0.294226,0.1031333 0.309751,0.08977 0.148645,-0.1279047 -0.154351,-0.2085532 -0.149522,-0.2430698 0.03399,-0.2430698 0.125998,0 0.213887,0.1214868 0.213887,0.2956602 0,0.1626135 0.05932,0.2956602 0.131829,0.2956602 0.07251,0 0.131829,-0.1330467 0.131829,-0.2956602 0,-0.1642549 0.08789,-0.2956602 0.197746,-0.2956602 0.123041,0 0.197744,0.1396168 0.197744,0.3695752 0,0.4939809 0.212323,0.4712426 0.3256,-0.034865 0.08247,-0.3684755 0.102699,-0.3800569 0.227373,-0.1302253 0.09847,0.1972993 0.09247,0.304975 -0.02137,0.3838704 -0.116856,0.080984 -0.107432,0.1315079 0.03604,0.1932466 0.135739,0.058408 0.217505,-0.046732 0.271417,-0.3490037 0.09731,-0.5456199 0.417626,-0.55992 0.583827,-0.026061 l 0.126562,0.4065324 0.09646,-0.4065324 c 0.121621,-0.5125684 0.463368,-0.5398268 0.463368,-0.036961 0,0.2032667 0.0529,0.3695753 0.117539,0.3695753 0.06465,0 0.154762,-0.1663086 0.200256,-0.3695753 0.05189,-0.2317864 0.175987,-0.3695754 0.332882,-0.3695754 0.137589,0 0.280084,-0.083156 0.316655,-0.1847871 0.03657,-0.1016329 0.07131,0.7132799 0.07718,1.8109183 l 0.01068,1.9957074 -0.824214,-0.040867 c -0.827117,-0.041007 -1.410465,0.1594703 -1.516899,0.5213147 -0.0408,0.1387078 0.243209,0.1847868 1.138965,0.1847868 1.081586,0 1.185215,0.02423 1.106755,0.2587031 -0.04761,0.1422862 -0.163291,0.3252261 -0.257064,0.4065324 -0.107899,0.093557 -0.128125,0.2231459 -0.05509,0.3529655 0.0952,0.1692246 0.16114,0.156286 0.376673,-0.07391 0.14369,-0.1534772 0.30228,-0.4287278 0.352417,-0.6116676 0.08113,-0.2960723 0.177084,-0.3326184 0.873252,-0.3326184 0.430153,0 0.782097,-0.058764 0.782097,-0.1305881 0,-0.071822 0.103821,-0.161057 0.230702,-0.1982944 0.217882,-0.063954 0.221643,0.084206 0.06766,2.6663802 -0.08967,1.5037459 -0.188394,2.7625159 -0.219382,2.7972649 -0.03099,0.03475 -0.715201,0.0063 -1.520473,-0.06322 -1.16777,-0.100814 -1.451086,-0.08826 -1.399674,0.06197 0.07651,0.223559 -0.0089,0.251243 -0.125011,0.04054 z m 2.307026,-0.591319 c 0,-0.08132 -0.08898,-0.147832 -0.197746,-0.147832 -0.108759,0 -0.197744,0.06652 -0.197744,0.147832 0,0.08131 0.08898,0.147831 0.197744,0.147831 0.10876,0 0.197746,-0.06653 0.197746,-0.147831 z m 0.269703,-0.57866 c -0.172202,-0.360813 -0.310617,-0.387543 -0.522723,-0.100946 -0.123525,0.166901 -0.08166,0.235072 0.214559,0.349338 0.453671,0.174999 0.494516,0.142079 0.308164,-0.248386 z M 26.222399,9.8352498 c 0.170415,-0.1234986 0.166935,-0.1436159 -0.02517,-0.145567 -0.122608,-0.00112 -0.259587,0.064266 -0.304398,0.145567 -0.103114,0.1870942 0.0714,0.1870942 0.329575,0 z M 25.61313,8.024305 c 0.06586,-0.3078766 0.03838,-0.4065335 -0.113286,-0.4065335 -0.221129,0 -0.234348,0.063954 -0.115798,0.5602262 0.09495,0.3974852 0.113882,0.384786 0.229084,-0.1536927 z m 0.741099,0.1847879 c 0,-0.1626136 -0.05564,-0.2956607 -0.123637,-0.2956607 -0.068,0 -0.114699,0.1330471 -0.103779,0.2956607 0.01093,0.1626128 0.06656,0.2956595 0.123637,0.2956595 0.05708,0 0.103779,-0.1330467 0.103779,-0.2956595 z m -9.69198,-3.6121492 c -0.07162,-1.178382 -0.139634,-1.5619635 -0.276939,-1.5619635 -0.219986,0 -0.220916,-0.095833 0.01575,1.6261311 0.106159,0.7724124 0.194079,1.4653654 0.19538,1.5398973 0.0012,0.074539 0.038,0.095551 0.08156,0.046708 0.04356,-0.048854 0.03647,-0.7916902 -0.01574,-1.6507706 z m 7.49618,0.3293259 c 0.08724,-0.3740973 0.03321,-0.4848564 -0.168371,-0.3451526 -0.169187,0.1172542 -0.189117,0.671315 -0.02414,0.671315 0.06405,0 0.150682,-0.1467741 0.192516,-0.3261624 z m -6.900476,0.030502 c 0,-0.081315 -0.06282,-0.1478293 -0.139611,-0.1478293 -0.07679,0 -0.102947,0.066519 -0.05813,0.1478293 0.04481,0.081315 0.107635,0.1478303 0.13961,0.1478303 0.03198,0 0.05813,-0.066531 0.05813,-0.1478303 z m 3.427582,-1.1826402 c 0,-0.1626126 0.0045,-0.3438893 0.0099,-0.4028373 0.0055,-0.058944 -0.05394,-0.1310282 -0.131919,-0.1601826 -0.08171,-0.030539 -0.107579,0.04702 -0.06106,0.1829735 0.04441,0.1297909 0.0075,0.33492 -0.08197,0.4558448 -0.13265,0.1792306 -0.123194,0.2198616 0.05117,0.2198616 0.125998,0 0.213885,-0.1214865 0.213885,-0.29566 z m 0.39549,-0.1478301 c 0,-0.081309 -0.02616,-0.1478302 -0.05813,-0.1478302 -0.03198,0 -0.0948,0.066524 -0.139611,0.1478302 -0.04481,0.081309 -0.01864,0.1478301 0.05813,0.1478301 0.07679,0 0.13961,-0.066524 0.139611,-0.1478301 z M 18.708083,3.3953671 c 0,-0.2392819 -0.02541,-0.2490714 -0.318791,-0.1228255 -0.289269,0.1244746 -0.260753,0.2864296 0.05514,0.3131128 0.150622,0.012729 0.26366,-0.068858 0.263659,-0.1902873 z m 1.350439,0.1327203 c -0.09109,-0.041183 -0.132077,-0.1357121 -0.0911,-0.2100739 0.04097,-0.074363 0.01168,-0.1352039 -0.06509,-0.1352039 -0.07679,0 -0.139611,0.099785 -0.139611,0.2217451 0,0.1219604 0.10382,0.216493 0.230702,0.2100741 0.13918,-0.00707 0.165004,-0.041373 0.06509,-0.086545 z m -2.800569,-0.197447 c 0,-0.081309 -0.02616,-0.14783 -0.05813,-0.14783 -0.03198,0 -0.0948,0.066524 -0.13961,0.14783 -0.04481,0.081309 -0.01865,0.1478301 0.05813,0.1478301 0.07679,0 0.139612,-0.066524 0.13961,-0.1478301 z m 0.725065,0 c 0.04481,-0.081309 0.01864,-0.14783 -0.05813,-0.14783 -0.07679,0 -0.13961,0.066524 -0.13961,0.14783 0,0.081309 0.02616,0.1478301 0.05813,0.1478301 0.03198,0 0.0948,-0.066524 0.13961,-0.1478301 z m 1.318301,0 c 0.04481,-0.081309 0.01864,-0.14783 -0.05813,-0.14783 -0.07679,0 -0.139611,0.066524 -0.139611,0.14783 0,0.081309 0.02616,0.1478301 0.05813,0.1478301 0.03198,0 0.0948,-0.066524 0.139611,-0.1478301 z m -0.617952,8.6209926 c 0.09516,-0.0427 0.208866,-0.03746 0.252674,0.01168 0.04381,0.04912 -0.03405,0.08405 -0.173028,0.07763 -0.153575,-0.0072 -0.184812,-0.04212 -0.07965,-0.08931 z m 1.17823,-0.0079 c 0.38066,-0.02987 1.003557,-0.02987 1.384216,0 0.38066,0.02987 0.06921,0.0543 -0.692108,0.0543 -0.761318,0 -1.072767,-0.02445 -0.692108,-0.0543 z M 18.279636,11.3635 c 0.09064,-0.04101 0.238943,-0.04101 0.329575,0 0.09064,0.04101 0.01648,0.07457 -0.164786,0.07457 -0.181268,0 -0.255423,-0.03356 -0.164789,-0.07457 z m 0.56018,-0.01296 c -1.14e-4,-0.131618 1.293379,-0.114287 1.412168,0.01893 0.04511,0.05059 -0.254163,0.09194 -0.665032,0.09194 -0.410871,0 -0.747082,-0.04989 -0.747136,-0.11087 z m 1.609211,0.03116 c 0.102511,-0.114952 2.203438,-0.129183 2.304717,-0.01561 0.04676,0.05242 -0.468671,0.09532 -1.145398,0.09532 -0.676727,0 -1.198422,-0.03587 -1.159319,-0.07972 z m 2.576492,-0.01818 c 0.09064,-0.04101 0.238943,-0.04101 0.329576,0 0.09064,0.04101 0.01648,0.07457 -0.164788,0.07457 -0.181268,0 -0.255422,-0.03356 -0.164788,-0.07457 z m -4.976586,-0.894659 c 0.10876,-0.04523 0.316393,-0.150647 0.461406,-0.234278 0.235694,-0.135928 0.244467,-0.125969 0.08274,0.09388 -0.09952,0.135272 -0.307145,0.240696 -0.461406,0.234277 -0.192592,-0.0079 -0.218514,-0.03745 -0.08274,-0.09388 z m 3.763009,-0.03164 c -0.04184,-0.07592 -0.01562,-0.179908 0.05828,-0.231115 0.09044,-0.06269 0.0877,-0.190802 -0.0083,-0.3920885 -0.108112,-0.2265243 -0.0978,-0.3587012 0.04256,-0.5453911 0.101887,-0.1355219 0.192959,-0.4127141 0.202391,-0.6159806 0.034,-0.7328867 0.160822,-1.0348109 0.434652,-1.0348109 0.14791,0 0.240971,0.050719 0.206799,0.1127255 -0.03418,0.061995 0.01279,0.2696983 0.10435,0.4615518 l 0.166479,0.3488231 0.08232,-0.4615508 c 0.130069,-0.7292785 0.638318,-0.5172513 0.605822,0.2527332 -0.0065,0.1536623 -0.03546,0.1769638 -0.0769,0.061818 -0.105807,-0.2940394 -0.285781,-0.2146432 -0.3351,0.147831 -0.0249,0.1829403 -0.118003,0.3159873 -0.206914,0.2956602 -0.193945,-0.044344 -0.216168,0.2034757 -0.02983,0.3326169 0.07251,0.050249 0.131831,0.2942213 0.131831,0.5421582 0,0.404006 -0.03337,0.441401 -0.321495,0.360308 -0.176824,-0.04977 -0.358099,-0.02407 -0.402834,0.05709 -0.139713,0.253497 -0.571846,0.456741 -0.654036,0.30761 z M 13.646626,7.1996576 c -0.03641,-0.066064 0.627762,-0.127096 1.475943,-0.1356215 0.887287,-0.00886 1.402196,0.032425 1.212573,0.09737 -0.453962,0.1554651 -2.60703,0.1861008 -2.688516,0.038256 z M 17.29091,7.0723482 c 0.126887,-0.037182 0.33452,-0.037182 0.461406,0 0.126886,0.037182 0.02307,0.067602 -0.230703,0.067602 -0.253772,0 -0.35759,-0.030419 -0.230703,-0.067602 z m 1.252387,-0.00629 c 0.308152,-0.031119 0.812403,-0.031119 1.120555,0 0.308153,0.031119 0.05603,0.056597 -0.560278,0.056597 -0.616305,0 -0.86843,-0.025465 -0.560277,-0.056597 z m 0.991234,-0.7333524 c 0.128266,-0.037474 0.306237,-0.035014 0.39549,0.00549 0.08926,0.040494 -0.01569,0.071159 -0.233211,0.06815 -0.21752,-0.00304 -0.290546,-0.036145 -0.162279,-0.07363 z m -0.0025,-0.5907793 c 0.126886,-0.037183 0.33452,-0.037183 0.461405,0 0.126887,0.037182 0.02307,0.067602 -0.230703,0.067602 -0.253771,0 -0.357589,-0.030419 -0.230702,-0.067602 z m 1.120555,0.00397 c 0.09064,-0.041008 0.238943,-0.041008 0.329576,0 0.09064,0.041008 0.01648,0.074563 -0.164787,0.074563 -0.181267,0 -0.255421,-0.033556 -0.164789,-0.074563 z M 18.741061,2.1962889 c 0.126887,-0.038463 0.230703,-0.1586215 0.230703,-0.2670075 0,-0.1203562 0.09684,-0.1686685 0.248782,-0.1241125 0.13683,0.04013 0.28872,4.44e-4 0.337533,-0.088077 0.05469,-0.099233 0.288058,-0.1252909 0.608114,-0.067903 0.511596,0.091732 0.519357,0.086219 0.519357,-0.3692566 0,-0.37568601 -0.05355,-0.46238415 -0.285631,-0.46238415 -0.349536,0 -0.287365,-0.0763248 0.159792,-0.19617502 0.317062,-0.0849751 0.332621,-0.0616719 0.282194,0.42269387 -0.05622,0.5399552 -0.0085,0.5688337 0.931245,0.5642066 0.132517,-6.146e-4 0.230702,0.1093468 0.230702,0.2584667 0,0.1427798 0.103821,0.2859769 0.230703,0.3182138 0.126887,0.032242 -0.65915,0.063711 -1.746749,0.069941 -1.087599,0.00624 -1.873634,-0.020146 -1.746748,-0.058619 z M 21.081042,1.917551 c 0,-0.1267578 -0.05933,-0.189355 -0.131831,-0.1391048 -0.07251,0.050254 -0.13183,0.1539619 -0.13183,0.2304696 0,0.076507 0.05933,0.1391057 0.13183,0.1391057 0.07251,0 0.131831,-0.103713 0.131831,-0.2304705 z m 2.803898,0.2758554 c 0.128266,-0.037478 0.306237,-0.035018 0.395491,0.00546 0.08926,0.040493 -0.01569,0.071166 -0.233212,0.06815 -0.217521,-0.00307 -0.290545,-0.036147 -0.162279,-0.073625 z M 21.893098,0.10372732 c 0.09238,-0.13588901 0.177435,-0.26657296 0.188994,-0.29040597 0.01156,-0.0238302 0.0539,0.0527615 0.0941,0.17022184 0.04504,0.13164081 -0.02745,0.24303073 -0.188993,0.29040508 -0.226922,0.0665431 -0.239542,0.0437188 -0.0941,-0.17022095 z"></path></svg>