<svg xmlns="http://www.w3.org/2000/svg" viewBox="0 0 27 27" height="27" width="27"><title>park_15.svg</title><rect fill="none" x="0" y="0" width="27" height="27"></rect><rect x="1" y="1" rx="12.5" ry="12.5" width="25" height="25" stroke="#ffffff" style="stroke-linejoin:round;stroke-miterlimit:4;" fill="#ffffff" stroke-width="2"></rect><rect x="1" y="1" width="25" height="25" rx="12.5" ry="12.5" fill="#598017"></rect><path fill="#ffffff" transform="translate(4 4)" d="M12.167,12.167V15.6c0,.284.11.392.395.393h.485c.367,0,.455-.088.455-.454V8.791c0-.05,0-.1,0-.151a.3.3,0,0,1,.31-.3c.131-.006.262,0,.394,0a2.627,2.627,0,0,0,.939-.122,1.986,1.986,0,0,0-.336-3.847.314.314,0,0,1-.29-.233A1.822,1.822,0,0,0,11.16,4.1a.374.374,0,0,1-.331.269,1.98,1.98,0,0,0-.16,3.875,5.46,5.46,0,0,0,1.066.083c.344.013.432.089.432.43ZM7.342,12h2.711c.33,0,.451-.119.451-.445q0-1.061,0-2.12c0-.309-.125-.436-.43-.436H4.606c-.307,0-.435.127-.435.431q0,1.053,0,2.105c0,.349.115.465.46.466ZM4.5,14.33c0,.389,0,.752,0,1.115a.5.5,0,1,0,1,.012c0-.318,0-.636,0-.954,0-.053.006-.106.009-.159H9.169c0,.376-.012.74.006,1.1a.78.78,0,0,0,.132.387.457.457,0,0,0,.536.133.479.479,0,0,0,.326-.465c.006-.333,0-.667,0-1,0-.053.006-.106.01-.173.082,0,.147,0,.212,0a.827.827,0,0,0,.742-.595.836.836,0,0,0-.314-.913.936.936,0,0,0-.573-.157H4.419a1.517,1.517,0,0,0-.166.006A.832.832,0,0,0,4.3,14.329C4.361,14.332,4.421,14.33,4.5,14.33Z"></path><path fill="#ffffff" transform="translate(4 4)" d="M12.167,12.167V8.761c0-.341-.088-.417-.432-.43a5.46,5.46,0,0,1-1.066-.083,1.98,1.98,0,0,1,.16-3.875A.374.374,0,0,0,11.16,4.1a1.822,1.822,0,0,1,3.361.028.314.314,0,0,0,.29.233,1.986,1.986,0,0,1,.336,3.847,2.627,2.627,0,0,1-.939.122c-.132,0-.263,0-.394,0a.3.3,0,0,0-.31.3c0,.05,0,.1,0,.151v6.753c0,.366-.088.454-.455.454h-.485c-.285,0-.395-.109-.395-.393Z"></path><path fill="#ffffff" transform="translate(4 4)" d="M7.342,12H4.631c-.345,0-.46-.117-.46-.466q0-1.052,0-2.105c0-.3.128-.431.435-.431h5.467c.3,0,.43.127.43.436q0,1.059,0,2.12c0,.326-.121.445-.451.445Z"></path><path fill="#ffffff" transform="translate(4 4)" d="M4.5,14.33c-.082,0-.142,0-.2,0a.832.832,0,0,1-.049-1.659,1.517,1.517,0,0,1,.166-.006h5.83a.936.936,0,0,1,.573.157.836.836,0,0,1,.314.913.827.827,0,0,1-.742.595c-.065,0-.13,0-.212,0,0,.067-.01.12-.01.173,0,.333,0,.667,0,1a.479.479,0,0,1-.326.465.457.457,0,0,1-.536-.133.78.78,0,0,1-.132-.387c-.018-.362-.006-.726-.006-1.1H5.515c0,.053-.008.106-.009.159,0,.318,0,.636,0,.954a.5.5,0,1,1-1-.012C4.5,15.082,4.5,14.719,4.5,14.33Z"></path></svg>