<svg xmlns="http://www.w3.org/2000/svg" viewBox="0 0 23 23" height="23" width="23"><title>park_11.svg</title><rect fill="none" x="0" y="0" width="23" height="23"></rect><rect x="1" y="1" rx="10.5" ry="10.5" width="21" height="21" stroke="#ffffff" style="stroke-linejoin:round;stroke-miterlimit:4;" fill="#ffffff" stroke-width="2"></rect><rect x="1" y="1" width="21" height="21" rx="10.5" ry="10.5" fill="#598017"></rect><path fill="#ffffff" transform="translate(4 4)" d="M8.988,9.332v2.36c0,.2.075.269.271.27h.333c.252,0,.313-.06.313-.312V7.013c0-.035,0-.069,0-.1a.2.2,0,0,1,.213-.208c.09,0,.18,0,.27,0a1.762,1.762,0,0,0,.645-.084,1.364,1.364,0,0,0-.23-2.641.215.215,0,0,1-.2-.16A1.251,1.251,0,0,0,8.3,3.8a.256.256,0,0,1-.228.184,1.36,1.36,0,0,0-.11,2.661,3.7,3.7,0,0,0,.732.057c.236.009.3.061.3.295ZM5.675,9.217H7.537c.226,0,.309-.082.309-.306,0-.485,0-.97,0-1.456,0-.211-.087-.3-.3-.3H3.8c-.211,0-.3.088-.3.3V8.9c0,.24.079.319.316.319Zm-1.95,1.6c0,.268,0,.517,0,.766a.345.345,0,1,0,.688.009c0-.219,0-.437,0-.655,0-.037,0-.073.006-.109H6.929c0,.258-.008.507,0,.756a.54.54,0,0,0,.091.266.314.314,0,0,0,.368.091.328.328,0,0,0,.224-.319c0-.229,0-.458,0-.687,0-.036,0-.072.007-.118.056,0,.1,0,.145,0a.566.566,0,0,0,.51-.408.573.573,0,0,0-.216-.627.642.642,0,0,0-.393-.108h-4a1.086,1.086,0,0,0-.114,0,.571.571,0,0,0,.034,1.139C3.628,10.818,3.669,10.816,3.725,10.816Z"></path><path fill="#ffffff" transform="translate(4 4)" d="M8.988,9.332V6.992c0-.234-.061-.286-.3-.295a3.7,3.7,0,0,1-.732-.057,1.36,1.36,0,0,1,.11-2.661A.256.256,0,0,0,8.3,3.8a1.251,1.251,0,0,1,2.308.019.215.215,0,0,0,.2.16,1.364,1.364,0,0,1,.23,2.641,1.762,1.762,0,0,1-.645.084c-.09,0-.18,0-.27,0a.2.2,0,0,0-.213.208c0,.035,0,.069,0,.1V11.65c0,.252-.061.312-.313.312H9.259c-.2,0-.271-.075-.271-.27Z"></path><path fill="#ffffff" transform="translate(4 4)" d="M5.675,9.217H3.813c-.237,0-.316-.079-.316-.319V7.451c0-.208.088-.3.3-.3H7.55c.209,0,.295.088.3.3,0,.486,0,.971,0,1.456,0,.224-.083.306-.309.306Z"></path><path fill="#ffffff" transform="translate(4 4)" d="M3.725,10.816c-.056,0-.1,0-.138,0a.571.571,0,0,1-.034-1.139,1.086,1.086,0,0,1,.114,0h4a.642.642,0,0,1,.393.108.573.573,0,0,1,.216.627.566.566,0,0,1-.51.408c-.044,0-.089,0-.145,0,0,.046-.007.082-.007.118,0,.229,0,.458,0,.687a.328.328,0,0,1-.224.319.314.314,0,0,1-.368-.091.54.54,0,0,1-.091-.266c-.012-.249,0-.5,0-.756H4.42c0,.036-.006.072-.006.109,0,.218,0,.436,0,.655a.345.345,0,1,1-.688-.009C3.724,11.333,3.725,11.084,3.725,10.816Z"></path></svg>