<svg xmlns="http://www.w3.org/2000/svg" viewBox="0 0 42 42" height="42" width="42"><title>pashupatinath.svg</title><rect fill="none" x="0" y="0" width="42" height="42"></rect><path fill="#051c05" transform="translate(1 1)" d="m 2.1361517,37.527747 c -0.070848,-0.123535 0.098965,-0.217819 0.3923257,-0.217819 0.4922146,0 0.5172468,-0.05795 0.5172468,-1.197978 0,-1.180935 -0.00847,-1.197985 -0.5953068,-1.197985 -0.5648139,0 -0.5991845,0.05302 -0.6710122,1.034622 -0.068877,0.941348 -0.07899,0.91251 -0.112138,-0.319886 -0.030245,-1.124388 0.015073,-1.333212 0.2667575,-1.229137 0.2556627,0.105725 0.3031908,-0.181928 0.3031908,-1.834959 0,-1.541588 -0.064767,-1.987125 -0.3031908,-2.085717 -0.2266802,-0.09373 -0.3031909,-0.484377 -0.3031909,-1.548008 0,-0.803219 -0.088007,-1.42264 -0.2021269,-1.42264 -0.1111701,0 -0.2021278,-0.09192 -0.2021278,-0.204278 0,-0.112348 0.1591757,-0.191371 0.3537228,-0.17559 0.1945479,0.01581 1.7746598,-0.847967 3.5113606,-1.919421 l 3.157637,-1.948105 0.1129187,-1.149719 c 0.090729,-0.923788 0.2705956,-1.352671 0.9152792,-2.182438 0.4412983,-0.567994 0.8445246,-1.275831 0.8960576,-1.572969 0.09358,-0.539578 0.09373,-0.539611 0.121224,-0.02595 0.01514,0.28287 0.391354,0.982591 0.836034,1.55494 0.44468,0.572339 0.808509,1.192765 0.808509,1.378717 0,0.185946 0.09965,0.404458 0.221454,0.485581 0.1218,0.08109 0.185543,0.478967 0.141651,0.884117 -0.105141,0.9705 0.238872,0.963766 1.610331,-0.03153 1.465637,-1.063625 1.432772,-1.466534 -0.305884,-3.750528 l -1.364361,-1.792292 -1.044637,-0.0028 c -1.2418247,-0.0034 -1.6840804,-0.156088 -1.6840804,-0.581507 0,-0.235955 0.088124,-0.260692 0.353722,-0.09929 0.2771944,0.168445 1.1296854,-0.217994 3.9402894,-1.786152 3.426365,-1.911714 4.19426,-2.545639 3.083635,-2.545639 -0.580384,0 -0.584258,-0.01067 -0.272361,-0.748297 0.215379,-0.50939 0.253034,-0.522494 0.498894,-0.173609 0.169382,0.240365 0.26826,0.276704 0.272354,0.100089 0.0038,-0.1525 0.427718,-1.058614 0.942633,-2.0135834 0.779339,-1.4453942 0.917032,-1.8635731 0.821814,-2.4958797 -0.06287,-0.4177633 -0.02338,-0.8201904 0.08789,-0.8942803 0.332064,-0.2211581 0.45865,0.088022 0.408795,0.998485 -0.03728,0.6803393 0.142804,1.2094481 0.862265,2.5338997 0.500139,0.9207007 0.86215,1.7562907 0.804473,1.8568647 -0.05768,0.100574 -0.01612,0.182861 0.09234,0.182861 0.108465,0 0.239833,-0.122522 0.291918,-0.27227 0.06547,-0.188286 0.189864,-0.138637 0.403181,0.160959 0.383462,0.538568 0.267548,0.764757 -0.391912,0.764757 -1.031434,0 -0.291698,0.579213 3.254874,2.548575 2.868264,1.592706 3.685448,1.959967 3.981346,1.789313 0.246304,-0.142048 0.372324,-0.141005 0.372324,0.0031 0,0.385586 -0.755457,0.668773 -1.784094,0.668773 h -1.00216 l -1.436652,1.83847 c -0.914703,1.170531 -1.436653,2.029902 -1.436653,2.36538 0,0.441174 0.533516,0.901117 3.278617,2.826507 2.60895,1.829895 3.352086,2.257231 3.63829,2.092171 0.233354,-0.134582 0.359673,-0.130935 0.359673,0.01035 0,0.339742 -0.714617,0.668774 -1.452481,0.668774 -0.591073,0 -0.807934,0.187171 -1.82965,1.579161 l -1.159104,1.579161 -0.0031,2.088729 c -0.0031,2.030338 0.01169,2.095835 0.514089,2.342519 0.362256,0.177868 0.632944,0.186834 0.904916,0.02997 0.275242,-0.158737 0.502149,-0.147006 0.780546,0.04033 0.311064,0.20934 0.458803,0.204838 0.712097,-0.02165 0.262247,-0.234533 0.319612,-0.808815 0.319612,-3.199674 0,-1.797343 0.07745,-2.913829 0.202125,-2.913829 0.111168,0 0.202131,-0.141983 0.202131,-0.315506 0,-0.173522 0.227389,-0.579905 0.505312,-0.903068 0.390972,-0.454609 0.505319,-0.504893 0.505319,-0.222201 0,0.200953 0.136441,0.421787 0.303195,0.490742 0.166754,0.06899 0.303187,0.310921 0.303187,0.537707 0,0.226777 0.136441,0.412326 0.303195,0.412326 0.48742,0 1.11122,-0.820826 1.117354,-1.470254 0.0031,-0.329444 0.25512,-1.198924 0.560018,-1.932167 l 0.554349,-1.333169 0.551691,1.376776 c 0.303424,0.757224 0.551683,1.608222 0.551683,1.891087 0,0.58296 0.674892,1.467727 1.119578,1.467727 0.162422,0 0.295318,-0.185549 0.295318,-0.412326 0,-0.226786 0.136433,-0.468745 0.303187,-0.537707 0.166754,-0.06899 0.303194,-0.289789 0.303194,-0.490742 0,-0.282692 0.11434,-0.232408 0.505312,0.222201 0.277932,0.323163 0.50532,0.729546 0.50532,0.903068 0,0.173523 0.09095,0.315506 0.202132,0.315506 0.127465,0 0.202125,1.4884 0.202125,4.029582 0,2.541173 -0.07464,4.029581 -0.202125,4.029581 -0.125218,0 -0.208206,-1.263902 -0.218091,-3.321686 -0.0088,-1.826924 -0.06089,-3.174656 -0.115845,-2.99496 -0.05493,0.179697 -0.191154,0.530347 -0.302713,0.779213 -0.11745,0.262003 -0.175043,1.797978 -0.136815,3.648708 l 0.06601,3.196226 -17.825795,-2.15e-4 C 8.4211115,37.745675 2.2176662,37.670283 2.1359148,37.527747 Z m 2.5265906,-1.486982 v -1.269172 l -0.6063817,0.09592 c -0.5876932,0.09294 -0.6063817,0.132063 -0.6063817,1.26917 0,1.158412 0.00767,1.173256 0.6063817,1.173256 0.6043794,0 0.6063817,-0.0041 0.6063817,-1.269164 z m 1.617018,0.095 v -1.174148 l -0.7074455,-0.089 -0.7074455,-0.089 v 1.263153 1.263154 h 0.7074455 0.7074455 z m 1.4148903,8.23e-4 c 0,-1.137098 -0.018686,-1.17621 -0.6063816,-1.269162 l -0.6063816,-0.0959 v 1.26917 c 0,1.264972 0.00199,1.269164 0.6063816,1.269164 0.5987078,0 0.6063816,-0.01482 0.6063816,-1.173265 z m 1.6170173,-0.0247 c 0,-1.185875 -0.00611,-1.197977 -0.6063808,-1.197977 -0.6002564,0 -0.6063818,0.0121 -0.6063818,1.197977 0,1.185883 0.00611,1.197986 0.6063818,1.197986 0.6002563,0 0.6063808,-0.0121 0.6063808,-1.197986 z m 1.6170181,-0.07121 V 34.77151 l -0.606382,0.09591 c -0.5876922,0.09294 -0.6063815,0.132063 -0.6063815,1.26917 0,1.158412 0.00767,1.173257 0.6063815,1.173257 0.60438,0 0.606382,-0.0041 0.606382,-1.269164 z m 1.617018,0.07121 v -1.197976 h -0.707446 -0.707445 v 1.197985 1.197978 h 0.707445 0.707446 z m 1.414893,0.0247 c 0,-1.137107 -0.01872,-1.176219 -0.606382,-1.269171 l -0.606384,-0.0959 v 1.269172 c 0,1.264972 0.002,1.269171 0.606384,1.269171 0.598704,0 0.606382,-0.0149 0.606382,-1.173265 z m 1.617013,-0.0247 c 0,-1.185884 -0.0061,-1.197986 -0.606383,-1.197986 -0.600254,0 -0.606381,0.0121 -0.606381,1.197986 0,1.185883 0.0061,1.197986 0.606381,1.197986 0.600263,0 0.606383,-0.0121 0.606383,-1.197986 z m 1.61702,-0.07121 V 34.77151 l -0.606382,0.09591 c -0.587695,0.09294 -0.606382,0.132063 -0.606382,1.26917 0,1.158412 0.0076,1.173257 0.606382,1.173257 0.60438,0 0.606382,-0.0041 0.606382,-1.269164 z m 1.61702,0.07121 v -1.197986 h -0.707444 -0.707452 v 1.197986 1.197977 h 0.707452 0.707444 z m 1.414888,0.0247 c 0,-1.137107 -0.01872,-1.176219 -0.606381,-1.269171 l -0.606383,-0.0959 v 1.269172 c 0,1.264972 0.0023,1.269171 0.606383,1.269171 0.598703,0 0.606381,-0.0149 0.606381,-1.173265 z m 1.617021,-0.0247 c 0,-1.185884 -0.0061,-1.197986 -0.606382,-1.197986 -0.600263,0 -0.606382,0.0121 -0.606382,1.197986 0,1.185883 0.0061,1.197986 0.606382,1.197986 0.600255,0 0.606382,-0.0121 0.606382,-1.197986 z m 1.617012,-0.05442 v -1.252436 h -0.707444 -0.707444 v 1.252443 1.252435 h 0.707444 0.707444 z m 3.031908,0.05442 c 0,-1.335614 0.173768,-1.222485 -1.970344,-1.282754 l -0.858645,-0.02413 -4.05e-4,1.252434 -4.05e-4,1.252435 h 1.414889 1.414895 V 36.1119 Z m 1.617021,0 c 0,-1.185884 -0.0061,-1.197986 -0.606382,-1.197986 -0.600255,0 -0.606382,0.0121 -0.606382,1.197986 0,1.185883 0.0061,1.197986 0.606382,1.197986 0.600255,0 0.606382,-0.0121 0.606382,-1.197986 z m 1.61702,0 v -1.197986 h -0.707444 -0.707451 v 1.197986 1.197977 h 0.707451 0.707444 z m 0.95649,-2.232607 C 30.63374,31.99245 30.522796,30.222578 30.436546,29.946225 30.284193,29.45801 30.310572,29.445662 31.36749,29.5106 c 1.030333,0.06331 1.084154,0.09557 1.019737,0.61137 -0.03743,0.299494 -0.151101,0.637648 -0.252659,0.75146 -0.101559,0.113805 -0.184654,1.608568 -0.184654,3.321678 v 3.114766 h 0.606382 0.606382 v -3.26723 c 0,-2.976814 0.0359,-3.305954 0.404257,-3.702861 0.224585,-0.242017 0.673754,-0.435634 1.010639,-0.435634 0.336876,0 0.786046,0.193617 1.010631,0.435634 0.36832,0.396907 0.404256,0.726047 0.404256,3.702861 0,2.839335 0.04201,3.26723 0.320949,3.26723 0.283394,0 0.31046,-0.401462 0.231293,-3.430593 -0.04935,-1.886831 -0.161269,-3.661018 -0.248795,-3.942638 -0.156181,-0.502572 -0.138014,-0.51064 0.981754,-0.435635 0.978889,0.06562 1.140838,0.02232 1.140601,-0.304754 -1.98e-4,-0.350923 -0.337259,-0.381177 -4.244947,-0.381177 h -4.244671 v 4.247395 c 0,4.161767 0.0085,4.247402 0.422011,4.247402 0.413867,0 0.420285,-0.06627 0.332354,-3.430593 z m 1.064779,0.27227 c 0,-2.66219 -0.04759,-3.158323 -0.303187,-3.158323 -0.255569,0 -0.303194,0.496133 -0.303194,3.158323 0,2.662182 0.04759,3.158323 0.303194,3.158323 0.255564,0 0.303187,-0.496141 0.303187,-3.158323 z m 4.042547,0.326719 V 31.646684 H 34.577574 33.36481 v 2.831596 2.831596 h 1.212764 1.212762 z m 1.819146,-0.326719 c 0,-2.66219 -0.04759,-3.158323 -0.303195,-3.158323 -0.255562,0 -0.303187,0.496133 -0.303187,3.158323 0,2.662182 0.04759,3.158314 0.303187,3.158314 0.255562,0 0.303195,-0.496132 0.303195,-3.158314 z M 4.9154011,34.400123 c 0.4887731,-0.02099 0.5035172,-1.99623 0.019206,-2.572925 -0.7709256,-0.917986 -1.6867533,-0.175697 -1.6867533,1.367128 0,1.101559 0.3935105,1.629354 1.0106356,1.35552 0.1667547,-0.07401 0.4623665,-0.141367 0.6569135,-0.149723 z m 2.6867029,0.06331 c 0.073392,-0.127963 0.2606727,-0.18005 0.416183,-0.115746 0.2188627,0.09051 0.2827453,-0.127594 0.2827453,-0.965315 0,-2.426965 -1.9567148,-2.689578 -2.1705592,-0.291319 -0.086732,0.97269 -0.048373,1.106779 0.3801332,1.328708 0.6170097,0.319574 0.9261669,0.331947 1.0914977,0.04363 z m 3.137743,0.0074 c 0.571659,-0.329692 0.553455,-2.162329 -0.0271,-2.728502 -0.381675,-0.37222 -0.465251,-0.379267 -0.9601044,-0.08093 -0.4767576,0.287392 -0.5494035,0.479108 -0.6032074,1.59188 -0.040558,0.838806 0.00998,1.217735 0.1499946,1.124494 0.1161403,-0.07738 0.3710605,-0.04025 0.5664884,0.08234 0.4456008,0.279628 0.4084918,0.279177 0.8739298,0.01079 z m 1.412912,-2.943898 c 0.617204,-0.601919 1.587577,-0.500892 2.121651,0.220876 0.427251,0.577411 0.457527,0.586212 0.580507,0.16864 0.07135,-0.242303 0.405395,-0.563581 0.742287,-0.713962 0.536939,-0.239669 0.679546,-0.219674 1.155514,0.161989 0.453134,0.363361 0.553257,0.629975 0.605083,1.611334 0.1089,2.061661 0.44321,1.749292 0.44321,-0.414122 v -2.003881 h -7.57977 -7.5797708 l 0.030826,2.014795 c 0.02958,1.93364 0.035722,1.959152 0.1524973,0.633409 0.1276117,-1.448769 0.6225399,-2.212569 1.4336979,-2.212569 0.8111587,0 1.3060869,0.7638 1.4336987,2.212569 L 5.813866,34.587391 5.847785,33.2805 c 0.018656,-0.718787 0.1007423,-1.414736 0.1824172,-1.546554 0.2639829,-0.426034 1.062671,-0.768288 1.4687661,-0.629398 0.7685007,0.26285 1.0031932,0.747426 1.0350192,2.137062 l 0.030826,1.345781 0.1207736,-1.353702 c 0.1282405,-1.437399 0.4026856,-1.908209 1.2412211,-2.129322 0.3592498,-0.09473 0.6788318,0.0041 1.0611678,0.3282 0.487597,0.413315 0.551408,0.621949 0.586691,1.918195 l 0.03959,1.454449 0.07018,-1.444981 c 0.05323,-1.09606 0.166322,-1.53874 0.468338,-1.833279 z m 1.76741,2.907968 c 0.407923,-0.439585 0.299007,-2.073755 -0.172041,-2.581364 -0.427313,-0.460478 -1.140963,-0.413809 -1.451988,0.09496 -0.229822,0.37594 -0.188152,2.577972 0.04584,2.422133 0.110289,-0.07344 0.360422,-0.03317 0.555849,0.08943 0.472111,0.296268 0.729966,0.289919 1.022343,-0.02511 z m 3.072336,-1.278951 c 0,-1.03854 -0.07273,-1.317873 -0.390964,-1.501397 -0.555427,-0.320322 -0.767521,-0.283969 -1.226056,0.210148 -0.298741,0.321927 -0.404258,0.726047 -0.404258,1.548322 0,1.046345 0.0272,1.10533 0.456474,0.989228 0.251055,-0.06792 0.58389,-0.03861 0.739644,0.06512 0.582225,0.387761 0.82516,0.0016 0.82516,-1.311444 z m 2.198925,1.308423 c 0.293256,0.169127 0.548811,0.163628 0.922494,-0.01984 0.500706,-0.245852 0.516871,-0.317416 0.516871,-2.288068 v -2.034289 l -0.859041,0.0066 c -1.408433,0.01137 -1.566486,0.274006 -1.566486,2.603089 0,1.728678 0.04156,1.980292 0.290269,1.757846 0.21188,-0.189493 0.399811,-0.196426 0.695893,-0.02569 z m 2.854253,-0.06454 c 0.203385,-0.02033 0.336457,-0.352906 0.404257,-1.010426 l 0.101062,-0.980164 1.566486,-0.06363 1.566485,-0.06363 v 1.085383 c 0,0.596955 0.09095,1.145956 0.202125,1.219999 0.129878,0.0865 0.202132,-0.687488 0.202132,-2.165299 v -2.299916 h -2.526589 -2.526596 v 2.310363 c 0,2.114727 0.02995,2.297124 0.353729,2.153954 0.194546,-0.08603 0.490155,-0.170015 0.656909,-0.186661 z m 1.951812,0.133801 c 0.336112,0.165027 0.543455,0.153634 0.762066,-0.0419 0.16518,-0.147723 0.395265,-0.205358 0.511309,-0.128081 0.133316,0.08879 0.210978,-0.184916 0.210978,-0.743598 v -0.884122 h -1.313826 -1.313833 v 0.990998 c 0,0.865512 0.04316,0.964967 0.340781,0.785477 0.218038,-0.131487 0.5071,-0.123856 0.802525,0.02116 z m 11.792841,-3.306574 c 0,-0.415011 -1.070012,-1.113835 -1.497187,-0.977794 -0.426755,0.135908 -0.928339,0.678159 -0.928339,1.003619 0,0.0969 0.54574,0.176181 1.212764,0.176181 0.667016,0 1.212762,-0.0909 1.212762,-0.202006 z m -3.840422,-0.669253 c 0,-0.119797 -0.227388,-0.217812 -0.505312,-0.217812 -0.27793,0 -0.505319,0.09801 -0.505319,0.217812 0,0.119799 0.227389,0.217813 0.505319,0.217813 0.277924,0 0.505312,-0.09801 0.505312,-0.217813 z m 5.861693,0 c 0,-0.119797 -0.227396,-0.217812 -0.50532,-0.217812 -0.277924,0 -0.505319,0.09801 -0.505319,0.217812 0,0.119799 0.227395,0.217813 0.505319,0.217813 0.277924,0 0.50532,-0.09801 0.50532,-0.217813 z M 8.50316,29.142047 c 0,-0.539089 0.090957,-0.980172 0.2021271,-0.980172 0.11117,0 0.2021269,0.441083 0.2021269,0.980172 v 0.980166 h 1.313827 1.313826 v -0.980166 c 0,-0.539089 0.09095,-0.980172 0.202128,-0.980172 0.11117,0 0.202127,0.441083 0.202127,0.980172 v 0.980166 h 3.234038 3.234033 v -1.181274 -1.181282 l -8.186152,0.0066 -8.1861525,0.0066 v 1.174259 1.17426 H 5.269124 8.50316 v -0.980139 z m 1.2127625,-0.420485 c 0,-0.455827 0.096378,-0.559687 0.5193765,-0.559687 0.422998,0 0.507391,0.09094 0.454786,0.490091 -0.0415,0.314946 -0.227109,0.514951 -0.519376,0.559686 -0.3703942,0.05672 -0.4547865,-0.03425 -0.4547865,-0.49009 z m 0.6063815,-0.124053 c 0,-0.119799 -0.09096,-0.217813 -0.202127,-0.217813 -0.11117,0 -0.2021267,0.09801 -0.2021267,0.217813 0,0.119797 0.090957,0.217812 0.2021267,0.217812 0.11117,0 0.202127,-0.09801 0.202127,-0.217812 z m -4.484697,0.28684 c 0.1459106,-0.0629 0.3202452,-0.05515 0.3874105,0.01721 0.067166,0.07236 -0.052216,0.123857 -0.2652923,0.114397 C 5.724259,29.005503 5.6763634,28.953886 5.837607,28.884361 Z M 2.6958486,28.228747 c 0.1966633,-0.05524 0.4695347,-0.05162 0.6063818,0.0082 0.1368462,0.05969 -0.024057,0.104852 -0.3575692,0.100423 C 2.6111508,28.33327 2.4991854,28.2841 2.6958486,28.228882 Z M 31.90174,29.972556 c -0.193248,-0.05449 -0.557076,-0.05648 -0.808506,-0.0041 -0.25143,0.05211 -0.09331,0.09671 0.351368,0.09912 0.444678,0.0025 0.650393,-0.04017 0.457138,-0.09473 z m 5.861692,0 c -0.193255,-0.05449 -0.557085,-0.05648 -0.808506,-0.0041 -0.25143,0.05211 -0.09331,0.09671 0.351361,0.09912 0.444685,0.0025 0.650401,-0.04017 0.457145,-0.09473 z M 26.138758,29.523224 c -0.0278,-0.149747 0.06845,-0.27227 0.213888,-0.27227 0.145433,0 0.531998,-0.398563 0.859043,-0.885698 0.327045,-0.487135 0.714815,-1.026233 0.861714,-1.197985 0.231392,-0.270532 -0.417221,-0.311835 -4.851053,-0.308945 -3.079067,0.0016 -5.00466,0.08077 -4.833284,0.197659 0.15667,0.106878 0.429543,0.139959 0.606381,0.07352 0.261132,-0.09813 0.274066,-0.06569 0.06883,0.172626 -0.138961,0.161387 -0.252659,0.815137 -0.252659,1.452769 v 1.159334 l 3.688817,-0.05936 c 2.820142,-0.04536 3.676923,-0.123486 3.63829,-0.331634 z m 5.154248,-1.293679 c -0.194547,-0.05483 -0.512898,-0.05483 -0.707445,0 -0.194546,0.05474 -0.03537,0.0996 0.353722,0.0996 0.389094,0 0.548269,-0.04486 0.353723,-0.0996 z M 33.878098,27.7807 c -0.0061,-0.455285 0.08834,-0.598989 0.393515,-0.598989 0.474319,0 0.674901,0.732304 0.275311,1.005183 -0.183569,0.12537 -0.05913,0.187221 0.381102,0.189468 l 0.653639,0.0033 -0.337358,-0.762353 c -0.279414,-0.631424 -0.445999,-0.762359 -0.969928,-0.762359 -0.523929,0 -0.690515,0.130935 -0.969928,0.762359 -0.333799,0.754302 -0.332507,0.762353 0.122124,0.762353 0.368435,0 0.457909,-0.118694 0.451523,-0.598996 z m 4.085105,0.448845 c -0.194546,-0.05483 -0.512897,-0.05483 -0.707443,0 -0.194546,0.05474 -0.03537,0.0996 0.353722,0.0996 0.389092,0 0.548269,-0.04486 0.353721,-0.0996 z M 16.483977,26.401247 C 10.040415,22.341734 10.449992,22.4063 6.491523,24.826013 4.985429,25.746658 3.4802984,26.677452 3.1467881,26.89445 c -0.592329,0.385399 -0.4284542,0.394561 7.0712449,0.395352 l 7.677623,8.23e-4 z m 12.727117,-0.17176 C 29.105486,26.125056 27.770812,25.144894 26.24516,24.051336 l -2.773909,-1.988285 -4.098414,6.99e-4 -4.098415,6.92e-4 -1.174887,0.841779 -1.174893,0.841769 2.185524,1.332107 2.185526,1.332099 6.05371,0.0033 c 3.453652,0.0016 5.971242,-0.07796 5.861692,-0.186283 z m 5.420857,-0.170823 c -0.136846,-0.05969 -0.409719,-0.06331 -0.606382,-0.0082 -0.196662,0.05524 -0.0847,0.104044 0.24881,0.108486 0.333508,0.0041 0.494418,-0.04075 0.357572,-0.100413 z m 0.147748,-0.415982 c 0,-0.06775 -0.102934,-0.330481 -0.228733,-0.583791 -0.221507,-0.446007 -0.237481,-0.447686 -0.50532,-0.05293 -0.397114,0.585241 -0.344532,0.759981 0.228733,0.759981 0.277923,0 0.50532,-0.05549 0.50532,-0.12323 z M 11.939322,22.389587 c 0,-0.264793 -0.325649,-0.326726 -1.718082,-0.326726 -1.3924314,0 -1.7180807,0.06191 -1.7180807,0.326726 0,0.264795 0.3256493,0.326719 1.7180807,0.326719 1.392433,0 1.718082,-0.06191 1.718082,-0.326719 z m -0.404255,-0.980172 c 0,-0.122868 -0.572693,-0.217812 -1.313827,-0.217812 -0.7411321,0 -1.313826,0.09495 -1.313826,0.217812 0,0.122868 0.5726939,0.217813 1.313826,0.217813 0.741134,0 1.313827,-0.09495 1.313827,-0.217813 z m 11.723379,-0.217812 c 0,-0.420742 -0.134752,-0.435633 -3.941477,-0.435633 -3.806732,0 -3.941484,0.0149 -3.941484,0.435633 0,0.420732 0.134752,0.435625 3.941484,0.435625 3.806725,0 3.941477,-0.0149 3.941477,-0.435625 z M 11.33294,20.687814 c 0,-0.03746 -0.255498,-0.331939 -0.567773,-0.654335 l -0.567772,-0.58618 -0.5817433,0.654336 -0.5817428,0.654335 h 1.1495151 c 0.632235,0 1.149516,-0.0307 1.149516,-0.06817 z m 4.460858,-1.020924 c 0.103439,0 0.188068,0.196038 0.188068,0.435634 0,0.239595 0.09095,0.435633 0.202125,0.435633 0.111169,0 0.202133,-0.196038 0.202133,-0.435633 0,-0.239596 0.09095,-0.435634 0.202124,-0.435634 0.111169,0 0.202125,0.196038 0.202125,0.435634 0,0.239595 0.09096,0.435633 0.202132,0.435633 0.111169,0 0.202125,-0.196038 0.202125,-0.435633 0,-0.239596 0.09095,-0.435634 0.202124,-0.435634 0.11117,0 0.202133,0.196038 0.202133,0.435634 0,0.239595 0.09095,0.435633 0.202124,0.435633 0.111169,0 0.202125,-0.196038 0.202125,-0.435633 0,-0.239596 0.09096,-0.435634 0.202132,-0.435634 0.11117,0 0.202125,0.196038 0.202125,0.435634 0,0.603566 0.401232,0.551182 0.417068,-0.05449 l 0.01284,-0.490082 0.182797,0.490082 c 0.100544,0.269545 0.276694,0.490082 0.391446,0.490082 0.114752,0 0.214402,-0.220537 0.221452,-0.490082 l 0.01284,-0.490082 0.182804,0.490082 c 0.100543,0.269545 0.276686,0.490082 0.391438,0.490082 0.114753,0 0.21441,-0.220537 0.221452,-0.490082 l 0.01284,-0.490082 0.182804,0.490082 c 0.100544,0.269545 0.276694,0.490082 0.391446,0.490082 0.114752,0 0.214401,-0.220537 0.221452,-0.490082 l 0.01284,-0.490082 0.182804,0.490082 c 0.100543,0.269545 0.276686,0.490082 0.391438,0.490082 0.114753,0 0.221032,-0.220537 0.236167,-0.490082 l 0.0275,-0.490082 0.0876,0.490082 c 0.0482,0.269545 0.175157,0.490082 0.282177,0.490082 0.107022,0 0.276839,-0.220537 0.377382,-0.490082 l 0.182805,-0.490082 0.01284,0.490082 c 0.0069,0.269545 0.08103,0.48972 0.16441,0.489274 0.135149,-6.58e-4 1.749481,-2.043993 2.436986,-3.084499 0.254645,-0.385415 0.02818,-0.399735 -6.322322,-0.399735 h -6.58644 l 1.370187,1.786841 c 1.145482,1.493815 1.380778,1.708137 1.434774,1.306891 0.03552,-0.263972 0.149221,-0.479948 0.252659,-0.479948 z m 8.576349,-4.902331 -3.234033,-1.84038 -1.718082,0.0013 -1.718083,0.001 -3.335103,1.836548 -3.335096,1.836551 8.287219,0.0027 8.287211,0.0027 z m -6.316476,1.258619 c 0.416885,-0.047 1.099065,-0.047 1.51595,0 0.416893,0.04699 0.07579,0.08543 -0.757971,0.08543 -0.833778,0 -1.174864,-0.03844 -0.757979,-0.08543 z m 4.35837,-1.079199 c 0.145905,-0.06291 0.320246,-0.05518 0.387412,0.01721 0.06715,0.07237 -0.05225,0.123857 -0.265296,0.114401 -0.235463,-0.01045 -0.283362,-0.06206 -0.122116,-0.131596 z m -5.163034,-1.091226 c 0.196663,-0.05523 0.469536,-0.0516 0.606382,0.0081 0.136845,0.05967 -0.02407,0.104852 -0.357564,0.100412 -0.333516,-0.0044 -0.445481,-0.05326 -0.248818,-0.10848 z m 3.786038,-1.591579 c 0,-0.127059 -0.673755,-0.217814 -1.617013,-0.217814 -0.943259,0 -1.617021,0.09076 -1.617021,0.217814 0,0.127059 0.673762,0.217815 1.617021,0.217815 0.943258,0 1.617013,-0.09076 1.617013,-0.217815 z m -0.101063,-0.87126 c 0.07934,-0.138328 -0.469529,-0.217816 -1.504025,-0.217816 -0.951211,0 -1.628946,0.09063 -1.628946,0.217816 0,0.125695 0.636092,0.217815 1.504025,0.217815 0.827216,0 1.560244,-0.09802 1.628946,-0.217815 z M 20.361344,9.8670033 C 19.75662,8.6665688 19.087999,8.6665277 18.451892,9.8668837 l -0.460826,0.8695853 h 1.404139 1.404132 z M 19.620157,8.3404995 c 0,-0.1197985 -0.08559,-0.2178149 -0.1902,-0.2178149 -0.104607,0 -0.24641,0.098017 -0.31512,0.2178149 -0.06868,0.1197985 0.01689,0.2178151 0.190199,0.2178151 0.173316,0 0.315121,-0.098017 0.315121,-0.2178151 z"></path></svg>