<svg xmlns="http://www.w3.org/2000/svg" viewBox="0 0 23 23" height="23" width="23"><title>restaurant_15.svg</title><rect fill="none" x="0" y="0" width="23" height="23"></rect><rect x="1" y="1" rx="10.5" ry="10.5" width="21" height="21" stroke="#ffffff" style="stroke-linejoin:round;stroke-miterlimit:4;" fill="#ffffff" stroke-width="2"></rect><rect x="1" y="1" width="21" height="21" rx="10.5" ry="10.5" fill="#d97200"></rect><path fill="#fff" transform="translate(4 4)" d="M4.29,0C3.21,0,1.07,2.14,1.07,5.36A4.59,4.59,0,0,0,3.48,9.64L3,15H5.63L5.09,9.64A4.59,4.59,0,0,0,7.5,5.36C7.5,2.14,5.36,0,4.29,0ZM8.57.8V7.5c0,1.07,1.88,1.07,1.88,2.14L9.91,15h2.68l-.54-5.36c0-1.07,1.88-1.07,1.88-2.14V.8c0-1.07-1.07-1.07-1.07,0V6.43c0,.6-1.07.6-1.07,0V.8c0-1.07-1.08-1.07-1.08,0V6.43c0,.56-1.07.56-1.07,0V.8C9.64-.27,8.57-.27,8.57.8Z"></path></svg>