<svg xmlns="http://www.w3.org/2000/svg" viewBox="0 0 23 23" height="23" width="23"><title>shelter_15.svg</title><rect fill="none" x="0" y="0" width="23" height="23"></rect><rect x="1" y="1" rx="10.5" ry="10.5" width="21" height="21" stroke="#ffffff" style="stroke-linejoin:round;stroke-miterlimit:4;" fill="#ffffff" stroke-width="2"></rect><rect x="1" y="1" width="21" height="21" rx="10.5" ry="10.5" fill="rgba(145,32,134,0.7)"></rect><path fill="#fff" transform="translate(4 4)" d="M3.79,0,2.71,2.14h.5L4.34,0ZM8.07,0,7,2.14h.5L8.62,0Zm4.29,0L11.29,2.14h.5L12.91,0ZM1.1,1.07,0,3.21H.53L1.65,1.07Zm4.29,0L4.32,3.21h.5L5.94,1.07Zm4.29,0L8.61,3.21h.5l1.12-2.14Zm4.28,0L12.89,3.21h.5l1.13-2.14ZM3.21,4.29,0,7.5H1.61V15h1.6V7.5h8.58V15h1.6V7.5H15L11.79,4.29Z"></path></svg>