<svg xmlns="http://www.w3.org/2000/svg" viewBox="0 0 42 42" height="42" width="42"><title>shiva.svg</title><rect fill="none" x="0" y="0" width="42" height="42"></rect><path fill="#051c05" transform="translate(1 1)" d="m 10.51677,33.925041 c 0.05801,-0.899818 0.146671,-1.058554 0.549396,-0.981972 1.906019,0.36251 2.202082,0.33913 2.74131,-0.21642 0.345487,-0.355965 0.549971,-0.882011 0.549971,-1.41485 0,-0.602117 -0.07593,-0.764956 -0.26127,-0.561278 -0.143773,0.157813 -0.284369,0.453643 -0.312402,0.657412 -0.150421,1.091641 -1.277494,1.740913 -2.211229,1.273881 -0.643858,-0.32204 -1.238984,-1.465777 -0.886972,-1.704597 0.123288,-0.0837 0.06553,-0.557071 -0.131351,-1.074284 -0.518069,-1.361122 -0.395086,-1.804529 0.13654,-0.492174 0.480595,1.186497 1.259332,1.841796 1.878677,1.580897 0.264738,-0.111457 0.327442,-0.358766 0.215369,-0.848471 -0.18187,-0.795072 0.04041,-1.795018 0.352098,-1.583643 0.115766,0.07862 0.149823,0.555893 0.07507,1.060571 -0.122705,0.82919 -0.08662,0.903474 0.374729,0.771074 0.741871,-0.212962 1.084209,-0.782554 1.148415,-1.910772 0.069,-1.212749 -0.50981,-2.575721 -1.005188,-2.367036 -0.542377,0.228472 -0.418759,-0.581454 0.138887,-0.908982 0.268778,-0.157956 0.488883,-0.187911 0.488883,-0.06657 0,0.121366 0.192571,0.244538 0.427739,0.273727 1.040816,0.129047 1.369642,0.265835 1.649566,0.686081 0.365347,0.548474 0.611436,0.575951 0.611436,0.06826 0,-0.209081 0.137429,-0.44104 0.305532,-0.515477 0.186777,-0.08272 0.143464,-0.143552 -0.111152,-0.156531 -0.229222,-0.01196 -0.701307,-0.333682 -1.049246,-0.715621 -0.567466,-0.622953 -0.754977,-0.675957 -1.821574,-0.514919 -1.099539,0.166008 -1.2022,0.132444 -1.364307,-0.44596 -0.09643,-0.344019 -0.381657,-0.841501 -0.633839,-1.10552 -0.499852,-0.523278 -0.6554,-2.708854 -0.214212,-3.008255 0.138289,-0.09394 0.244528,0.129543 0.244528,0.515393 0,1.00819 0.733555,2.838733 1.137559,2.838733 0.267337,0 0.313788,-0.218876 0.19458,-0.916054 -0.132807,-0.777889 -0.07015,-0.968693 0.416684,-1.265056 0.634182,-0.386121 0.735631,-0.420141 1.397503,-0.468653 0.603322,-0.04422 0.873862,-1.811251 0.506579,-3.308666 -0.161073,-0.656397 -0.178417,-1.160278 -0.04389,-1.257858 0.123582,-0.08954 0.294502,-0.525038 0.379611,-0.967782 0.08515,-0.442746 0.225185,-1.076676 0.311391,-1.408733 0.125009,-0.481742 0.05801,-0.603743 -0.330849,-0.603743 -0.268203,0 -0.627287,-0.184955 -0.798195,-0.411044 -0.273974,-0.362259 -0.227786,-0.376414 0.388296,-0.119296 0.384464,0.160463 0.944075,0.224259 1.243574,0.141723 0.637592,-0.175665 0.785551,0.01955 0.863297,1.139795 0.0641,0.923065 0.933335,1.472987 0.933335,0.590456 0,-0.354314 0.132809,-0.448303 0.488885,-0.346081 0.31858,0.09146 0.488853,0.366005 0.488853,0.788295 0,0.356372 0.165128,0.71745 0.366646,0.8024 0.520611,0.219305 0.453865,0.546068 -0.146687,0.718503 -0.288122,0.0827 -0.441563,0.275092 -0.34976,0.438169 0.09007,0.15992 0.266182,0.221306 0.391245,0.136382 0.125302,-0.08491 0.227497,-0.03491 0.227497,0.111119 0,0.146033 -0.247417,0.317833 -0.549973,0.381791 -0.382092,0.08078 -0.288844,0.132638 0.305561,0.169848 0.803821,0.05032 0.820135,0.06908 0.270222,0.310615 -0.321951,0.141377 -0.779281,0.189523 -1.016245,0.106939 -0.598687,-0.20851 -0.825895,-0.991326 -0.38944,-1.34168 0.19661,-0.157898 0.395203,-0.523329 0.441074,-0.812068 0.107098,-0.674505 -0.799953,-0.858569 -1.335264,-0.270938 -0.42476,0.466289 -0.769382,0.561591 -0.536775,0.148447 0.08314,-0.147582 0.03465,-0.268341 -0.107695,-0.268341 -0.361131,0 -0.323082,0.316606 0.121817,1.014084 0.209595,0.328259 0.322822,0.699821 0.252035,0.825689 -0.227496,0.404163 1.842589,2.061651 2.151441,1.7226 0.08143,-0.08947 0.448812,-0.19786 0.816269,-0.240863 0.367424,-0.043 0.7947,-0.268311 0.949473,-0.500679 0.236731,-0.355259 0.307406,-0.270531 0.444623,0.532433 0.08978,0.52521 0.267625,0.884074 0.395257,0.797466 0.127619,-0.08662 0.23558,5.37e-4 0.23991,0.193793 0.0056,0.215016 0.156761,0.143088 0.391938,-0.18541 0.381256,-0.532601 0.382988,-0.532381 0.230957,0.02914 -0.217098,0.802693 0.07103,1.446535 0.647439,1.446535 0.410184,0 0.44171,0.06739 0.188227,0.402494 -0.254055,0.33595 -0.219701,0.402496 0.206707,0.402496 0.363674,0 0.46873,0.121336 0.364138,0.42053 -0.104231,0.298007 -0.222879,0.337103 -0.407877,0.134165 -0.293808,-0.32254 -1.662125,-0.3967 -1.570464,-0.08512 0.03262,0.11071 -0.120972,0.481798 -0.341125,0.824698 -0.487066,0.758516 -0.786592,0.385522 -0.741754,-0.923691 0.02888,-0.804687 -0.05369,-0.912387 -0.878483,-1.163831 -1.180665,-0.359966 -1.285199,-0.351855 -1.131527,0.08778 0.126452,0.361415 -0.5802,0.852653 -0.83073,0.577609 -0.07043,-0.07728 3.44e-4,-0.140492 0.157339,-0.140492 0.156761,0 0.285238,-0.237696 0.285238,-0.52824 0,-0.355948 -0.117793,-0.478577 -0.36148,-0.375967 -0.250012,0.105267 -0.326806,0.413138 -0.24915,0.997817 0.06583,0.494852 -0.03116,1.051479 -0.233264,1.342068 -0.330302,0.474329 -0.389168,0.458239 -1.316642,-0.359965 -1.004732,-0.886385 -1.811183,-0.98463 -1.942395,-0.236647 -0.0514,0.291981 0.157646,0.481619 0.649715,0.589637 0.409838,0.08997 0.788956,0.379692 0.871816,0.666191 0.234711,0.811841 1.316034,1.186358 3.836924,1.328966 2.307453,0.13052 2.354744,0.146513 2.322122,0.783152 -0.02596,0.489022 -0.143771,0.618291 -0.479213,0.522174 -0.2529,-0.07239 -0.667387,0.115432 -0.957441,0.43383 -0.660052,0.724589 -2.71441,1.026255 -2.483129,0.364632 0.08256,-0.236142 0.05571,-0.442872 -0.05948,-0.459371 -1.838463,-0.263235 -1.776625,-0.286024 -1.552565,0.571546 0.15676,0.600407 0.128174,0.800096 -0.114322,0.800096 -0.368441,0 -0.690856,0.730664 -0.484321,1.097537 0.255786,0.454461 0.569979,0.247518 0.471991,-0.310937 -0.05948,-0.339648 0.01467,-0.514466 0.188519,-0.450459 0.447194,0.163612 0.399268,1.807077 -0.05312,1.827528 -0.209017,0.0097 -0.104517,0.142458 0.234713,0.298925 0.36376,0.16782 0.486802,0.333117 0.304027,0.408402 -0.168898,0.06957 -0.244813,0.236902 -0.168898,0.371884 0.07593,0.134966 6.68e-4,0.245432 -0.167447,0.245432 -0.168025,0 -0.0921,0.177289 0.168897,0.393959 0.260982,0.216697 0.345979,0.397802 0.188806,0.4025 -0.157067,0.0048 -0.477597,0.08944 -0.712308,0.188289 -0.313843,0.13224 -0.373807,0.08577 -0.226626,-0.175622 0.133086,-0.236458 0.105668,-0.291317 -0.082,-0.163929 -0.155313,0.105299 -0.282061,0.418705 -0.282061,0.696446 0,0.277756 -0.105077,0.576351 -0.233846,0.663581 -0.128465,0.08724 -0.171779,0.335848 -0.09614,0.552497 -0.429557,1.369917 1.056695,0.19746 1.371527,-0.171012 -0.082,-0.344157 0.0056,-0.508406 0.273976,-0.508406 0.217391,0 0.36763,0.09292 0.334025,0.206402 3.273133,2.143571 -8.4991431,9.904615 -7.935068,0.464443 z m 6.897185,-4.218639 c 0.139458,-0.114265 0.0609,-0.202039 -0.183324,-0.20438 -0.237885,-0.0024 -0.427762,0.194498 -0.427762,0.443111 0,0.245963 0.08256,0.337939 0.183323,0.204358 0.100753,-0.133524 0.293314,-0.332967 0.427766,-0.443106 z m -0.252902,-2.583233 c -0.137707,-0.159172 -0.602689,0.244221 -0.602689,0.522862 0,0.144689 0.15388,0.107379 0.341995,-0.08291 0.187934,-0.190273 0.305416,-0.388269 0.260694,-0.439941 z m 6.369421,-6.109588 c -0.21768,-0.23893 -0.469798,-0.353127 -0.560336,-0.253725 -0.09065,0.0994 -0.0026,0.293026 0.194868,0.430324 0.577458,0.400905 0.795482,0.295532 0.365379,-0.176575 z m -0.535735,11.411492 c -0.200642,-2.106072 0.351638,-1.972263 0.944421,0.228878 1.265348,4.34816 1.221726,0.721006 2.156177,-1.546021 0.09582,0 0.08401,-0.513182 -0.02596,-1.140403 -0.244817,-1.388674 -0.02974,-3.59104 0.353859,-3.624389 0.153591,-0.01341 0.609442,-0.07951 1.012758,-0.146916 0.832635,-0.139237 1.833234,0.194815 1.833234,0.612072 0,0.179982 -0.164548,0.166379 -0.46313,-0.03828 -0.341818,-0.234334 -0.678039,-0.242098 -1.283266,-0.02978 l -0.820134,0.287833 1.024417,0.02723 c 0.563425,0.0152 1.084697,0.134515 1.158405,0.265421 0.07361,0.130943 -0.0021,0.232661 -0.168895,0.226057 -1.024364,-0.04051 -1.902616,0.104421 -1.794666,0.296167 0.06929,0.122968 0.43319,0.175717 0.808815,0.117151 0.375625,-0.05856 0.900455,0.07059 1.166258,0.286975 0.442489,0.36016 0.385702,0.381321 -0.672179,0.250436 -0.772875,-0.09563 -1.155517,-0.04258 -1.155517,0.160264 0,0.166752 0.282061,0.303233 0.627169,0.303233 0.977393,0 1.666026,0.492437 1.323052,0.946111 -0.154748,0.204607 -0.209305,0.499886 -0.121233,0.656159 -0.06558,2.02455 -0.709124,4.93961 -0.9038,1.764399 -0.06553,-1.11896 -0.190257,-2.112845 -0.277442,-2.208633 -0.35435,-0.388982 -0.525315,0.333071 -0.525315,2.218629 0.640766,9.718472 -3.578306,6.061331 -4.197025,0.0874 z M 21.898113,31.91306 c 0.06035,-0.956164 0.187357,-1.341817 0.442172,-1.341817 0.224894,0 0.286676,0.124455 0.166561,0.335411 -0.314682,0.552988 -0.317941,1.114401 -0.0088,1.330899 0.215372,0.150322 0.204971,0.204855 -0.03954,0.207902 -0.193713,0.0024 -0.27311,0.171395 -0.190837,0.406601 0.07765,0.222032 0.0056,0.402575 -0.15734,0.402663 -0.205838,1.16e-4 -0.271666,-0.414583 -0.213061,-1.34165 z m -4.11783,0.788988 c 0,-0.156276 0.110008,-0.209557 0.244529,-0.118348 0.134559,0.09122 0.24453,0.219103 0.24453,0.284153 0,0.06506 -0.110008,0.118349 -0.24453,0.118349 -0.134557,0 -0.244529,-0.127882 -0.244529,-0.284154 z M 9.7140357,30.571243 c -0.5688558,-0.19997 -0.5740811,-0.21667 -0.075647,-0.241594 0.2945292,-0.01459 0.6035253,0.094 0.6866123,0.241594 0.08315,0.14757 0.116946,0.256299 0.07565,0.241594 -0.0416,-0.01459 -0.350511,-0.123421 -0.6866126,-0.241594 z m 12.3154633,-0.65515 c -0.187649,-0.537258 -0.02596,-1.292957 0.302356,-1.413001 0.171195,-0.06262 0.263005,0.255728 0.244528,0.849465 -0.03031,0.971881 -0.305066,1.255075 -0.546796,0.563536 z m -1.804888,-0.970664 c 0,-0.156279 0.110008,-0.209563 0.244526,-0.118347 0.134558,0.09122 0.244532,0.219079 0.244532,0.284153 0,0.06505 -0.110008,0.118347 -0.244532,0.118347 -0.134559,0 -0.244526,-0.12788 -0.244526,-0.284153 z m 3.570167,-0.396563 c -0.444599,-0.488056 -0.511056,-1.08552 -0.148085,-1.331746 0.134558,-0.09122 0.24453,0.0039 0.24453,0.211491 0,0.207513 0.231824,0.490905 0.515268,0.62973 0.44962,0.220242 0.4685,0.295057 0.148102,0.586931 -0.297301,0.270841 -0.44188,0.252523 -0.759709,-0.09641 z M 13.170945,27.976855 c 0.260118,-0.07591 0.357672,-0.301141 0.277154,-0.639696 -0.06842,-0.287453 -0.0016,-0.522536 0.148392,-0.522536 0.150114,0 0.28148,0.09052 0.291645,0.201246 0.01166,0.11071 0.05542,0.41256 0.100479,0.670821 0.06235,0.35767 -0.07301,0.462164 -0.568651,0.438454 -0.363532,-0.01759 -0.473407,-0.08282 -0.249147,-0.14829 z m 9.207708,-0.0039 c 0.176384,-0.07753 0.387288,-0.06795 0.4685,0.02112 0.08113,0.08916 -0.06323,0.152611 -0.320803,0.140928 -0.284659,-0.01297 -0.342686,-0.07644 -0.147813,-0.162095 z m 1.872473,-0.365051 c -0.07939,-0.141117 -0.069,-0.390859 0.02308,-0.554941 0.0924,-0.164079 0.07131,-0.375394 -0.04678,-0.469581 -0.349702,-0.279018 -0.777926,-1.834437 -0.59466,-2.159968 0.26589,-0.472501 1.787161,2.019755 1.608948,2.636117 -0.170311,0.589013 -0.778681,0.925638 -0.991104,0.548373 z m -2.071069,-0.509027 c 0,-0.303866 0.110007,-0.552499 0.244526,-0.552499 0.134558,0 0.244529,0.173998 0.244529,0.386662 0,0.212649 -0.110008,0.461282 -0.244529,0.552494 -0.134558,0.09122 -0.244526,-0.0828 -0.244526,-0.386657 z M 10.811523,26.810253 c -0.08458,-0.149971 -0.248569,-0.208155 -0.365,-0.129254 -0.11635,0.07892 -0.168318,-0.332365 -0.115767,-0.913947 0.122414,-1.351999 1.330473,-2.851063 1.898172,-2.355633 0.424241,0.370234 0.802379,2.32988 0.449588,2.32988 -0.129352,0 -0.286389,-0.150965 -0.349266,-0.335412 -0.07625,-0.223804 -0.174965,-0.173173 -0.297246,0.152211 -0.23327,0.621096 0.290519,1.296351 0.591225,0.762208 0.158484,-0.281402 0.232983,-0.262351 0.356487,0.09128 0.216813,0.620553 0.209592,0.635096 -0.271667,0.534007 -0.23529,-0.04943 -0.565242,-0.09911 -0.733295,-0.110404 -0.168027,-0.0115 -0.305559,-0.262031 -0.305559,-0.55719 0,-0.295152 -0.121832,-0.536659 -0.270796,-0.536659 -0.166885,0 -0.212195,0.257502 -0.117502,0.670827 0.150983,0.660009 -0.169186,0.931461 -0.469481,0.398118 z m 0.536083,-2.192643 c -0.07795,-0.214055 -0.135958,-0.150482 -0.14781,0.162114 -0.01166,0.282859 0.04706,0.441351 0.128464,0.352185 0.08113,-0.08916 0.08978,-0.320599 0.02027,-0.514299 z m 15.476663,0.721141 c 0,-0.290684 -0.271663,-0.402498 -0.977736,-0.402498 -0.696833,0 -0.977734,-0.113213 -0.977734,-0.394073 0,-0.241532 0.143186,-0.333772 0.369763,-0.238327 0.768142,0.323587 0.983512,-0.348228 1.060216,-3.307383 0.04129,-1.596459 0.176678,-2.942903 0.300366,-2.992095 0.123843,-0.04918 0.225182,-0.207263 0.225182,-0.351248 0,-0.14397 -0.125563,-0.176597 -0.279171,-0.07244 -0.206707,0.140321 -0.240776,-0.811658 -0.131672,-3.673702 0.08112,-2.124678 0.069,-4.4064213 -0.02596,-5.0705384 C 26.226415,7.7222101 26.16233,7.6354839 25.555716,7.7132002 24.672759,7.8263414 23.941284,6.4344379 24.357126,5.4325194 24.504631,5.0770788 24.627057,4.4598855 24.62908,4.0609816 c 0.0025,-0.5236565 0.06379,-0.6213169 0.219409,-0.3512967 0.126746,0.219502 0.117781,0.6827338 -0.02029,1.1213865 -0.310407,0.9774676 0.105373,1.8587546 0.87701,1.8587546 0.588687,0 1.234478,0.5912941 0.966737,0.8851883 -0.08256,0.090735 -0.06205,0.381502 0.04591,0.6461346 0.107969,0.2646328 0.213637,1.0549494 0.235,1.7562608 0.03982,1.3122483 0.331599,1.6870873 0.641291,0.8243063 0.10365,-0.288496 0.182739,0.166031 0.192839,1.10713 0.01739,1.585161 0.32857,1.804029 0.59192,0.415914 0.06985,-0.368956 0.06985,0.05367 -1.42e-4,0.939154 -0.07015,0.885488 -0.240777,1.730729 -0.379438,1.878311 -0.172065,0.183207 -0.217104,-0.01204 -0.142038,-0.615558 0.06034,-0.48614 0.01739,-0.946072 -0.09384,-1.022075 -0.112001,-0.076 -0.20354,-0.493305 -0.20354,-0.927338 0,-0.551835 -0.120387,-0.789157 -0.400019,-0.789157 -0.357178,0 -0.379929,0.308685 -0.212484,2.884551 0.103058,1.586501 0.181872,3.548664 0.175248,4.360361 -0.0326,3.914014 -0.116656,6.708253 -0.201798,6.708253 -0.05169,0 -0.09414,-0.181105 -0.09414,-0.402493 z M 27.7794,22.587747 c -0.09413,-2.34233 0.02596,-3.021594 0.363097,-2.056993 0.191127,0.546993 0.141468,2.698275 -0.08662,3.73467 -0.12584,0.573124 -0.205548,0.08988 -0.276574,-1.677677 z m -3.888313,0.738529 c 0,-0.500887 0.06527,-0.57244 0.29332,-0.321999 0.228071,0.250434 0.228071,0.393548 0,0.643993 -0.228074,0.250433 -0.29332,0.178916 -0.29332,-0.321994 z m 1.338556,-0.702775 c 0.217677,-0.238927 0.469828,-0.353127 0.560334,-0.253727 0.09065,0.09941 0.0025,0.29303 -0.194869,0.430328 -0.577456,0.400908 -0.795453,0.295533 -0.365376,-0.176578 z M 13.380512,19.406875 c 0,-0.511567 0.09845,-0.658033 0.366648,-0.54508 0.413012,0.173977 0.504819,-0.239976 0.112295,-0.506279 -0.140026,-0.09494 -0.190542,-0.393753 -0.112295,-0.664078 0.07822,-0.270338 0.02886,-0.569158 -0.112308,-0.664081 -0.150401,-0.102 -0.254344,0.101853 -0.254344,0.498243 0,0.897707 -0.41408,1.128292 -0.99312,0.553029 -0.667416,-0.663049 -0.59068,-1.295269 0.290948,-2.397574 0.830875,-1.03884 1.326285,-1.061119 2.202656,-0.09903 0.789274,0.866439 0.970897,1.706832 0.492694,2.279811 -0.229803,0.275253 -0.669637,0.892888 -0.977621,1.372523 -0.67662,1.053748 -1.015557,1.111328 -1.015557,0.172535 z m -0.24453,-1.747127 c 0,-0.147601 -0.109995,-0.1937 -0.244527,-0.102477 -0.134558,0.09123 -0.244528,0.286595 -0.244528,0.434167 0,0.147584 0.110008,0.1937 0.244528,0.102486 0.134557,-0.09123 0.244527,-0.286596 0.244527,-0.434165 z m 9.777283,0.836661 c 0,-0.500886 0.06527,-0.572436 0.293317,-0.321995 0.228073,0.250433 0.228073,0.393552 0,0.643992 -0.228072,0.250434 -0.293317,0.178897 -0.293317,-0.321997 z m -1.756851,-1.524892 c 0.176391,-0.07752 0.387264,-0.06796 0.468505,0.02112 0.08112,0.08917 -0.06323,0.152597 -0.320836,0.140929 -0.284653,-0.01296 -0.342654,-0.07645 -0.147811,-0.162098 z m 2.370393,-0.626071 c 0.08429,-0.14999 0.256076,-0.203243 0.381083,-0.118342 0.339018,0.230025 0.275707,0.391039 -0.153573,0.391039 -0.209595,0 -0.311998,-0.122706 -0.227496,-0.272718 z m -0.512726,-1.201249 c -0.084,-0.367935 -0.228363,-0.617904 -0.320226,-0.555485 -0.0921,0.06243 -0.123246,-0.300668 -0.06929,-0.806844 0.054,-0.506183 0.132808,-0.920332 0.175519,-0.920332 0.202961,0 0.846668,1.765248 0.846668,2.322029 0,0.834465 -0.438969,0.807141 -0.632483,-0.03937 z m -1.567406,-0.08908 c 0,-0.229583 0.148391,-0.310145 0.386652,-0.209809 0.212484,0.08961 0.487613,0.162872 0.61106,0.162872 0.123537,0 0.224321,0.119388 0.224321,0.265331 0,0.145924 -0.27513,0.240322 -0.61106,0.20981 -0.336102,-0.03042 -0.611087,-0.223238 -0.611087,-0.428198 z m -0.684708,-0.21417 c -0.363243,-0.429638 -0.188516,-0.906075 0.332496,-0.906075 0.377414,0 0.458193,0.477653 0.165128,0.976542 -0.129892,0.221191 -0.267623,0.201698 -0.497659,-0.07048 z m -2.590323,-3.50613 c 0.158194,-1.4207693 0.617644,-2.8377461 1.049449,-3.2361245 0.446271,-0.4117113 0.8473,-0.441011 0.624718,-0.045636 -0.155023,0.2752495 0.50678,0.970232 0.956343,1.0043461 0.251455,0.019014 0.888962,1.3056214 0.888962,1.7940924 0,0.336717 -0.952968,0.215466 -1.975828,-0.251353 -0.453862,-0.207144 -0.560364,0.646982 -0.125854,1.010136 0.15906,0.132975 0.04764,0.171554 -0.273114,0.09461 -0.314508,-0.07548 -0.519485,-0.0073 -0.488852,0.162034 0.02919,0.160579 -0.132211,0.336588 -0.358391,0.391138 -0.343552,0.08288 -0.392456,-0.06896 -0.297361,-0.923217 z m 2.623725,-0.95532 C 20.690293,10.195013 20.601078,9.8649367 20.597602,9.6459787 20.594702,9.4270157 20.371262,9.2048633 20.102252,9.1522915 L 19.6134,9.0567085 20.102252,9.4785717 c 0.465266,0.401503 0.44757,0.414928 -0.366646,0.278133 l -0.855504,-0.143726 0.855504,0.5397153 c 0.993961,0.627053 1.32888,0.698726 1.059725,0.226792 z m 7.434287,-1.3797807 c -0.513798,-0.4281497 -0.566804,-1.2364519 -0.08113,-1.2364519 0.537096,0 1.119951,0.2991456 1.119951,0.5748101 0,0.1370703 -0.229229,0.1143805 -0.509815,-0.050454 -0.746027,-0.4383047 -0.875741,-0.087186 -0.196897,0.533322 0.644923,0.5896012 0.350941,0.7478962 -0.332032,0.1787801 z m -0.7473,-2.0594345 c -0.158788,-0.6669029 0.742564,-0.8868045 1.050002,-0.2561392 0.191701,0.3934122 0.127036,0.5051506 -0.351146,0.6054863 -0.414947,0.087088 -0.619201,-0.0149 -0.698856,-0.349334 z M 25.858657,5.7642036 c 0.12759,-0.1402069 0.238467,-0.8646957 0.246259,-1.6099801 0.0088,-0.7452879 0.105077,-1.8380623 0.216235,-2.4283896 0.183324,-0.97312554 0.204971,-0.89484844 0.230386,0.8385335 0.01464,1.0515166 0.0915,2.2590021 0.168607,2.6832992 0.125009,0.6867674 0.07274,0.7714497 -0.476643,0.7714497 -0.389801,0 -0.531639,-0.093905 -0.384979,-0.2549034 z m 1.69882,-0.4317466 c 0,-0.156277 0.110008,-0.2095514 0.244528,-0.1183405 0.134558,0.091212 0.244527,0.2190912 0.244527,0.2841555 0,0.065064 -0.109997,0.1183397 -0.244527,0.1183397 -0.134558,0 -0.244528,-0.1278769 -0.244528,-0.2841547 z M 28.41298,4.2749715 C 28.32001,3.8111196 28.2952,3.3756738 28.35756,3.3073098 c 0.06235,-0.068364 0.183612,0.261432 0.269353,0.7328712 0.203834,1.1184671 0.0056,1.3352503 -0.213924,0.2347777 z"></path></svg>