<svg xmlns="http://www.w3.org/2000/svg" viewBox="0 0 32 32" height="32" width="32"><title>swambhunath.svg</title><rect fill="none" x="0" y="0" width="32" height="32"></rect><path fill="#051c05" transform="translate(1 1)" d="M 2.518392,29.262034 1.3319972,29.229726 1.3152945,28.16654 c -0.015762,-1.003439 -0.00811,-1.077093 0.1361633,-1.310742 0.084075,-0.136157 0.2834217,-0.332205 0.4429913,-0.435664 0.2652944,-0.172008 0.347125,-0.190217 0.9560647,-0.212782 l 0.6659369,-0.02468 0.044951,-0.539471 c 0.1294811,-1.553962 0.8761903,-3.486275 1.8887562,-4.887669 1.150862,-1.592799 2.7865511,-2.92664 4.6103111,-3.759535 l 0.593197,-0.270904 v -0.423846 -0.42384 h -0.377323 c -0.6857513,0 -0.6398035,0.147648 -0.6380782,-2.050394 0.0013,-1.725568 0.013419,-1.93447 0.118639,-2.0543 0.1656137,-0.18861 0.3727462,-0.273009 0.6719762,-0.273804 0.142275,-4.85e-4 0.366699,-0.01718 0.498717,-0.03734 l 0.240035,-0.03664 0.111304,-0.706576 C 11.47468,9.4757251 12.087855,8.0453902 12.928003,6.8716155 L 13.26373,6.4025628 13.24301,5.5739068 13.22229,4.7452491 h -0.164645 c -0.09056,0 -0.257709,-0.077389 -0.371452,-0.171984 C 12.414818,4.3475899 12.360525,4.0361536 12.545119,3.7640854 12.708004,3.5240136 13.009317,3.4327559 13.640724,3.4322605 l 0.44479,-3.784e-4 0.08574,-0.3085952 c 0.155427,-0.5594596 0.884352,-1.5050674 1.160187,-1.5050674 0.275831,0 1.004758,0.9456078 1.160191,1.5050683 l 0.08574,0.3085952 0.478691,0.00355 c 0.665036,0.00494 0.924225,0.098029 1.077337,0.3870856 0.215892,0.4075823 -0.01531,0.8235963 -0.509476,0.9166292 l -0.224759,0.04231 -0.01887,0.7835424 -0.01888,0.7835432 0.331766,0.4647853 c 0.972808,1.3628359 1.572735,2.8200451 1.739637,4.2255043 0.04549,0.383089 0.04585,0.383596 0.294038,0.421457 0.13667,0.02085 0.36441,0.03821 0.506088,0.03859 0.330744,8.66e-4 0.609601,0.135148 0.712218,0.342912 0.05703,0.115463 0.08099,0.7176 0.08099,2.035045 0,2.141985 0.04544,2.000543 -0.642681,2.000543 h -0.380435 l 0.02003,0.422144 0.02003,0.422149 0.715475,0.348938 c 1.48917,0.726267 2.685898,1.619633 3.721434,2.778068 1.441394,1.612465 2.461079,3.869719 2.622334,5.805 l 0.04408,0.528966 0.665938,0.02469 c 0.606421,0.02247 0.691918,0.04133 0.956636,0.211016 0.169662,0.108745 0.354814,0.303174 0.444676,0.466934 0.144305,0.262987 0.152816,0.345342 0.135587,1.312505 l -0.01838,1.031911 -1.389777,0.03925 c -1.636637,0.04623 -23.6920934,0.04021 -25.422734,-0.0068 z m 7.999687,-1.412295 c 0,-0.551451 -0.03043,-1.02593 -0.07018,-1.094455 -0.06815,-0.117464 -0.184109,-0.120974 -4.0020215,-0.120974 -4.3372114,0 -4.2766358,-0.0051 -4.5358957,0.387115 -0.1182975,0.178994 -0.1368532,0.31496 -0.1370726,1.004403 l -2.506e-4,0.797387 h 4.3727112 4.3727102 z m 2.102164,-1.481219 3.83e-4,-2.454699 -0.248552,-0.515958 c -0.247657,-0.51411 -0.249456,-0.515953 -0.503453,-0.515953 -0.453579,0 -0.469378,-0.01977 -0.469378,-0.586907 0,-0.581809 0.08433,-0.749474 0.447343,-0.889393 0.124432,-0.04796 0.349252,-0.08721 0.499595,-0.08721 h 0.273352 v -0.298784 c 0,-0.468871 0.324024,-0.764398 0.838101,-0.764398 0.222782,0 0.237122,-0.01331 0.28273,-0.262317 0.125653,-0.686113 0.580791,-1.516691 1.152635,-2.103426 0.392556,-0.40278 0.533213,-0.412309 0.851596,-0.05769 0.613572,0.683412 1.006465,1.376455 1.154075,2.035734 0.08556,0.382133 0.09006,0.387695 0.313887,0.387695 0.506456,0 0.830496,0.29825 0.830496,0.764398 v 0.298787 h 0.273352 c 0.347001,0 0.694305,0.13288 0.836385,0.320008 0.135005,0.177806 0.156818,1.050717 0.0292,1.168447 -0.04475,0.04128 -0.207712,0.07504 -0.362147,0.07504 h -0.280789 l -0.248552,0.515952 -0.248552,0.515958 3.84e-4,2.4547 3.83e-4,2.4547 h 0.2316 0.231601 l 0.02264,-0.749449 c 0.02252,-0.746211 0.02356,-0.750305 0.236658,-0.946725 0.166481,-0.153446 0.288327,-0.20386 0.548422,-0.226917 0.306711,-0.02718 0.341204,-0.04704 0.41671,-0.239643 0.04527,-0.115503 0.161057,-0.267142 0.257301,-0.336979 0.170332,-0.123583 0.261518,-0.126974 3.419964,-0.126974 h 3.244968 v -0.243931 c 0,-0.472396 -0.276058,-1.725664 -0.541332,-2.4576 -0.56752,-1.565892 -1.394401,-2.82225 -2.641003,-4.012753 -3.814554,-3.642937 -9.894185,-4.241865 -14.4542482,-1.423959 -2.7947745,1.72704 -4.7287715,4.685975 -4.9820329,7.622304 l -0.0445,0.515955 h 3.2549687 c 3.1684964,0 3.2596174,0.0032 3.4299504,0.126975 0.09624,0.06984 0.212025,0.221474 0.2573,0.336978 0.0755,0.192621 0.109995,0.212455 0.416708,0.239643 0.260094,0.02303 0.381945,0.07347 0.548421,0.226917 0.213108,0.19642 0.214131,0.200515 0.23666,0.946725 l 0.02262,0.749449 h 0.231603 0.231599 l 3.84e-4,-2.4547 z m 1.355331,0.855816 c 0,-0.982553 0.02706,-1.645518 0.07018,-1.719856 0.06538,-0.112695 0.153336,-0.120962 1.2857,-0.120962 1.132365,0 1.220322,0.0082 1.285703,0.120962 0.04313,0.07434 0.07018,0.737303 0.07018,1.719856 v 1.598884 h 0.406764 0.406764 v -2.345255 -2.345254 h -2.169409 -2.169403 v 2.345254 2.345255 h 0.406763 0.406764 z m 14.914665,0.83179 c 0,-0.878263 -0.08602,-1.113246 -0.478736,-1.307535 -0.216128,-0.106931 -0.484844,-0.114271 -4.178651,-0.114271 -3.833562,0 -3.9497,0.0036 -4.017851,0.120974 -0.03976,0.06853 -0.07018,0.543005 -0.07018,1.094454 v 0.973483 h 4.372709 4.372709 z m -10.657203,-5.653154 0.562692,-0.0404 -0.02033,-0.256282 -0.02033,-0.256287 h -3.423599 -3.423594 l -0.02066,0.297067 -0.02066,0.297066 2.901909,-4.04e-4 c 1.596045,-1.91e-4 3.155119,-0.01856 3.464597,-0.04077 z m -0.664384,-1.331037 c 0,-0.135559 -0.02698,-0.261854 -0.05996,-0.280652 -0.09601,-0.05474 -4.236189,-0.06893 -4.329707,-0.01482 -0.04661,0.02694 -0.08474,0.159929 -0.08474,0.295482 v 0.246473 h 2.237202 2.237201 z M 16.448136,20.051968 C 16.31114,19.454221 15.932771,18.739043 15.519111,18.295963 l -0.185206,-0.198376 -0.200193,0.218893 c -0.429418,0.469529 -0.780966,1.133445 -0.918948,1.735488 l -0.04658,0.203255 h 1.16327 1.163268 z m -4.819981,-3.671527 c 0.68588,-0.217691 1.902035,-0.438889 2.813504,-0.511726 1.417251,-0.11325 3.276652,0.09391 4.59309,0.511726 0.212059,0.06731 0.411296,0.122378 0.442749,0.122378 0.03146,0 0.05718,-0.163772 0.05718,-0.363936 v -0.363945 l -0.495829,-0.201012 c -0.577416,-0.234092 -0.838565,-0.436342 -1.132579,-0.87715 -0.264393,-0.39639 -0.473861,-0.536106 -1.049718,-0.70019 -0.463902,-0.132181 -0.868065,-0.432109 -1.342143,-0.996017 l -0.18402,-0.218891 -0.185905,0.218422 c -0.445882,0.523893 -0.875409,0.85914 -1.242899,0.970093 -0.684318,0.206608 -0.8615,0.322832 -1.170912,0.768065 -0.316002,0.454704 -0.604312,0.66691 -1.212631,0.892519 l -0.389815,0.144572 v 0.363735 c 0,0.200051 0.02573,0.363729 0.05718,0.363729 0.03145,0 0.230685,-0.05507 0.442748,-0.122378 z m -0.525402,-1.089167 c 0.722662,-0.236029 0.913935,-0.360958 1.214155,-0.793038 0.350055,-0.503794 0.62145,-0.706819 1.175636,-0.879469 0.228377,-0.07115 0.415232,-0.140848 0.415232,-0.154891 0,-0.01404 -0.854201,-0.02553 -1.89823,-0.02553 h -1.898231 v 0.96937 0.96937 h 0.364344 c 0.200388,0 0.482581,-0.03861 0.627094,-0.08581 z m 9.448831,-0.883553 v -0.969369 h -1.898228 c -1.04403,0 -1.898232,0.01153 -1.898232,0.02554 0,0.01404 0.186857,0.08374 0.415236,0.154889 0.525608,0.163744 0.825711,0.375077 1.108636,0.78069 0.123127,0.17653 0.300009,0.386171 0.393063,0.465871 0.281142,0.240788 1.049218,0.502379 1.48971,0.507356 l 0.389815,0.0045 z m -6.672651,-1.469692 h 0.695329 l 0.293849,-0.372733 c 0.43783,-0.555358 0.485254,-0.555386 0.936286,-4.83e-4 l 0.303465,0.373294 h 2.221861 2.221861 v -0.430124 c 0,-0.286376 -0.0308,-0.453716 -0.09221,-0.500717 -0.0671,-0.05138 -1.483769,-0.06622 -5.203185,-0.05457 l -5.110978,0.01603 -0.01974,0.482009 -0.01974,0.482009 0.528203,0.0259 c 0.290512,0.01423 0.983036,0.01543 1.538942,0.0027 0.55591,-0.01272 1.323638,-0.02321 1.70607,-0.02321 z m 5.109798,-1.641678 c -0.0062,-0.243106 -0.173315,-1.106512 -0.22304,-1.152383 -0.02614,-0.0241 -1.584472,-0.05622 -3.462992,-0.07138 l -3.415492,-0.02755 -0.07151,0.336411 c -0.03933,0.185028 -0.09159,0.498237 -0.116127,0.69602 l -0.04462,0.359605 h 3.668684 3.668685 z M 18.484827,9.2132155 c -0.09206,-0.2256037 -0.18511,-0.4366761 -0.206805,-0.4690527 -0.05293,-0.079017 -5.840203,-0.079017 -5.893143,0 -0.02169,0.032377 -0.114752,0.243449 -0.206803,0.4690527 l -0.167364,0.4101853 h 3.320738 3.32074 z M 17.974128,8.1693445 C 17.9734,8.126342 17.881846,7.9574884 17.770623,7.7941032 L 17.568404,7.4970379 H 15.33145 13.094497 l -0.202215,0.2970653 c -0.111222,0.1633852 -0.202799,0.332244 -0.203509,0.3752413 -0.0011,0.06123 0.572013,0.078168 2.642677,0.078168 2.070661,0 2.643686,-0.016955 2.642678,-0.078168 z m -0.854187,-1.3602485 -0.179454,-0.25016 -1.601098,0.00147 -1.601098,0.00147 -0.190826,0.2488247 -0.190831,0.2488256 h 1.971381 1.971384 L 17.119941,6.8092744 Z M 16.890711,5.4332139 V 4.8078135 H 15.33145 13.772192 v 0.6254004 0.6254004 h 1.559258 1.559261 z M 16.077184,3.3465214 c 0,-0.1376322 -0.459996,-0.9462294 -0.60911,-1.0707193 -0.132223,-0.1103882 -0.141025,-0.1103882 -0.273248,0 -0.149113,0.1244899 -0.609111,0.9330871 -0.609111,1.0707193 0,0.067006 0.160664,0.085408 0.745735,0.085408 0.585071,0 0.745734,-0.018401 0.745734,-0.085408 z"></path></svg>